<?xml version="1.0" encoding="utf-8"?>
<!-- Generator: Adobe Illustrator 27.1.1, SVG Export Plug-In . SVG Version: 6.00 Build 0)  -->
<svg version="1.1" id="Layer_1" xmlns:svgjs="http://svgjs.com/svgjs"
	 xmlns="http://www.w3.org/2000/svg" xmlns:xlink="http://www.w3.org/1999/xlink" x="0px" y="0px" viewBox="0 0 512 512"
	 style="enable-background:new 0 0 512 512;" xml:space="preserve">
<g>
	<g>
		<g>
			<path d="M256,0C114.6,0,0,114.6,0,256s114.6,256,256,256s256-114.6,256-256S397.4,0,256,0z M256,469.3
				c-117.8,0-213.3-95.5-213.3-213.3S138.2,42.7,256,42.7S469.3,138.2,469.3,256S373.8,469.3,256,469.3z"/>
		</g>
	</g>
</g>
<g>
	<g id="Layer_1-2_00000154420217879027615790000017144327392423483823_">
		<g>
			<path d="M97.8,233.6h87.6c3.6-11.2,23.1-71.8,23.1-71.8c1.4-4.3,5.5-7,10-6.7c4.4,0.3,8.1,3.7,8.9,8.1c0,0,20.7,126.1,29.2,177.4
				c13.7-39.6,35.6-103.1,35.6-103.1c1.3-3.9,5-6.5,9.2-6.5h113v-48.2c0-10.4-3.7-11.1-16-11.1H335v-63.3c0-12.3,1.4-16-11.1-16
				H188.3c-10.4,0-11.1,3.7-11.1,16v63.3h-67.7c-12.3,0-11.7,5-11.7,11.1C97.8,182.9,97.8,233.6,97.8,233.6z"/>
			<path d="M308.2,250.4c-4.1,11.9-45.8,132.7-45.8,132.7c-1.5,4.2-5.5,6.9-10,6.5c-4.4-0.4-8-3.7-8.7-8c0,0-20.3-123.1-28.9-175.7
				c-6.5,20.2-13,40.4-13,40.4c-1.3,4-5,6.7-9.2,6.7H97.8v65.5c0,6.2-0.7,11.1,11.7,11.1h67.6v67.7c0,12.3,5,11.6,11.1,11.6h135.6
				c6.2,0,11.1,0.7,11.1-11.6v-67.7h63.3c12.3,0,16,1.5,16-11.1v-68.1L308.2,250.4L308.2,250.4z"/>
		</g>
	</g>
</g>
</svg>
