<?xml version="1.0" encoding="UTF-8"?><svg id="Step_4" xmlns="http://www.w3.org/2000/svg" viewBox="0 0 413.53 380"><defs><style>.cls-1{fill:#231f20;fill-rule:evenodd;}</style></defs><path class="cls-1" d="M184.99,83.22h53.5l-17.29,52.96,46.59,.12-18.47,55.52,61.25,.03-104.12,131,29.15-91.16h-45.49l17.3-54.84h-59.27l36.84-93.63Zm20.62,288.91c-96.76-64.52-138.94-112.82-162.18-149.12C12.81,175.3,4.12,138.23,4.12,110.13,4.12,47.75,46.5,7.15,103.34,7.15c28.94,0,66.88,13.21,102.06,46.72C245.03,17.98,282.15,6.34,309.12,6.34c54.69,0,98.29,41.51,98.29,105.47,0,39.32-18.08,92.88-72.51,153.61-29.78,33.2-77.25,74.02-129.29,106.7Z"/></svg>