<svg xmlns="http://www.w3.org/2000/svg" version="1.1" xmlns:xlink="http://www.w3.org/1999/xlink" xmlns:svgjs="http://svgjs.com/svgjs" width="512" height="512" x="0" y="0" viewBox="0 0 57 57" style="enable-background:new 0 0 512 512" xml:space="preserve" class=""><g><g id="Page-1" fill="none" fill-rule="evenodd"><g id="002---Giving-CPR" fill="rgb(0,0,0)" fill-rule="nonzero"><circle id="Oval" cx="6" cy="51" r="6" fill="#000000" data-original="#000000" class=""></circle><path id="Shape" d="m43 42h-6.037c.027-.03.065-.043.09-.077l5.947-8.291zm-10.018-42c2.4367515.00277371 4.6298147 1.47901229 5.5494588 3.73556278.9196441 2.25655048.3831967 4.84518538-1.3574588 6.55043722l-.015.013c-1.9393877 1.8881897-4.9028739 2.244073-7.2341752.8687477-2.3313012-1.37532517-3.4530968-4.141275-2.7384185-6.75196836s3.0888484-4.41962127 5.7955937-4.41577934zm-12.682 13.8c1.6763728-1.1735827 3.6736575-1.8020988 5.72-1.8h1.689c3.0099171 2.6668685 7.5370829 2.6668685 10.547 0h1.7c2.0355851-.0064257 4.0234895.6159294 5.692 1.782 3.2831899 2.4701202 4.0035622 7.1048848 1.625 10.455l-9.531 13.293c-.1549807-.5245422-.395553-1.0198779-.712-1.466l-2.8-3.876 7.674-10.6c.3086263-.4474174.2033647-1.0594222-.2370113-1.3780152-.4403759-.3185929-1.0545896-.2270974-1.3829887.2060152l-7.292 10.066-7.282-10.068c-.2058988-.2984927-.5572523-.4621336-.9182284-.4276597s-.6750049.2616602-.8206837.5937292c-.1456789.3320691-.100178.7169812.1189121 1.0059305l8.044 11.121 3.275 4.527c.4667939.6449991.6580439 1.4491023.5316242 2.2351928-.1264198.7860906-.560139 1.4896857-1.2056242 1.9558072-1.3499514.9300792-3.1925862.6345706-4.184-.671l-11.839-16.517c-2.3763852-3.3369015-1.673299-7.9578778 1.588-10.437zm8.63 28.125c.019.027.041.049.061.075h-6.991v-9.743zm-11.93 13.029v-7.862c.0043965-1.70584 1.38616-3.0876035 3.092-3.092h30.908v4.1c-.3291289-.0668333-.6641542-.1003359-1-.1h-26c-2.209139 0-4 1.790861-4 4v2c.0041446.7042532.1960759 1.3946535.556 2h-2.51c-.5774613-.0005513-1.0454487-.4685387-1.046-1.046zm7 1.046c-1.1045695 0-2-.8954305-2-2v-2c0-1.1045695.8954305-2 2-2h26c1.6568542 0 3 1.3431458 3 3s-1.3431458 3-3 3zm33-1c0 .5522847-.4477153 1-1 1h-2.026c.8092259-1.048978 1.1620042-2.3796041.9787534-3.6917095-.1832507-1.3121054-.8870939-2.495162-1.9527534-3.2822905v-5.026h3c.5522847 0 1 .4477153 1 1z" fill="#000000" data-original="#000000" class=""></path></g></g></g></svg>