<svg xmlns="http://www.w3.org/2000/svg" version="1.1" xmlns:xlink="http://www.w3.org/1999/xlink" xmlns:svgjs="http://svgjs.com/svgjs" width="512" height="512" x="0" y="0" viewBox="0 0 682.66669 682.66669" style="enable-background:new 0 0 512 512" xml:space="preserve" class=""><g>
  <defs id="defs463">
    <clipPath clipPathUnits="userSpaceOnUse" id="clipPath473">
      <path d="M 0,512 H 512 V 0 H 0 Z" id="path471" fill="#000000" data-original="#000000"></path>
    </clipPath>
  </defs>
  <mask id="custom"><rect id="bg" x="0" y="0" width="100%" height="100%" fill="white" data-original="#ffffff"></rect><g transform="matrix(1.3333333,0,0,-1.3333333,0,682.66667)"></g></mask><g mask="url(#custom)"><g id="g465" transform="matrix(1.3333333,0,0,-1.3333333,0,682.66667)">
    <g id="g467">
      <g id="g469" clip-path="url(#clipPath473)">
        <g id="g475" transform="translate(448,33)">
          <path d="m 0,0 32.162,31.654 c 15.784,15.655 15.784,41.037 0,56.692 L 0,120 M 34,60 h -153 m 44,195 -32.162,-31.654 c -15.784,-15.655 -15.784,-41.037 0,-56.692 L -75,135 m -34,60 H 44 M -348.111,179 H -272 m -76.111,80 H -180 m 37.889,80 h -206 M -151,-13 h -217 c -33.137,0 -60,26.863 -60,60 v 352 c 0,33.137 26.863,60 60,60 h 245.889 c 33.137,0 60,-26.863 60,-60 v -73" style="stroke-width:40;stroke-linecap:round;stroke-linejoin:round;stroke-miterlimit:10;stroke-dasharray:none;stroke-opacity:1" id="path477" fill="none" stroke="#000000" stroke-width="40" stroke-linecap="round" stroke-linejoin="round" stroke-miterlimit="10" stroke-dasharray="none" stroke-opacity="" data-original="#000000" class=""></path>
        </g>
      </g>
    </g>
  </g></g>
</g></svg>