<svg width="25" height="25" viewBox="0 0 25 25" fill="none" xmlns="http://www.w3.org/2000/svg">
<path d="M25 6.25C25 2.80526 22.1974 0 18.75 0C16.2289 0 14.0553 1.50526 13.0684 3.66053L11.0842 2.75789C10.85 2.65263 10.5789 2.65263 10.3447 2.75789L0.523684 7.22368C0.205263 7.36842 0 7.68684 0 8.03684V19.6447C0 19.9947 0.205263 20.3132 0.523684 20.4579L10.3447 24.9211C10.4632 24.9737 10.5868 25 10.7132 25C10.8395 25 10.9658 24.9737 11.0816 24.9211L20.9026 20.4579C21.2211 20.3132 21.4263 19.9947 21.4263 19.6447V11.8895C23.5342 10.8842 24.9974 8.73684 24.9974 6.25H25ZM10.7132 4.55263L12.5658 5.39474C12.5263 5.67632 12.5 5.96053 12.5 6.25263C12.5 7.70526 13.0026 9.03947 13.8368 10.1026L10.7132 11.5211L3.05 8.03684L10.7132 4.55263ZM1.78684 9.42105L9.82368 13.0737V22.7184L1.78684 19.0658V9.41842V9.42105ZM19.6447 19.0684L11.6079 22.7211V13.0763L15.2447 11.4237C16.2447 12.1026 17.4526 12.5026 18.75 12.5026C19.0526 12.5026 19.35 12.4737 19.6421 12.4316V19.0711L19.6447 19.0684ZM18.7526 10.7132C16.2921 10.7132 14.2895 8.71053 14.2895 6.25C14.2895 3.78947 16.2921 1.78684 18.7526 1.78684C21.2132 1.78684 23.2158 3.78947 23.2158 6.25C23.2158 8.71053 21.2132 10.7132 18.7526 10.7132Z" fill="#0C71C3"/>
<path d="M21.4297 5.35766H19.6428V3.57082C19.6428 3.07608 19.2428 2.67871 18.7507 2.67871C18.2586 2.67871 17.8586 3.07871 17.8586 3.57082V5.35766H16.0718C15.5797 5.35766 15.1797 5.75766 15.1797 6.24976C15.1797 6.74187 15.5797 7.14187 16.0718 7.14187H17.8586V8.92871C17.8586 9.42345 18.2586 9.82082 18.7507 9.82082C19.2428 9.82082 19.6428 9.42082 19.6428 8.92871V7.14187H21.4297C21.9218 7.14187 22.3218 6.74187 22.3218 6.24976C22.3218 5.75766 21.9218 5.35766 21.4297 5.35766Z" fill="#0C71C3"/>
</svg>
