<svg width="25" height="25" viewBox="0 0 25 25" fill="none" xmlns="http://www.w3.org/2000/svg">
<g clip-path="url(#clip0_2708_7493)">
<path d="M18.3022 2.01711L19.4939 1.74478C19.874 1.65804 20.1116 1.27952 20.0247 0.899272C19.938 0.519284 19.5595 0.281369 19.1795 0.368367L16.302 1.02568C15.9221 1.11268 15.6841 1.49123 15.7712 1.87119L16.4285 4.74869C16.5031 5.07592 16.7941 5.29736 17.116 5.29736C17.168 5.29736 17.221 5.29164 17.2738 5.2796C17.6538 5.19275 17.8917 4.81419 17.8047 4.43409L17.5214 3.19326C20.6672 5.3295 22.3964 9.03127 21.9695 12.8605C21.6646 15.5964 20.3126 18.0495 18.1623 19.7683C16.3178 21.2429 14.0753 22.0256 11.7476 22.0255C11.3623 22.0255 10.9744 22.004 10.5859 21.9607C10.198 21.9174 9.8493 22.1968 9.806 22.584C9.7627 22.9716 10.0419 23.3206 10.4294 23.3639C10.868 23.4129 11.309 23.4375 11.7503 23.4376C14.3968 23.4373 16.9466 22.5476 19.044 20.8709C21.4885 18.9168 23.0259 16.1274 23.3727 13.017C23.8587 8.65789 21.8872 4.44415 18.3022 2.01711ZM6.9056 18.5494C6.81886 18.1695 6.44019 17.9317 6.06009 18.0185C5.6801 18.1055 5.44248 18.4838 5.52915 18.864L5.82786 20.1714C2.74913 18.0246 1.06369 14.363 1.48584 10.5771C1.79065 7.84119 3.14273 5.3881 5.29296 3.66927C7.44307 1.95059 10.1338 1.17216 12.8696 1.47689C13.2572 1.52074 13.606 1.24095 13.6493 0.853553C13.6924 0.465969 13.4135 0.116986 13.026 0.0736886C9.91542 -0.273167 6.85602 0.612189 4.41127 2.56662C1.96666 4.5208 0.429423 7.31017 0.0827148 10.4206C-0.395096 14.7053 1.50158 18.8497 4.97131 21.2949L3.84019 21.5534C3.4602 21.6401 3.22228 22.0186 3.30924 22.3989C3.38395 22.7258 3.67478 22.9475 3.99686 22.9475C4.04886 22.9475 4.10173 22.9418 4.15464 22.9298L7.032 22.2724C7.41214 22.1854 7.64976 21.8069 7.56291 21.4269L6.9056 18.5494Z" fill="#0C71C3"/>
<path d="M5.64907 16.4977H17.8889C18.2788 16.4977 18.5948 16.1817 18.5948 15.7918V7.96094L12.2443 13.7417C12.1143 13.8601 11.9448 13.9256 11.769 13.9255C11.5933 13.9256 11.4238 13.8601 11.2939 13.7417L4.94336 7.96094V15.7918C4.94336 16.1817 5.25939 16.4977 5.64911 16.4977H5.64907Z" fill="#0C71C3"/>
<path d="M17.6173 6.94141H5.92383L11.7704 12.2633L17.6173 6.94141Z" fill="#0C71C3"/>
</g>
<defs>
<clipPath id="clip0_2708_7493">
<rect width="25" height="25" fill="white"/>
</clipPath>
</defs>
</svg>
