<svg xmlns="http://www.w3.org/2000/svg" version="1.1" xmlns:xlink="http://www.w3.org/1999/xlink" xmlns:svgjs="http://svgjs.com/svgjs" width="512" height="512" x="0" y="0" viewBox="0 0 64 64" style="enable-background:new 0 0 512 512" xml:space="preserve" class=""><g><path d="m55.89307 12.03418h-25.94825v-5.03418a3.00328 3.00328 0 0 0 -3-3h-12.72363a3.00328 3.00328 0 0 0 -3 3v5.03418h-3.11426a3.00505 3.00505 0 0 0 -3.00146 3.001v37.501a3.00505 3.00505 0 0 0 3.00146 3.001h10.96582v.94141a3.51124 3.51124 0 1 0 7.02246 0v-.94141h29.79786a3.00505 3.00505 0 0 0 3.00146-3.001v-37.501a3.00505 3.00505 0 0 0 -3.00146-3.001zm-41.67188-6.03418h12.72363a1.001 1.001 0 0 1 1 1v6.00275a.1016.1016 0 0 0 0 .06286v34.31623a1.001 1.001 0 0 1 -1 1h-6.83819a.1081.1081 0 0 0 -.06775 0h-5.81769a1.001 1.001 0 0 1 -1-1v-34.309a.1231.1231 0 0 0 0-.07739v-5.99545a1.001 1.001 0 0 1 1-1zm-6.11426 47.53711a1.00245 1.00245 0 0 1 -1.00146-1.001v-37.501a1.00245 1.00245 0 0 1 1.00146-1.001h3.11426v33.34773a3.00328 3.00328 0 0 0 3 3h4.85156v3.15527zm15.98828 2.94141a1.51127 1.51127 0 0 1 -3.02245-.00007v-.94134h3.02246zm32.79932-3.94239a1.00245 1.00245 0 0 1 -1.00146 1.001h-34.82032v-3.15529h5.87207a3.00328 3.00328 0 0 0 3-3v-33.34766h25.94825a1.00245 1.00245 0 0 1 1.00146 1.001z" fill="#000000" data-original="#000000" class=""></path><path d="m51.61816 18.15039h-16.563a.99974.99974 0 0 0 -1 1v8.84473a.99974.99974 0 0 0 1 1h16.563a.99974.99974 0 0 0 1-1v-8.84473a.99974.99974 0 0 0 -1-1zm-1 8.84473h-14.563v-6.84473h14.563z" fill="#000000" data-original="#000000" class=""></path><path d="m37.33331 31.58618a2.00131 2.00131 0 0 0 .00009 4.0022 2.00131 2.00131 0 0 0 -.00009-4.0022z" fill="#000000" data-original="#000000" class=""></path><path d="m43.33667 31.58618a2.00131 2.00131 0 0 0 .00008 4.0022 2.00131 2.00131 0 0 0 -.00008-4.0022z" fill="#000000" data-original="#000000" class=""></path><path d="m49.34 31.58618a2.00131 2.00131 0 0 0 .00008 4.0022 2.00131 2.00131 0 0 0 -.00008-4.0022z" fill="#000000" data-original="#000000" class=""></path><path d="m37.33331 37.58954a2.0013 2.0013 0 0 0 .00009 4.00219 2.0013 2.0013 0 0 0 -.00009-4.00219z" fill="#000000" data-original="#000000" class=""></path><path d="m43.33667 37.58954a2.0013 2.0013 0 0 0 .00008 4.00219 2.0013 2.0013 0 0 0 -.00008-4.00219z" fill="#000000" data-original="#000000" class=""></path><path d="m49.34 37.58954a2.0013 2.0013 0 0 0 .00008 4.00219 2.0013 2.0013 0 0 0 -.00008-4.00219z" fill="#000000" data-original="#000000" class=""></path><path d="m37.33331 43.59283a2.00134 2.00134 0 0 0 .00009 4.00226 2.00134 2.00134 0 0 0 -.00009-4.00226z" fill="#000000" data-original="#000000" class=""></path><path d="m43.33667 43.59283a2.00134 2.00134 0 0 0 .00008 4.00226 2.00134 2.00134 0 0 0 -.00008-4.00226z" fill="#000000" data-original="#000000" class=""></path><path d="m49.34 43.59283a2.00134 2.00134 0 0 0 .00008 4.00226 2.00134 2.00134 0 0 0 -.00008-4.00226z" fill="#000000" data-original="#000000" class=""></path></g></svg>