<svg width="25" height="25" viewBox="0 0 25 25" fill="none" xmlns="http://www.w3.org/2000/svg">
<g clip-path="url(#clip0_199_2386)">
<path d="M18.2293 25C14.496 25 11.4585 21.9625 11.4585 18.2292C11.4585 14.4958 14.496 11.4583 18.2293 11.4583C21.9627 11.4583 25.0002 14.4958 25.0002 18.2292C25.0002 21.9625 21.9627 25 18.2293 25ZM18.2293 13.0208C15.3575 13.0208 13.021 15.3573 13.021 18.2292C13.021 21.1011 15.3575 23.4375 18.2293 23.4375C21.1012 23.4375 23.4377 21.1011 23.4377 18.2292C23.4377 15.3573 21.1012 13.0208 18.2293 13.0208Z" fill="#0C71C3"/>
<path d="M18.229 21.875C17.7978 21.875 17.4478 21.525 17.4478 21.0938V15.3646C17.4478 14.9333 17.7978 14.5833 18.229 14.5833C18.6603 14.5833 19.0103 14.9333 19.0103 15.3646V21.0938C19.0103 21.525 18.6603 21.875 18.229 21.875Z" fill="#0C71C3"/>
<path d="M21.0939 19.0104H15.3647C14.9335 19.0104 14.5835 18.6604 14.5835 18.2292C14.5835 17.7979 14.9335 17.4479 15.3647 17.4479H21.0939C21.5252 17.4479 21.8752 17.7979 21.8752 18.2292C21.8752 18.6604 21.5252 19.0104 21.0939 19.0104Z" fill="#0C71C3"/>
<path d="M9.57292 21.875H2.86458C1.28438 21.875 0 20.5906 0 19.0104V2.86458C0 1.28437 1.28438 0 2.86458 0H14.8438C16.424 0 17.7083 1.28437 17.7083 2.86458V9.20833C17.7083 9.63958 17.3583 9.98958 16.9271 9.98958C16.4958 9.98958 16.1458 9.63958 16.1458 9.20833V2.86458C16.1458 2.14687 15.5615 1.5625 14.8438 1.5625H2.86458C2.14688 1.5625 1.5625 2.14687 1.5625 2.86458V19.0104C1.5625 19.7281 2.14688 20.3125 2.86458 20.3125H9.57292C10.0042 20.3125 10.3542 20.6625 10.3542 21.0938C10.3542 21.525 10.0042 21.875 9.57292 21.875Z" fill="#0C71C3"/>
<path d="M13.8021 9.89584H3.90625C3.475 9.89584 3.125 9.54584 3.125 9.11459C3.125 8.68334 3.475 8.33334 3.90625 8.33334H13.8021C14.2333 8.33334 14.5833 8.68334 14.5833 9.11459C14.5833 9.54584 14.2333 9.89584 13.8021 9.89584Z" fill="#0C71C3"/>
<path d="M9.63542 14.0625H3.90625C3.475 14.0625 3.125 13.7125 3.125 13.2812C3.125 12.85 3.475 12.5 3.90625 12.5H9.63542C10.0667 12.5 10.4167 12.85 10.4167 13.2812C10.4167 13.7125 10.0667 14.0625 9.63542 14.0625Z" fill="#0C71C3"/>
<path d="M8.59375 5.72916H3.90625C3.475 5.72916 3.125 5.37916 3.125 4.94791C3.125 4.51666 3.475 4.16666 3.90625 4.16666H8.59375C9.025 4.16666 9.375 4.51666 9.375 4.94791C9.375 5.37916 9.025 5.72916 8.59375 5.72916Z" fill="#0C71C3"/>
</g>
<defs>
<clipPath id="clip0_199_2386">
<rect width="25" height="25" fill="white"/>
</clipPath>
</defs>
</svg>
