<svg width="25" height="25" viewBox="0 0 25 25" fill="none" xmlns="http://www.w3.org/2000/svg">
<path d="M12.5 6.33594C13.8332 6.33594 14.9141 5.25513 14.9141 3.92188C14.9141 2.58863 13.8332 1.50781 12.5 1.50781C11.1668 1.50781 10.0859 2.58863 10.0859 3.92188C10.0859 5.25513 11.1668 6.33594 12.5 6.33594Z" fill="#0C71C3"/>
<path d="M14.0625 7.02976H10.9375C10.1435 6.99796 9.3692 7.28164 8.78368 7.81886C8.19816 8.35607 7.84901 9.10316 7.8125 9.89694V13.9985C7.82492 14.4615 7.98241 14.9089 8.26277 15.2775C8.54312 15.6462 8.93216 15.9175 9.375 16.0532V21.6469C9.34913 22.0904 9.49834 22.5263 9.79055 22.8609C10.0828 23.1954 10.4946 23.402 10.9375 23.436H14.0625C14.5054 23.402 14.9173 23.1954 15.2095 22.8609C15.5017 22.5263 15.6509 22.0904 15.625 21.6469V16.0532C16.0678 15.9175 16.4569 15.6462 16.7372 15.2775C17.0176 14.9089 17.1751 14.4615 17.1875 13.9985V9.89694C17.151 9.10316 16.8018 8.35607 16.2163 7.81886C15.6308 7.28164 14.8565 6.99796 14.0625 7.02976Z" fill="#0C71C3"/>
</svg>
