<svg width="25" height="25" viewBox="0 0 25 25" fill="none" xmlns="http://www.w3.org/2000/svg">
<path d="M6.66665 23.3346H20.8333C20.9438 23.3346 21.0498 23.2907 21.1279 23.2126C21.2061 23.1344 21.25 23.0285 21.25 22.918V2.08462C21.25 1.97412 21.2061 1.86814 21.1279 1.79C21.0498 1.71187 20.9438 1.66797 20.8333 1.66797H6.66665C6.55615 1.66797 6.45017 1.71187 6.37203 1.79C6.2939 1.86814 6.25 1.97412 6.25 2.08462V22.918C6.25 23.0285 6.2939 23.1344 6.37203 23.2126C6.45017 23.2907 6.55615 23.3346 6.66665 23.3346ZM7.0833 2.50127H20.4166V22.5013H7.0833V2.50127Z" fill="#0C71C3"/>
<path d="M2.08301 16.6667V20.4167C2.08301 21.107 2.64268 21.6667 3.33301 21.6667V22.9167C3.32446 24.0566 4.24014 24.9885 5.38008 25H20.8692C22.0092 24.9885 22.9249 24.0566 22.9163 22.9167V2.08335C22.9249 0.943359 22.0092 0.0114746 20.8693 0H5.38008C4.24009 0.0114746 3.32441 0.943359 3.33301 2.08335V3.33335C2.64268 3.33335 2.08301 3.89302 2.08301 4.58335V8.33335C2.08301 9.02373 2.64268 9.58335 3.33301 9.58335V15.4167C2.64268 15.4167 2.08301 15.9763 2.08301 16.6667ZM2.91636 20.4167V16.6667C2.91636 16.5561 2.96025 16.4502 3.03839 16.372C3.11653 16.2939 3.22251 16.25 3.33301 16.25H4.16636C4.22107 16.25 4.27525 16.2608 4.3258 16.2817C4.37635 16.3027 4.42228 16.3333 4.46097 16.372C4.49966 16.4107 4.53035 16.4567 4.55129 16.5072C4.57223 16.5578 4.58301 16.6119 4.58301 16.6667V20.4167C4.58301 20.4714 4.57223 20.5255 4.55129 20.5761C4.53035 20.6266 4.49966 20.6726 4.46097 20.7113C4.42228 20.75 4.37635 20.7806 4.3258 20.8016C4.27525 20.8225 4.22107 20.8333 4.16636 20.8333H3.33301C3.27829 20.8333 3.22411 20.8225 3.17355 20.8016C3.123 20.7807 3.07707 20.75 3.03838 20.7113C2.99969 20.6726 2.969 20.6267 2.94806 20.5761C2.92712 20.5255 2.91635 20.4714 2.91636 20.4167ZM2.91636 8.33335V4.58335C2.91636 4.47285 2.96025 4.36687 3.03839 4.28873C3.11653 4.2106 3.22251 4.1667 3.33301 4.1667H4.16636C4.22107 4.1667 4.27525 4.17748 4.3258 4.19841C4.37635 4.21935 4.42228 4.25004 4.46097 4.28873C4.49966 4.32742 4.53035 4.37335 4.55129 4.4239C4.57223 4.47445 4.58301 4.52863 4.58301 4.58335V8.33335C4.58301 8.38807 4.57223 8.44224 4.55129 8.49279C4.53035 8.54335 4.49966 8.58928 4.46097 8.62797C4.42228 8.66666 4.37635 8.69735 4.3258 8.71828C4.27525 8.73922 4.22107 8.75 4.16636 8.75H3.33301C3.22251 8.75 3.11653 8.7061 3.03839 8.62797C2.96025 8.54983 2.91636 8.44385 2.91636 8.33335ZM4.16636 9.58335C4.85669 9.58335 5.41636 9.02368 5.41636 8.33335V4.58335C5.41636 3.89302 4.85669 3.33335 4.16636 3.33335V2.08335C4.15732 1.40337 4.7002 0.844336 5.38013 0.83335H20.8693C21.5492 0.844336 22.0921 1.40337 22.0831 2.08335V22.9167C22.0921 23.5967 21.5492 24.1557 20.8693 24.1667H5.38008C4.70015 24.1557 4.15728 23.5967 4.16631 22.9167V21.6667C4.85664 21.6667 5.41631 21.107 5.41631 20.4167V16.6667C5.41631 15.9764 4.85664 15.4167 4.16631 15.4167L4.16636 9.58335Z" fill="#0C71C3"/>
<path d="M11.1692 9.58447H12.2692L11.7872 13.3312C11.7661 13.4858 11.7953 13.6431 11.8703 13.78C11.9453 13.9168 12.0622 14.026 12.2038 14.0916C12.3069 14.1413 12.4198 14.1672 12.5342 14.1674C12.6354 14.1672 12.7355 14.1467 12.8285 14.107C12.9216 14.0674 13.0057 14.0094 13.0759 13.9366L16.8746 10.0058C16.9753 9.90207 17.0432 9.77098 17.0697 9.6289C17.0962 9.48682 17.0803 9.34008 17.0238 9.20703C16.9659 9.0712 16.8691 8.95548 16.7457 8.8744C16.6223 8.79331 16.4777 8.75046 16.33 8.75122H15.23L15.7121 5.00454C15.7331 4.8499 15.704 4.6926 15.629 4.55573C15.554 4.41887 15.4371 4.30966 15.2955 4.24414C15.1519 4.17433 14.99 4.15172 14.8328 4.17956C14.6756 4.2074 14.5313 4.28425 14.4205 4.39912L10.6246 8.32993C10.5239 8.43362 10.4561 8.56471 10.4295 8.70679C10.403 8.84887 10.419 8.99562 10.4754 9.12866C10.5334 9.26448 10.6301 9.38018 10.7536 9.46126C10.877 9.54234 11.0216 9.5852 11.1692 9.58447ZM14.853 5.15195L14.343 9.11445C14.3355 9.17319 14.3405 9.23287 14.3578 9.28951C14.3751 9.34615 14.4043 9.39844 14.4434 9.44292C14.4825 9.48739 14.5307 9.52302 14.5846 9.54743C14.6386 9.57184 14.6971 9.58447 14.7563 9.58447H16.1247L12.648 13.1836L13.158 9.22114C13.1656 9.16226 13.1606 9.10242 13.1432 9.04566C13.1258 8.98889 13.0964 8.93649 13.0571 8.89199C13.0178 8.84748 12.9695 8.81189 12.9153 8.78761C12.8611 8.76332 12.8023 8.7509 12.743 8.75117H11.3747L14.853 5.15195ZM17.4997 15.8345H9.99966C9.88916 15.8345 9.78318 15.8784 9.70504 15.9565C9.6269 16.0346 9.58301 16.1406 9.58301 16.2511C9.58301 16.3616 9.6269 16.4676 9.70504 16.5457C9.78318 16.6239 9.88916 16.6678 9.99966 16.6678H17.4997C17.7298 16.6678 17.9163 16.4813 17.9163 16.2511C17.9163 16.021 17.7298 15.8345 17.4997 15.8345ZM17.4997 17.5011H9.99966C9.88916 17.5011 9.78318 17.545 9.70504 17.6232C9.6269 17.7013 9.58301 17.8073 9.58301 17.9178C9.58301 18.0283 9.6269 18.1343 9.70504 18.2124C9.78318 18.2905 9.88916 18.3344 9.99966 18.3344H17.4997C17.7298 18.3344 17.9163 18.1479 17.9163 17.9178C17.9163 17.6876 17.7298 17.5011 17.4997 17.5011ZM17.4997 19.1678H9.99966C9.88916 19.1678 9.78318 19.2117 9.70504 19.2898C9.6269 19.3679 9.58301 19.4739 9.58301 19.5844C9.58301 19.6949 9.6269 19.8009 9.70504 19.879C9.78318 19.9572 9.88916 20.0011 9.99966 20.0011H17.4997C17.6102 20.0011 17.7161 19.9572 17.7943 19.879C17.8724 19.8009 17.9163 19.6949 17.9163 19.5844C17.9163 19.4739 17.8724 19.3679 17.7943 19.2898C17.7161 19.2117 17.6102 19.1678 17.4997 19.1678ZM18.1247 11.6678C17.3192 11.6678 16.6663 12.3207 16.6663 13.1261C16.6663 13.9315 17.3192 14.5845 18.1247 14.5845C18.9301 14.5845 19.583 13.9315 19.583 13.1261C19.583 12.3207 18.9301 11.6678 18.1247 11.6678ZM18.1247 13.7511C17.7795 13.7511 17.4997 13.4713 17.4997 13.1261C17.4997 12.781 17.7795 12.5011 18.1247 12.5011C18.4698 12.5011 18.7497 12.781 18.7497 13.1261C18.7497 13.4713 18.4699 13.7511 18.1247 13.7511Z" fill="#0C71C3"/>
</svg>
