<svg width="25" height="25" viewBox="0 0 25 25" fill="none" xmlns="http://www.w3.org/2000/svg">
<path d="M19.0918 24.2188C19.0918 23.0052 18.1081 22.0215 16.8945 22.0215H8.10547C6.89194 22.0215 5.9082 23.0052 5.9082 24.2188V25H19.0918V24.2188ZM23.5352 5.9082V4.44336H14.5624C14.4531 4.13697 14.2771 3.8587 14.0471 3.62869C13.8171 3.39867 13.5388 3.22268 13.2324 3.11343V0H11.7676V3.11343C11.4612 3.22268 11.1829 3.39867 10.9529 3.62869C10.7229 3.8587 10.5469 4.13697 10.4376 4.44336H1.46484V5.9082H3.29609L0 13.9648C0 15.984 1.64292 17.627 3.66211 17.627H5.12695C7.14614 17.627 8.78906 15.984 8.78906 13.9648L5.47808 5.9082H10.4377C10.5469 6.21459 10.7229 6.49287 10.953 6.72288C11.183 6.95289 11.4612 7.12889 11.7676 7.23813V17.7072C10.3362 18.0001 9.20391 19.1247 8.91206 20.5566H16.088C15.7962 19.1247 14.6639 18.0001 13.2325 17.7072V7.23813C13.5389 7.12889 13.8171 6.95289 14.0471 6.72288C14.2772 6.49287 14.4532 6.21459 14.5624 5.9082H19.5071L16.2109 13.9648C16.2109 15.984 17.8539 17.627 19.873 17.627H21.3379C23.3571 17.627 25 15.984 25 13.9648L21.689 5.9082H23.5352ZM6.95781 13.2324H1.83125L4.39453 7.07979L6.95781 13.2324ZM23.1688 13.2324H18.0422L20.6055 7.07979L23.1688 13.2324Z" fill="#0C71C3"/>
</svg>
