<svg width="26" height="26" viewBox="0 0 26 26" fill="none" xmlns="http://www.w3.org/2000/svg">
<path d="M14.7526 2.74615C15.8333 2.99354 16.8619 3.42323 17.8059 4.00917L18.6914 3.12375C19.082 2.73313 19.72 2.73313 20.1041 3.12375L21.8749 4.89458C22.2656 5.2852 22.2656 5.92322 21.8749 6.30734L20.983 7.19926C21.569 8.13676 21.9986 9.17191 22.246 10.2526H23.5025C24.0559 10.2526 24.5051 10.7019 24.5051 11.2552V13.7552C24.5051 14.3086 24.0559 14.7578 23.5025 14.7578H22.246C21.9986 15.8386 21.569 16.8672 20.983 17.8112L21.8749 18.7031C22.2656 19.0938 22.2656 19.7318 21.8749 20.1159L20.1106 21.8737C19.72 22.2643 19.082 22.2643 18.6979 21.8737L17.8059 20.9818C16.8684 21.5677 15.8333 21.9974 14.7526 22.2448V23.5013C14.7526 24.0547 14.3034 24.5039 13.75 24.5039H11.25C10.6966 24.5039 10.2474 24.0547 10.2474 23.5013V22.2448C9.16665 21.9974 8.138 21.5677 7.19399 20.9818L6.30858 21.8737C5.91796 22.2643 5.27994 22.2643 4.89582 21.8737L3.12499 20.1029C2.73437 19.7123 2.73437 19.0742 3.12499 18.6901L4.01692 17.7982C3.43749 16.8737 3.0013 15.8451 2.7539 14.7448H1.49088C0.937499 14.7448 0.488281 14.2956 0.488281 13.7422V11.2422C0.488281 10.6888 0.937499 10.2396 1.49088 10.2396H2.74739C2.99479 9.15889 3.42447 8.13025 4.01041 7.18624L3.11848 6.29432C2.72786 5.90369 2.72786 5.26567 3.11848 4.88156L4.88931 3.11073C5.27994 2.7201 5.91796 2.7201 6.30207 3.11073L7.19399 4.00265C8.11847 3.42323 9.14711 2.98703 10.2474 2.73964V1.48313C10.2474 0.929745 10.6966 0.480527 11.25 0.480527H13.75C14.3034 0.480527 14.7526 0.929745 14.7526 1.48313V2.74615Z" stroke="#0C71C3" stroke-width="1.30208" stroke-miterlimit="22.926" stroke-linecap="round" stroke-linejoin="round"/>
<path d="M15.9114 18.9844C14.8958 19.5182 13.7304 19.8242 12.5 19.8242C8.45702 19.8242 5.17578 16.543 5.17578 12.5C5.17578 11.2696 5.48177 10.1107 6.01562 9.08857M9.08853 6.01566C10.1042 5.48181 11.2695 5.17582 12.5 5.17582C16.5429 5.17582 19.8242 8.45706 19.8242 12.5C19.8242 13.7305 19.5182 14.8893 18.9843 15.9115" stroke="#0C71C3" stroke-width="1.30208" stroke-miterlimit="22.926" stroke-linecap="round" stroke-linejoin="round"/>
<path d="M8.69141 13.0645C8.23568 12.6087 8.23568 11.8731 8.69141 11.4238C9.14713 10.9681 9.88281 10.9681 10.332 11.4238L11.6732 12.765L14.668 9.7702C15.1237 9.31447 15.8594 9.31447 16.3086 9.7702C16.7643 10.2259 16.7643 10.9616 16.3086 11.4108L12.487 15.2324C12.0312 15.6882 11.2956 15.6882 10.8463 15.2324L8.69141 13.0645Z" stroke="#0C71C3" stroke-width="1.30208" stroke-miterlimit="22.926" stroke-linecap="round" stroke-linejoin="round"/>
</svg>
