<svg width="20" height="25" viewBox="0 0 20 25" fill="none" xmlns="http://www.w3.org/2000/svg">
<g clip-path="url(#clip0_1596_17648)">
<path d="M10.6081 19.2422L11.2383 18.5521C11.3919 18.3802 11.3867 18.1042 11.2279 17.9375C11.0742 17.776 10.8294 17.776 10.6758 17.9375L10.1628 18.5V16.487C11.5247 16.4141 12.8424 15.9375 13.9727 15.1068L15.0742 16.7135L14.3529 16.6016C14.1341 16.5677 13.9336 16.7344 13.9049 16.9714C13.8763 17.2083 14.0247 17.4245 14.2409 17.4609L15.9128 17.7214C15.931 17.724 15.9518 17.7266 15.9701 17.7266C16.168 17.7266 16.3346 17.5677 16.3633 17.3542L16.6029 15.5313C16.6341 15.2943 16.4831 15.0729 16.2643 15.0391C16.0456 15.0052 15.8451 15.1693 15.8138 15.4063L15.7122 16.1927L14.6081 14.5859C16.3294 13.0208 17.3242 10.7031 17.3216 8.25782C17.3268 3.70313 13.9466 0.00521384 9.77213 5.50663e-06C5.59766 -0.00520283 2.20964 3.6849 2.20703 8.24219C2.20703 10.6927 3.19922 13.0156 4.92057 14.5833L3.81641 16.1901L3.71484 15.4037C3.68359 15.1667 3.48307 15 3.26432 15.0365C3.04557 15.0703 2.89453 15.2917 2.92578 15.5287L3.16536 17.3516C3.19401 17.5651 3.36068 17.724 3.55859 17.724C3.57682 17.724 3.59766 17.724 3.61589 17.7188L5.28776 17.4583C5.50651 17.4245 5.65755 17.2057 5.6263 16.9688C5.59505 16.7318 5.39453 16.5651 5.17839 16.599C5.17839 16.599 5.17839 16.599 5.17578 16.599L4.45443 16.7109L5.55599 15.1042C6.6888 15.9323 8.00391 16.4115 9.36589 16.4844V18.4974L8.85286 17.9349C8.69401 17.7682 8.44401 17.7734 8.29036 17.9453C8.14193 18.1146 8.14193 18.3802 8.29036 18.5495L8.92057 19.2396M3.0013 8.25782C3.0013 4.17969 6.02995 0.875005 9.76432 0.875005C13.4987 0.875005 16.5273 4.17969 16.5273 8.25782C16.5273 12.3359 13.4987 15.6406 9.76432 15.6406C6.03255 15.6354 3.00651 12.3333 3.0013 8.25782Z" fill="#0C71C3"/>
<path d="M9.76302 21.5153C10.4792 21.5153 11.0573 20.9398 11.0573 20.2288C11.0573 19.5179 10.4766 18.9424 9.76302 18.9424C9.04948 18.9424 8.46615 19.5179 8.46615 20.2288C8.46615 20.9398 9.04688 21.5153 9.76302 21.5153ZM10.3125 21.6038H9.21354C8.29948 21.6038 7.55469 22.3434 7.55469 23.2523V24.609L7.65104 24.6377C8.52344 24.9085 9.28125 24.9997 9.90625 24.9997C11.125 24.9997 11.8307 24.6533 11.875 24.6325L11.9609 24.5882H11.9714V23.2523C11.9714 22.3434 11.2266 21.6038 10.3125 21.6038Z" fill="#0C71C3"/>
<path d="M17.3216 20.1637C18.0378 20.1637 18.6159 19.5882 18.6159 18.8773C18.6159 18.1663 18.0352 17.5908 17.3216 17.5908C16.6081 17.5908 16.0247 18.1663 16.0247 18.8773C16.0247 19.5882 16.6055 20.1637 17.3216 20.1637ZM17.8711 20.2523H16.7721C15.8581 20.2523 15.1133 20.9919 15.1133 21.9007V23.2575L15.2096 23.2861C16.082 23.557 16.8398 23.6481 17.4648 23.6481C18.6836 23.6481 19.3893 23.3018 19.4336 23.2809L19.5195 23.2367H19.5299V21.9007C19.5299 20.9919 18.7852 20.2523 17.8711 20.2523Z" fill="#0C71C3"/>
<path d="M2.20833 20.445C2.92448 20.445 3.5026 19.8695 3.5026 19.1585C3.5026 18.4476 2.92187 17.8721 2.20833 17.8721C1.49479 17.8721 0.911458 18.4476 0.911458 19.1585C0.911458 19.8695 1.49219 20.445 2.20833 20.445ZM2.75781 20.5335H1.65885C0.744792 20.5335 0 21.2731 0 22.182V23.5387L0.0963542 23.5674C0.96875 23.8382 1.72656 23.9294 2.35156 23.9294C3.57031 23.9294 4.27604 23.583 4.32031 23.5622L4.40625 23.5179H4.41667V22.182C4.41667 21.2731 3.67188 20.5335 2.75781 20.5335Z" fill="#0C71C3"/>
<path d="M10.3411 13.1481H10.3307C8.67969 13.1091 7.11719 11.5934 7.11719 10.0283V8.48405C7.11719 8.25488 7.30469 8.06738 7.53385 8.06738C7.76302 8.06738 7.95052 8.25228 7.95052 8.48405V10.0283C7.95052 11.1299 9.15365 12.2809 10.3411 12.3148C11.526 12.2809 12.7292 11.1299 12.7292 10.0283V8.56738C12.7292 8.33822 12.9167 8.15072 13.1458 8.15072C13.375 8.15072 13.5625 8.33822 13.5625 8.56738V10.0283C13.5625 11.5934 12 13.1091 10.349 13.1481H10.3385H10.3411Z" fill="#0C71C3"/>
<path d="M13.7625 9.80991C13.6818 9.80991 13.5958 9.78908 13.5203 9.74481C13.4188 9.68752 13.3432 9.59637 13.3042 9.49481C11.9604 8.46095 9.24688 8.21096 9.21824 8.21096C9.03334 8.19533 8.87449 8.07554 8.80417 7.90366C8.52553 7.21616 8.60105 5.84377 8.60886 5.68752C8.60886 5.65627 8.61407 5.62762 8.62449 5.59637C8.87449 4.59116 10.0281 4.41929 10.6714 4.47658L10.7052 4.48179C12.5646 4.77346 13.6896 6.18231 14.0854 6.77346C14.5021 7.39064 14.6427 8.64585 14.2365 9.46877C14.2339 9.47658 14.2287 9.48439 14.226 9.49221C14.2156 9.51564 14.2026 9.53648 14.1896 9.55731C14.0984 9.71877 13.9318 9.80731 13.7599 9.80731L13.7625 9.80991Z" fill="#0C71C3"/>
<path d="M6.99704 9.72656C6.60381 9.72656 6.23662 9.51302 5.87464 9.30208C5.33298 8.98438 5.00485 8.79427 5.04652 8.39323C5.08558 8.03646 5.40589 7.92969 5.55954 7.88021C5.64808 7.85156 5.74704 7.82031 5.82516 7.76563C6.16631 7.52865 6.39548 7.0625 6.63506 6.57031C6.99444 5.83854 7.45537 4.89583 8.50746 4.76562C8.34079 4.96354 8.21839 5.20052 8.14808 5.47917C8.11944 5.59635 8.12985 5.53646 8.12204 5.65625C8.07777 6.35156 8.09079 7.4401 8.35121 8.08594C8.42933 8.28125 8.56996 8.44271 8.74444 8.54948C8.52048 8.71875 8.24704 8.95573 7.93454 9.27083C7.60381 9.60156 7.29391 9.72136 6.99964 9.72136L6.99704 9.72656Z" fill="#0C71C3"/>
</g>
<defs>
<clipPath id="clip0_1596_17648">
<rect width="19.5312" height="25" fill="white"/>
</clipPath>
</defs>
</svg>
