<svg width="100" height="100" viewBox="0 0 100 100" fill="none" xmlns="http://www.w3.org/2000/svg">
<path d="M81.92 50.87L64.49 34.89C62.59 33.15 60.35 31.92 57.95 31.14C61.93 28.26 64.55 23.61 64.55 18.33C64.55 9.6 57.45 2.5 48.72 2.5C39.99 2.5 32.89 9.6 32.89 18.33C32.89 23.61 35.51 28.26 39.49 31.14C37.09 31.92 34.85 33.15 32.95 34.89L15.52 50.87C13.98 52.29 13.1 54.29 13.1 56.38C13.1 60.5 16.46 63.86 20.72 63.86C22.69 63.86 24.61 63.06 26.01 61.67L33.11 54.57C33.33 56.99 33.74 59.33 34.32 61.57L27.19 71.47C24.42 75.16 24.28 80.22 26.84 84.06L33.68 94.33C35 96.32 37.22 97.51 39.63 97.51C43.56 97.51 46.75 94.31 46.75 90.39V89.42C46.75 87.81 46.2 86.23 45.19 84.97L39.67 78.08L42.78 75.75C46.55 78.37 50.9 78.37 54.67 75.75L57.78 78.08L52.27 84.97C51.26 86.23 50.71 87.8 50.71 89.42V90.39C50.71 94.32 53.91 97.51 57.85 97.51C60.23 97.51 62.46 96.32 63.78 94.34L70.7 83.96C73.21 80.19 73.08 75.23 70.38 71.63L63.14 61.59C63.72 59.34 64.12 57 64.35 54.59L71.45 61.69C72.84 63.08 74.77 63.88 76.88 63.88C81 63.88 84.36 60.52 84.36 56.4C84.36 54.31 83.48 52.31 81.94 50.89L81.92 50.87ZM48.72 73.75C44.59 73.75 40.63 69.07 38.49 61.87H58.95C56.81 69.07 52.85 73.75 48.72 73.75Z" fill="#9F2B68"/>
</svg>
