<svg width="19" height="25" viewBox="0 0 19 25" fill="none" xmlns="http://www.w3.org/2000/svg">
<path d="M18.1127 12.7279L18.1122 12.7274L13.5259 8.52358C13.0263 8.06563 12.4357 7.74248 11.8043 7.53716C12.852 6.77964 13.5417 5.55547 13.5417 4.1667C13.5416 1.86919 11.6725 0 9.375 0C7.07754 0 5.20835 1.86919 5.20835 4.16665C5.20835 5.55547 5.89805 6.77959 6.94575 7.53711C6.31435 7.74238 5.72373 8.06558 5.22412 8.52353L0.637305 12.7278C0.436692 12.9124 0.276493 13.1366 0.166807 13.3862C0.0571212 13.6358 0.000325642 13.9054 0 14.178C0 15.2629 0.882959 16.1458 2.00503 16.1458C2.5228 16.1458 3.02993 15.9358 3.39614 15.5696L5.26333 13.7024C5.32231 14.3382 5.42861 14.9541 5.5812 15.5457L3.70537 18.1498C2.97651 19.1213 2.93989 20.4523 3.61333 21.463L5.41436 24.1643C5.76274 24.6877 6.34614 25 6.97939 25C8.01294 25 8.8542 24.1587 8.8542 23.1252V22.8709C8.8542 22.4472 8.7082 22.0312 8.44375 21.6995L6.99214 19.8857L7.81103 19.2718C8.80186 19.9625 9.94829 19.9625 10.9391 19.2718L11.7575 19.8857L10.3063 21.7C10.0412 22.0327 9.89656 22.4454 9.8959 22.8708V23.1251C9.8959 24.1587 10.7372 25 11.7753 25C12.0841 25.0004 12.3881 24.9243 12.6603 24.7786C12.9325 24.6328 13.1644 24.422 13.3353 24.1648L15.1572 21.4319C15.8184 20.4406 15.7823 19.1334 15.0732 18.1874L13.1689 15.5451C13.3215 14.9541 13.4278 14.3381 13.4868 13.7023L15.354 15.5695C15.7202 15.9357 16.2273 16.1458 16.7822 16.1458C17.8671 16.1458 18.7501 15.2628 18.7501 14.1779C18.7497 13.9053 18.6929 13.6357 18.5832 13.3862C18.4735 13.1366 18.3133 12.9125 18.1127 12.7279ZM9.375 18.75C8.28857 18.75 7.24692 17.5186 6.68286 15.625H12.0672C11.5031 17.5186 10.4614 18.75 9.375 18.75Z" fill="#0C71C3"/>
</svg>
