<svg width="25" height="25" viewBox="0 0 25 25" fill="none" xmlns="http://www.w3.org/2000/svg">
<path d="M24.5829 13.1568C23.2401 8.83649 18.9782 5.88815 13.8696 5.80057V0.750434C13.8696 0.516902 13.6653 0.312561 13.4318 0.312561C13.3442 0.312561 13.2566 0.341753 13.169 0.400136L0.178798 9.79982C-0.0255426 9.94577 -0.0547342 10.2085 0.0912236 10.4128C0.120415 10.442 0.149607 10.4712 0.178798 10.5004L13.169 19.8417C13.3734 19.9877 13.6361 19.9293 13.7821 19.7541C13.8404 19.6666 13.8696 19.579 13.8696 19.4914V14.4705C17.0223 14.4705 19.6788 15.9592 20.6129 18.207C21.4011 20.1336 20.7588 22.2062 18.8906 23.9285C18.7154 24.1037 18.6862 24.3664 18.8614 24.5415C18.949 24.6291 19.0657 24.6875 19.1825 24.6875H19.5328C19.6204 24.6875 19.7079 24.6583 19.7663 24.5999C24.0575 21.7684 25.8966 17.3604 24.5829 13.1568Z" fill="#0C71C3"/>
</svg>
