<svg width="25" height="25" viewBox="0 0 25 25" fill="none" xmlns="http://www.w3.org/2000/svg">
<g clip-path="url(#clip0_1207_7002)">
<path d="M19.9408 23.5348H19.0324C18.8735 22.9285 14.9457 7.93312 14.906 7.78185C16.3899 5.85983 15.0044 3.06915 12.5724 3.06915C10.1357 3.06915 8.75865 5.86437 10.2387 7.78185C10.1987 7.93483 6.27144 22.9287 6.11255 23.5348H5.20411C4.79976 23.5348 4.47188 23.8627 4.47188 24.2673C4.47188 24.6718 4.79952 24.9997 5.20411 24.9997H19.9409C20.3452 24.9997 20.6731 24.6718 20.6731 24.2673C20.6731 23.8627 20.3452 23.5348 19.9408 23.5348ZM16.0317 17.8591L16.7518 20.6082L14.0268 19.0251L16.0317 17.8591ZM15.1824 14.6166L13.6813 13.2937L14.6191 12.4661L15.1824 14.6166ZM12.5723 4.534C13.3876 4.534 14.0507 5.19147 14.0507 5.99962C14.0507 6.80773 13.3876 7.46525 12.5723 7.46525C11.7573 7.46525 11.0941 6.80778 11.0941 5.99962C11.0941 5.19152 11.7573 4.534 12.5723 4.534ZM11.5046 8.72941C12.1913 8.99692 12.9535 8.99692 13.6402 8.72941L14.2035 10.8796L12.5736 12.3177L10.9416 10.8794L11.5046 8.72941ZM10.5259 12.4655L11.4667 13.2944L9.9608 14.6231L10.5259 12.4655ZM12.5743 14.2705L15.2436 16.623L12.5689 18.1784L9.90128 16.6289L12.5743 14.2705ZM9.11187 17.8641L11.1119 19.0258L8.39332 20.6069L9.11187 17.8641ZM7.62657 23.5348L7.86998 22.6058L12.5695 19.8727L17.2751 22.6061L17.5183 23.5348H7.62657ZM5.20523 9.37409C4.21436 7.24113 4.21324 4.7608 5.20523 2.62516C5.37579 2.25836 5.21671 1.82291 4.84991 1.65241C4.48311 1.48185 4.04766 1.64118 3.87735 2.00787C2.7045 4.53209 2.70279 7.46349 3.87735 9.99127C4.00137 10.2584 4.26568 10.4153 4.54171 10.4153C5.07364 10.4153 5.4314 9.86066 5.20523 9.37409Z" fill="#0C71C3"/>
<path d="M2.36852 0.0791647C2.00778 -0.103501 1.56725 0.0406393 1.38434 0.401528C-0.395782 3.91447 -0.396905 8.08297 1.38434 11.5986C1.56725 11.9594 2.00803 12.1035 2.36852 11.9208C2.72936 11.7379 2.8736 11.2972 2.69064 10.9364C1.1217 7.8402 1.12053 4.16222 2.69064 1.06373C2.8736 0.702895 2.72936 0.262075 2.36852 0.0791647ZM7.32497 8.7715C7.70261 8.62658 7.89123 8.20294 7.74645 7.82531C7.31086 6.68966 7.28469 5.37873 7.74645 4.17462C7.89123 3.79699 7.70261 3.37335 7.32497 3.22838C6.94709 3.08361 6.52385 3.27228 6.37912 3.64992C5.80134 5.15636 5.80002 6.83996 6.37912 8.34982C6.52385 8.72785 6.94767 8.91627 7.32492 8.77155L7.32497 8.7715ZM20.2951 1.65275C19.9283 1.82326 19.7693 2.25871 19.9396 2.62565C20.9306 4.75846 20.9318 7.23893 19.9396 9.37423C19.7693 9.74123 19.9283 10.1767 20.2951 10.3472C20.6619 10.5179 21.0974 10.3583 21.2676 9.99166C22.4405 7.46769 22.4422 4.5359 21.2676 2.00827C21.0971 1.64147 20.6619 1.48219 20.2951 1.65275Z" fill="#0C71C3"/>
<path d="M23.712 0.401549C23.5293 0.0406608 23.0884 -0.103529 22.7278 0.0791861C22.3671 0.262096 22.2229 0.702917 22.4056 1.06376C24.0494 4.3076 23.8857 8.112 22.4546 10.9362C22.2717 11.2971 22.4159 11.7379 22.7768 11.9208C23.1373 12.1035 23.5781 11.9595 23.761 11.5984C25.3832 8.39676 25.5877 4.10292 23.712 0.401549ZM17.8204 8.77152C18.1982 8.9163 18.6214 8.72748 18.7662 8.34984C19.3275 6.88612 19.3615 5.20214 18.7662 3.64994C18.6214 3.2723 18.1979 3.08363 17.8204 3.2284C17.4427 3.37338 17.2541 3.79701 17.3988 4.17469C17.8473 5.34383 17.8482 6.65365 17.3988 7.82533C17.2541 8.20296 17.4427 8.6266 17.8204 8.77157V8.77152Z" fill="#0C71C3"/>
</g>
<defs>
<clipPath id="clip0_1207_7002">
<rect width="25" height="25" fill="white"/>
</clipPath>
</defs>
</svg>
