<svg width="25" height="25" viewBox="0 0 25 25" fill="none" xmlns="http://www.w3.org/2000/svg">
<g clip-path="url(#clip0_7959_104)">
<path d="M3.805 24.5H21.195C23.02 24.5 24.5 23.075 24.5 21.3175V5.46C24.5 3.7025 23.02 2.2775 21.195 2.2775H19.885V1.3925C19.885 0.905002 19.4725 0.502502 18.96 0.502502C18.4475 0.502502 18.035 0.900002 18.035 1.3925V2.2825H6.9575V1.3925C6.9575 0.905002 6.545 0.502502 6.0325 0.502502C5.52 0.502502 5.1075 0.900002 5.1075 1.3925V2.2825H3.8025C1.9775 2.2825 0.497498 3.7075 0.497498 5.465V21.3225C0.497498 23.075 1.9775 24.5 3.8025 24.5H3.805ZM2.345 5.46C2.345 4.6875 3.0025 4.055 3.805 4.055H5.115V4.945C5.115 5.4325 5.5275 5.835 6.04 5.835C6.5525 5.835 6.965 5.4375 6.965 4.945V4.055H18.0425V4.945C18.0425 5.4325 18.455 5.835 18.9675 5.835C19.48 5.835 19.8925 5.4375 19.8925 4.945V4.055H21.2025C22.005 4.055 22.6625 4.6875 22.6625 5.46V8.0575H2.345V5.46ZM2.345 9.8325H22.65V21.3175C22.65 22.09 21.9925 22.7225 21.19 22.7225H3.805C3.0025 22.7225 2.345 22.09 2.345 21.3175V9.8325Z" fill="white"/>
<path d="M8.065 11.325H5.315C5.03886 11.325 4.815 11.5489 4.815 11.825V14.575C4.815 14.8512 5.03886 15.075 5.315 15.075H8.065C8.34114 15.075 8.565 14.8512 8.565 14.575V11.825C8.565 11.5489 8.34114 11.325 8.065 11.325Z" fill="white"/>
<path d="M14.0925 11.2625H11.3425C11.0664 11.2625 10.8425 11.4864 10.8425 11.7625V14.5125C10.8425 14.7887 11.0664 15.0125 11.3425 15.0125H14.0925C14.3686 15.0125 14.5925 14.7887 14.5925 14.5125V11.7625C14.5925 11.4864 14.3686 11.2625 14.0925 11.2625Z" fill="white"/>
<path d="M20.3 11.325H17.55C17.2739 11.325 17.05 11.5489 17.05 11.825V14.575C17.05 14.8512 17.2739 15.075 17.55 15.075H20.3C20.5761 15.075 20.8 14.8512 20.8 14.575V11.825C20.8 11.5489 20.5761 11.325 20.3 11.325Z" fill="white"/>
<path d="M7.975 16.2925H5.225C4.94886 16.2925 4.725 16.5164 4.725 16.7925V19.5425C4.725 19.8187 4.94886 20.0425 5.225 20.0425H7.975C8.25114 20.0425 8.475 19.8187 8.475 19.5425V16.7925C8.475 16.5164 8.25114 16.2925 7.975 16.2925Z" fill="white"/>
<path d="M14.005 16.23H11.255C10.9789 16.23 10.755 16.4539 10.755 16.73V19.48C10.755 19.7562 10.9789 19.98 11.255 19.98H14.005C14.2811 19.98 14.505 19.7562 14.505 19.48V16.73C14.505 16.4539 14.2811 16.23 14.005 16.23Z" fill="white"/>
<path d="M20.21 16.2925H17.46C17.1839 16.2925 16.96 16.5164 16.96 16.7925V19.5425C16.96 19.8187 17.1839 20.0425 17.46 20.0425H20.21C20.4861 20.0425 20.71 19.8187 20.71 19.5425V16.7925C20.71 16.5164 20.4861 16.2925 20.21 16.2925Z" fill="white"/>
</g>
<defs>
<clipPath id="clip0_7959_104">
<rect width="25" height="25" fill="white"/>
</clipPath>
</defs>
</svg>
