<svg width="25" height="25" viewBox="0 0 25 25" fill="none" xmlns="http://www.w3.org/2000/svg">
<path d="M8.85484 19.79H2.60484C1.16935 19.79 0 18.6206 0 17.1852V4.68785C0 3.25236 1.16667 2.08301 2.60484 2.08301H18.2285C19.664 2.08301 20.8333 3.25236 20.8333 4.68785V8.85451C20.8333 9.14215 20.5995 9.37602 20.3118 9.37602C20.0242 9.37602 19.7903 9.14484 19.7903 8.85451V4.68785C19.7903 3.82763 19.0887 3.12602 18.2285 3.12602H2.60484C1.74462 3.12602 1.04301 3.82763 1.04301 4.68785V17.1878C1.04301 18.0481 1.74462 18.7497 2.60484 18.7497H8.85484C9.14247 18.7497 9.37634 18.9835 9.37634 19.2712C9.37634 19.5588 9.14247 19.7927 8.85484 19.7927V19.79Z" fill="#0C71C3"/>
<path d="M20.3118 7.29008H0.521505C0.233871 7.29008 0 7.05621 0 6.76858C0 6.48094 0.233871 6.24707 0.521505 6.24707H20.3145C20.6021 6.24707 20.836 6.48094 20.836 6.76858C20.836 7.05621 20.6021 7.29008 20.3145 7.29008H20.3118Z" fill="#0C71C3"/>
<path d="M4.68947 5.20968C4.40184 5.20968 4.16797 4.97581 4.16797 4.68817V0.521505C4.16797 0.233871 4.40184 0 4.68947 0C4.97711 0 5.21098 0.233871 5.21098 0.521505V4.68817C5.21098 4.97581 4.97711 5.20968 4.68947 5.20968Z" fill="#0C71C3"/>
<path d="M16.1465 5.20968C15.8589 5.20968 15.625 4.97581 15.625 4.68817V0.521505C15.625 0.233871 15.8589 0 16.1465 0C16.4341 0 16.668 0.233871 16.668 0.521505V4.68817C16.668 4.97581 16.4341 5.20968 16.1465 5.20968Z" fill="#0C71C3"/>
<path d="M18.2285 25C14.4947 25 11.457 21.9624 11.457 18.2285C11.457 14.4947 14.4947 11.457 18.2285 11.457C21.9624 11.457 25 14.4947 25 18.2285C25 21.9624 21.9624 25 18.2285 25ZM18.2285 12.5C15.0699 12.5 12.5 15.0699 12.5 18.2285C12.5 21.3871 15.0699 23.957 18.2285 23.957C21.3871 23.957 23.957 21.3871 23.957 18.2285C23.957 15.0699 21.3871 12.5 18.2285 12.5Z" fill="#0C71C3"/>
<path d="M19.3057 18.2287L21.3272 16.2072C21.5503 15.9841 21.5503 15.6212 21.3272 15.3981L21.0584 15.1293C20.8353 14.9061 20.4724 14.9061 20.2492 15.1293L18.2277 17.1508L16.2062 15.1293C15.9831 14.9061 15.6202 14.9061 15.3971 15.1293L15.1283 15.3981C14.9052 15.6212 14.9052 15.9841 15.1283 16.2072L17.1498 18.2287L15.1283 20.2502C14.9052 20.4733 14.9052 20.8362 15.1283 21.0594L15.3971 21.3282C15.6202 21.5513 15.9831 21.5513 16.2062 21.3282L18.2277 19.3067L20.2492 21.3282C20.4724 21.5513 20.8353 21.5513 21.0584 21.3282L21.3272 21.0594C21.5503 20.8362 21.5503 20.4733 21.3272 20.2502L19.3057 18.2287Z" fill="#0C71C3"/>
</svg>
