<svg width="25" height="25" viewBox="0 0 25 25" fill="none" xmlns="http://www.w3.org/2000/svg">
<path d="M3.77588 23.957H13.9321C14.657 23.9559 15.3519 23.6675 15.8644 23.1549C16.377 22.6424 16.6654 21.9475 16.6665 21.2227V7.94141C16.6654 7.21654 16.377 6.52168 15.8644 6.00913C15.3519 5.49657 14.657 5.20813 13.9321 5.20703H3.77588C3.05102 5.20813 2.35616 5.49657 1.8436 6.00913C1.33104 6.52168 1.04261 7.21654 1.0415 7.94141V21.2227C1.04261 21.9475 1.33104 22.6424 1.8436 23.1549C2.35616 23.6675 3.05102 23.9559 3.77588 23.957ZM3.12484 7.94141C3.12484 7.76874 3.19343 7.60314 3.31552 7.48105C3.43762 7.35896 3.60321 7.29036 3.77588 7.29036H13.9321C14.1048 7.29036 14.2704 7.35896 14.3925 7.48105C14.5146 7.60314 14.5832 7.76874 14.5832 7.94141V21.2227C14.5832 21.3953 14.5146 21.5609 14.3925 21.683C14.2704 21.8051 14.1048 21.8737 13.9321 21.8737H3.77588C3.60321 21.8737 3.43762 21.8051 3.31552 21.683C3.19343 21.5609 3.12484 21.3953 3.12484 21.2227V7.94141Z" fill="#0C71C3"/>
<path d="M21.2184 1.04102H11.0726C10.5339 1.04152 10.0073 1.20091 9.55873 1.49921C9.11016 1.79752 8.75953 2.2215 8.55073 2.7181C8.44299 2.97254 8.44073 3.25936 8.54446 3.51547C8.64819 3.77157 8.84941 3.97598 9.10386 4.08372C9.3583 4.19147 9.64512 4.19372 9.90123 4.08999C10.1573 3.98626 10.3617 3.78504 10.4695 3.5306C10.5188 3.41097 10.6023 3.30858 10.7096 3.2363C10.8169 3.16402 10.9432 3.12507 11.0726 3.12435H21.2184C21.3924 3.12462 21.5592 3.19385 21.6822 3.31686C21.8052 3.43988 21.8744 3.60664 21.8747 3.7806V17.0514C21.8744 17.2254 21.8052 17.3922 21.6822 17.5152C21.5592 17.6382 21.3924 17.7074 21.2184 17.7077H18.7497C18.4734 17.7077 18.2085 17.8174 18.0131 18.0128C17.8178 18.2081 17.708 18.4731 17.708 18.7493C17.708 19.0256 17.8178 19.2906 18.0131 19.4859C18.2085 19.6813 18.4734 19.791 18.7497 19.791H21.2184C21.9448 19.7902 22.6411 19.5013 23.1547 18.9877C23.6683 18.4741 23.9572 17.7778 23.958 17.0514V3.7806C23.9572 3.05427 23.6683 2.35793 23.1547 1.84433C22.6411 1.33074 21.9448 1.04184 21.2184 1.04102Z" fill="#0C71C3"/>
</svg>
