<svg width="19" height="19" viewBox="0 0 19 19" fill="none" xmlns="http://www.w3.org/2000/svg">
<path d="M12.635 9.50061L18.5129 3.6227C19.1624 2.97325 19.1624 1.92034 18.5129 1.2719L17.7293 0.488304C17.0797 -0.161347 16.0267 -0.161347 15.3783 0.488304L9.50061 6.36601L3.6227 0.487086C2.97325 -0.162362 1.92034 -0.162362 1.2719 0.487086L0.487086 1.27069C-0.162362 1.92034 -0.162362 2.97325 0.487086 3.62169L6.36601 9.50061L0.488304 15.3783C-0.161347 16.028 -0.161347 17.0809 0.488304 17.7293L1.2719 18.5129C1.92135 19.1624 2.97427 19.1624 3.6227 18.5129L9.50061 12.635L15.3783 18.5129C16.028 19.1624 17.0809 19.1624 17.7293 18.5129L18.5129 17.7293C19.1624 17.0797 19.1624 16.0267 18.5129 15.3783L12.635 9.50061Z" fill="#0C71C3"/>
</svg>
