<svg width="25" height="23" viewBox="0 0 25 23" fill="none" xmlns="http://www.w3.org/2000/svg">
<path d="M6.25 22.4375C6.04286 22.4373 5.84427 22.3549 5.6978 22.2084C5.55133 22.062 5.46896 21.8634 5.46875 21.6562V17.75H3.125C1.83281 17.75 0.78125 16.6984 0.78125 15.4062V2.90625C0.78125 1.61406 1.83281 0.5625 3.125 0.5625H21.875C23.1672 0.5625 24.2188 1.61406 24.2188 2.90625V15.4062C24.2188 16.6984 23.1672 17.75 21.875 17.75H12.3836L6.73828 22.2664C6.59974 22.3774 6.42749 22.4377 6.25 22.4375ZM3.125 2.125C2.69375 2.125 2.34375 2.47578 2.34375 2.90625V15.4062C2.34375 15.8367 2.69375 16.1875 3.125 16.1875H6.25C6.4572 16.1875 6.65591 16.2698 6.80243 16.4163C6.94894 16.5628 7.03125 16.7615 7.03125 16.9688V20.0312L11.6211 16.3586C11.7597 16.2478 11.9319 16.1874 12.1094 16.1875H21.875C22.3062 16.1875 22.6562 15.8367 22.6562 15.4062V2.90625C22.6562 2.47578 22.3062 2.125 21.875 2.125H3.125Z" fill="#0C71C3"/>
<path d="M18.75 8.375H6.25C6.0428 8.375 5.84409 8.29269 5.69757 8.14618C5.55106 7.99966 5.46875 7.80095 5.46875 7.59375C5.46875 7.38655 5.55106 7.18784 5.69757 7.04132C5.84409 6.89481 6.0428 6.8125 6.25 6.8125H18.75C18.9572 6.8125 19.1559 6.89481 19.3024 7.04132C19.4489 7.18784 19.5312 7.38655 19.5312 7.59375C19.5312 7.80095 19.4489 7.99966 19.3024 8.14618C19.1559 8.29269 18.9572 8.375 18.75 8.375ZM12.5 11.5H6.25C6.0428 11.5 5.84409 11.4177 5.69757 11.2712C5.55106 11.1247 5.46875 10.926 5.46875 10.7188C5.46875 10.5115 5.55106 10.3128 5.69757 10.1663C5.84409 10.0198 6.0428 9.9375 6.25 9.9375H12.5C12.7072 9.9375 12.9059 10.0198 13.0524 10.1663C13.1989 10.3128 13.2812 10.5115 13.2812 10.7188C13.2812 10.926 13.1989 11.1247 13.0524 11.2712C12.9059 11.4177 12.7072 11.5 12.5 11.5Z" fill="#0C71C3"/>
</svg>
