<svg width="25" height="25" viewBox="0 0 25 25" fill="none" xmlns="http://www.w3.org/2000/svg">
<path d="M22.125 5.45275H22.0848C21.9672 5.45275 21.8629 5.38589 21.8228 5.28961C21.78 5.19601 21.804 5.08636 21.8843 5.01415L21.911 4.99008C22.2587 4.67718 22.2587 4.16905 21.911 3.85347L21.451 3.43895C21.1034 3.12604 20.5364 3.12604 20.1887 3.43895L20.162 3.46301C20.047 3.56464 19.8624 3.55929 19.7501 3.45499C19.6993 3.40685 19.6699 3.34534 19.6699 3.27848V3.24372C19.6699 2.79977 19.2687 2.44141 18.7767 2.44141H18.1268C17.6347 2.44141 17.2335 2.80245 17.2335 3.24372V3.27848C17.2282 3.4229 17.0945 3.5379 16.934 3.53255C16.8618 3.53255 16.7923 3.5058 16.7415 3.46034L16.7147 3.43627C16.367 3.12337 15.8001 3.12337 15.4524 3.43627L14.9897 3.8508C14.6421 4.1637 14.6421 4.67183 14.9897 4.98741L15.0165 5.01147C15.0994 5.08636 15.1208 5.19868 15.0727 5.29496C15.0299 5.39123 14.9282 5.45275 14.8132 5.45275H14.7731C14.281 5.45275 13.8799 5.81378 13.8799 6.25506V6.84074C13.8799 7.28469 14.281 7.64305 14.7731 7.64305H14.8132C14.9309 7.64305 15.0352 7.70991 15.0753 7.80619C15.1181 7.89979 15.094 8.00944 15.0138 8.08165L14.9871 8.10572C14.6394 8.41862 14.6394 8.92675 14.9871 9.24233L15.4471 9.65685C15.7947 9.96975 16.3617 9.96975 16.7094 9.65685L16.7361 9.63278C16.819 9.56058 16.9447 9.53918 17.0517 9.58197C17.1587 9.61941 17.2282 9.71301 17.2282 9.81464V9.84941C17.2282 10.2934 17.6267 10.6544 18.1214 10.6544H18.774C19.2661 10.6544 19.6672 10.2934 19.6672 9.85208V9.81731C19.6726 9.6729 19.8063 9.5579 19.9667 9.56325C20.039 9.56325 20.1085 9.58999 20.1593 9.63546L20.186 9.65953C20.5337 9.97243 21.1007 9.97243 21.4483 9.65953L21.9083 9.245C22.256 8.9321 22.256 8.42397 21.9083 8.10839L21.8816 8.08432C21.7987 8.00944 21.7773 7.89712 21.8254 7.80084C21.8682 7.70456 21.9698 7.64305 22.0848 7.64305H22.125C22.617 7.64305 23.0182 7.28201 23.0182 6.84074V6.25506C23.0182 5.81111 22.617 5.45275 22.125 5.45275ZM22.4084 6.84074C22.4084 6.98248 22.2801 7.09481 22.125 7.09481H22.0848C21.5874 7.09748 21.1889 7.46387 21.1916 7.91049C21.1916 8.12177 21.2852 8.32234 21.451 8.47211L21.4778 8.49618C21.5874 8.59513 21.5874 8.75826 21.4778 8.85722L21.0178 9.27174C20.9081 9.37069 20.7263 9.37069 20.6166 9.27174L20.5899 9.24767C20.2342 8.93477 19.6645 8.94012 19.3169 9.25837C19.1537 9.40814 19.0601 9.60871 19.0601 9.81731V9.85208C19.0601 9.99382 18.9318 10.1061 18.7767 10.1061H18.1268C17.969 10.1061 17.8433 9.99115 17.8433 9.85208V9.81731C17.8433 9.37069 17.4368 9.00966 16.9394 9.01233C16.704 9.01233 16.4794 9.09791 16.3109 9.24767L16.2841 9.27174C16.1718 9.37069 15.9926 9.37069 15.883 9.27174L15.423 8.85722C15.3133 8.75826 15.3133 8.59513 15.423 8.49618L15.4497 8.47211C15.7974 8.15386 15.7947 7.64038 15.439 7.32748C15.2732 7.18039 15.0486 7.09748 14.8159 7.09481H14.7758C14.618 7.09481 14.4923 6.97981 14.4923 6.84074V6.25506C14.4923 6.11331 14.6207 6.00099 14.7758 6.00099H14.8159C15.3133 5.99832 15.7118 5.63193 15.7092 5.18531C15.7092 4.97403 15.6155 4.77346 15.4497 4.62369L15.423 4.59962C15.3133 4.50067 15.3133 4.33753 15.423 4.23858L15.883 3.82405C15.9926 3.7251 16.1745 3.7251 16.2841 3.82405L16.3109 3.84812C16.6666 4.16103 17.2362 4.15835 17.5839 3.83743C17.747 3.68766 17.8406 3.48708 17.8406 3.27848V3.24372C17.8406 3.10198 17.969 2.98965 18.1241 2.98965H18.774C18.9318 2.98965 19.0575 3.10465 19.0575 3.24372V3.27848C19.0628 3.7251 19.4693 4.08614 19.9667 4.08079C20.1994 4.08079 20.4241 3.99521 20.5899 3.84812L20.6166 3.82405C20.7263 3.7251 20.9081 3.7251 21.0178 3.82405L21.4778 4.23858C21.5874 4.33753 21.5874 4.50067 21.4778 4.59962L21.451 4.62369C21.1034 4.94194 21.1087 5.45542 21.4617 5.76832C21.6275 5.91541 21.8522 5.99832 22.0848 6.00099H22.125C22.2827 6.00099 22.4084 6.11599 22.4084 6.25506V6.84074Z" fill="#0C71C3"/>
<path d="M18.4508 4.62891C17.2741 4.62891 16.3193 5.48738 16.3193 6.54643C16.3193 7.60548 17.2741 8.46395 18.4508 8.46395C19.6275 8.46395 20.5823 7.60548 20.5823 6.54643C20.5823 5.48738 19.6275 4.62891 18.4508 4.62891ZM18.4508 7.91571C17.6111 7.91571 16.9291 7.30328 16.9291 6.54643C16.9291 5.78958 17.6111 5.17715 18.4508 5.17715C19.2906 5.17715 19.9725 5.78958 19.9725 6.54643C19.9725 7.30328 19.2906 7.91571 18.4508 7.91571Z" fill="#0C71C3"/>
<path d="M18.4477 13.1044C14.8346 13.1044 11.8955 10.1653 11.8955 6.5522C11.8955 2.93913 14.8346 0 18.4477 0C22.0608 0 24.9999 2.93913 24.9999 6.5522C24.9999 10.1653 22.0608 13.1044 18.4477 13.1044ZM18.4477 1.51102C15.669 1.51102 13.4065 3.77086 13.4065 6.5522C13.4065 9.33355 15.6664 11.5934 18.4477 11.5934C21.2291 11.5934 23.4889 9.33355 23.4889 6.5522C23.4889 3.77086 21.2291 1.51102 18.4477 1.51102Z" fill="#0C71C3"/>
<path d="M15.2947 24.1624H2.21438C1.9924 24.1624 1.81055 23.9832 1.81055 23.7585V20.1963H15.6985V23.7585C15.6985 23.9832 15.5194 24.1624 15.2947 24.1624Z" fill="#0C71C3"/>
<path d="M16.9929 19.7954H0.40383C0.179183 19.7954 0 19.6162 0 19.3916V17.6265C0 17.4045 0.179183 17.2227 0.40383 17.2227H16.9929C17.2149 17.2227 17.3968 17.4018 17.3968 17.6265V19.3916C17.3968 19.6135 17.2176 19.7954 16.9929 19.7954Z" fill="#0C71C3"/>
<path d="M8.77991 12.5126H8.76922C7.16994 12.4752 5.65625 11.007 5.65625 9.4906V7.99563C5.65625 7.77365 5.83811 7.5918 6.06008 7.5918C6.28205 7.5918 6.46391 7.77098 6.46391 7.99563V9.4906C6.46391 10.5577 7.62993 11.6729 8.77991 11.705C9.92722 11.6729 11.0932 10.5577 11.0932 9.4906V8.07586C11.0932 7.85389 11.2751 7.67203 11.4971 7.67203C11.719 7.67203 11.9009 7.85389 11.9009 8.07586V9.4906C11.9009 11.007 10.3872 12.4752 8.78794 12.5126H8.77991Z" fill="#0C71C3"/>
<path d="M11.4972 8.4801C11.4304 8.4801 11.3608 8.46406 11.2993 8.42661C11.2164 8.37848 11.1549 8.30627 11.1228 8.22336C10.021 7.37559 7.79857 7.17233 7.7745 7.16966C7.62206 7.15629 7.4937 7.06001 7.43753 6.91827C7.20754 6.35398 7.26905 5.23074 7.27707 5.10237C7.27707 5.0783 7.28242 5.05156 7.28777 5.02749C7.4937 4.20379 8.43775 4.06472 8.9646 4.11018H8.99134C10.5131 4.35355 11.4357 5.5062 11.762 5.99026C12.1016 6.49572 12.2193 7.52535 11.885 8.19929C11.885 8.20464 11.8797 8.21266 11.877 8.21801C11.869 8.23673 11.8583 8.25278 11.8476 8.2715C11.7727 8.40254 11.6363 8.47743 11.4972 8.47743V8.4801Z" fill="#0C71C3"/>
<path d="M3.19017 16.821V15.4597C3.19017 14.0423 4.41504 12.8896 5.91803 12.8896H6.60534L5.83245 14.414C5.78699 14.5023 5.8164 14.6119 5.89664 14.6681L6.87011 15.3608L6.23628 16.8183H3.1875L3.19017 16.821ZM7.06266 12.8896H7.1937C7.30068 12.8896 7.40231 12.9324 7.47719 13.0046L8.55496 14.061V16.821H6.67755L7.3087 15.3715C7.34614 15.2859 7.31673 15.1843 7.23917 15.1281L6.27372 14.4435L7.05999 12.8923L7.06266 12.8896ZM8.96146 14.061L10.0339 13.0073C10.1088 12.9324 10.2104 12.8923 10.3174 12.8923H10.4859L11.2374 14.3739L10.2719 15.0586C10.1943 15.112 10.1649 15.2163 10.2024 15.3019L10.8656 16.821H8.96414V14.061H8.96146ZM10.9378 12.8896H11.5904C13.096 12.8896 14.3182 14.0423 14.3182 15.4597V16.821H11.3015L10.6356 15.2939L11.6091 14.6012C11.692 14.5424 11.7187 14.4328 11.6733 14.3445L10.9351 12.8896H10.9378Z" fill="#0C71C3"/>
<path d="M5.95286 8.411C5.62926 8.411 5.32973 8.23716 5.03287 8.06333C4.58893 7.80392 4.31882 7.64613 4.35358 7.31986C4.38568 7.02835 4.64776 6.9401 4.77346 6.89998C4.84567 6.87591 4.9259 6.84917 4.99276 6.80638C5.27357 6.61115 5.46077 6.23139 5.65868 5.82756C5.95286 5.2285 6.32994 4.45561 7.19376 4.34863C7.05737 4.51177 6.95574 4.70432 6.89958 4.93432C6.87551 5.0306 6.88354 4.98246 6.87819 5.08141C6.84342 5.65105 6.85144 6.54429 7.06539 7.07381C7.12958 7.23428 7.24458 7.36532 7.38632 7.45357C7.20179 7.59264 6.97981 7.78787 6.7204 8.04461C6.45029 8.31472 6.19622 8.41367 5.95553 8.41367L5.95286 8.411Z" fill="#0C71C3"/>
</svg>
