<svg width="25" height="25" viewBox="0 0 25 25" fill="none" xmlns="http://www.w3.org/2000/svg">
<g clip-path="url(#clip0_199_2372)">
<path d="M13.6065 9.05756C13.2831 9.05756 13.021 9.31965 13.021 9.64303V20.7086C13.021 21.0317 13.2831 21.2941 13.6065 21.2941C13.9299 21.2941 14.192 21.0317 14.192 20.7086V9.64303C14.192 9.31965 13.9299 9.05756 13.6065 9.05756Z" fill="#E40000"/>
<path d="M6.69778 9.05756C6.3744 9.05756 6.1123 9.31965 6.1123 9.64303V20.7086C6.1123 21.0317 6.3744 21.2941 6.69778 21.2941C7.02117 21.2941 7.28326 21.0317 7.28326 20.7086V9.64303C7.28326 9.31965 7.02117 9.05756 6.69778 9.05756Z" fill="#E40000"/>
<path d="M1.66285 7.44268V21.8676C1.66285 22.7202 1.97549 23.5209 2.52163 24.0954C3.06526 24.6715 3.82181 24.9986 4.61357 24.9999H15.691C16.483 24.9986 17.2396 24.6715 17.7829 24.0954C18.3291 23.5209 18.6417 22.7202 18.6417 21.8676V7.44268C19.7274 7.15451 20.4309 6.10569 20.2856 4.99168C20.1402 3.87789 19.1913 3.04473 18.0679 3.0445H15.0703V2.31265C15.0737 1.69722 14.8304 1.10625 14.3947 0.671486C13.959 0.236952 13.3672 -0.00501556 12.7517 1.58919e-05H7.55286C6.93742 -0.00501556 6.34554 0.236952 5.90986 0.671486C5.47418 1.10625 5.23084 1.69722 5.23427 2.31265V3.0445H2.23667C1.11328 3.04473 0.164395 3.87789 0.0189405 4.99168C-0.126285 6.10569 0.577203 7.15451 1.66285 7.44268ZM15.691 23.829H4.61357C3.61254 23.829 2.83381 22.9691 2.83381 21.8676V7.49414H17.4708V21.8676C17.4708 22.9691 16.692 23.829 15.691 23.829ZM6.40523 2.31265C6.40134 2.00779 6.52118 1.71437 6.73753 1.49916C6.95366 1.28395 7.24777 1.16571 7.55286 1.17097H12.7517C13.0568 1.16571 13.3509 1.28395 13.567 1.49916C13.7834 1.71414 13.9032 2.00779 13.8994 2.31265V3.0445H6.40523V2.31265ZM2.23667 4.21546H18.0679C18.65 4.21546 19.1218 4.68727 19.1218 5.26932C19.1218 5.85137 18.65 6.32318 18.0679 6.32318H2.23667C1.65462 6.32318 1.18281 5.85137 1.18281 5.26932C1.18281 4.68727 1.65462 4.21546 2.23667 4.21546Z" fill="#E40000"/>
<path d="M10.1524 9.05756C9.82899 9.05756 9.56689 9.31965 9.56689 9.64303V20.7086C9.56689 21.0317 9.82899 21.2941 10.1524 21.2941C10.4758 21.2941 10.7379 21.0317 10.7379 20.7086V9.64303C10.7379 9.31965 10.4758 9.05756 10.1524 9.05756Z" fill="#E40000"/>
</g>
<defs>
<clipPath id="clip0_199_2372">
<rect width="25" height="25" fill="white"/>
</clipPath>
</defs>
</svg>
