<svg width="100" height="101" viewBox="0 0 100 101" fill="none" xmlns="http://www.w3.org/2000/svg">
<g clip-path="url(#clip0_4352_39485)">
<path fill-rule="evenodd" clip-rule="evenodd" d="M74.375 56.9492C76.1563 56.9492 77.6042 58.0221 77.6042 59.3555V83.418C77.6042 84.7513 76.1563 85.8242 74.375 85.8242C72.5938 85.8242 71.1458 84.7513 71.1458 83.418V59.3555C71.1458 58.0221 72.5938 56.9492 74.375 56.9492Z" fill="#0C71C3"/>
<path fill-rule="evenodd" clip-rule="evenodd" d="M86.3229 70.46C87.5833 71.8454 87.5833 74.085 86.3229 75.4704L76.6458 86.0954C75.3854 87.4808 73.3437 87.4808 72.0833 86.0954L62.4062 75.4704C61.1458 74.085 61.1458 71.8454 62.4062 70.46C63.6667 69.0745 65.7083 69.0745 66.9688 70.46L74.3646 78.585L81.7604 70.46C83.0208 69.0745 85.0625 69.0745 86.3229 70.46Z" fill="#0C71C3"/>
<path d="M72.9167 100.126C57.9792 100.126 45.8333 87.9798 45.8333 73.0423C45.8333 58.1048 57.9792 45.959 72.9167 45.959C87.8542 45.959 100 58.1048 100 73.0423C100 87.9798 87.8542 100.126 72.9167 100.126ZM72.9167 52.209C61.4271 52.209 52.0833 61.5527 52.0833 73.0423C52.0833 84.5319 61.4271 93.8757 72.9167 93.8757C84.4062 93.8757 93.75 84.5319 93.75 73.0423C93.75 61.5527 84.4062 52.209 72.9167 52.209Z" fill="#0C71C3"/>
<path d="M38.2917 87.626H11.4583C5.13542 87.626 0 82.4906 0 76.1676V11.5843C0 5.26139 5.13542 0.125977 11.4583 0.125977H59.375C65.6979 0.125977 70.8333 5.26139 70.8333 11.5843V36.9593C70.8333 38.6885 69.4375 40.0843 67.7083 40.0843C65.9792 40.0843 64.5833 38.6885 64.5833 36.9593V11.5843C64.5833 8.70931 62.25 6.37598 59.375 6.37598H11.4583C8.58333 6.37598 6.25 8.70931 6.25 11.5843V76.1676C6.25 79.0426 8.58333 81.376 11.4583 81.376H38.2917C40.0208 81.376 41.4167 82.7718 41.4167 84.501C41.4167 86.2301 40.0208 87.626 38.2917 87.626Z" fill="#0C71C3"/>
<path d="M55.2083 39.709H15.625C13.8958 39.709 12.5 38.3132 12.5 36.584C12.5 34.8548 13.8958 33.459 15.625 33.459H55.2083C56.9375 33.459 58.3333 34.8548 58.3333 36.584C58.3333 38.3132 56.9375 39.709 55.2083 39.709Z" fill="#0C71C3"/>
<path d="M38.5417 56.376H15.625C13.8958 56.376 12.5 54.9801 12.5 53.251C12.5 51.5218 13.8958 50.126 15.625 50.126H38.5417C40.2708 50.126 41.6667 51.5218 41.6667 53.251C41.6667 54.9801 40.2708 56.376 38.5417 56.376Z" fill="#0C71C3"/>
<path d="M34.375 23.043H15.625C13.8958 23.043 12.5 21.6471 12.5 19.918C12.5 18.1888 13.8958 16.793 15.625 16.793H34.375C36.1042 16.793 37.5 18.1888 37.5 19.918C37.5 21.6471 36.1042 23.043 34.375 23.043Z" fill="#0C71C3"/>
</g>
<defs>
<clipPath id="clip0_4352_39485">
<rect width="100" height="100" fill="white" transform="translate(0 0.125977)"/>
</clipPath>
</defs>
</svg>
