<svg xmlns="http://www.w3.org/2000/svg" version="1.1" xmlns:xlink="http://www.w3.org/1999/xlink" xmlns:svgjs="http://svgjs.com/svgjs" width="512" height="512" x="0" y="0" viewBox="0 0 512 512" style="enable-background:new 0 0 512 512" xml:space="preserve" class=""><g><path clip-rule="evenodd" d="m455.172 139.9h-53.245v-63.209c0-10.147-4.136-19.357-10.799-26.021-6.662-6.663-15.873-10.799-26.02-10.799h-218.215c-10.148 0-19.358 4.136-26.021 10.799s-10.799 15.873-10.799 26.021v63.209h-53.245c-31.256 0-56.828 25.572-56.828 56.828v218.572c0 31.256 25.573 56.828 56.828 56.828h398.344c31.256 0 56.828-25.572 56.828-56.828v-218.572c0-31.256-25.572-56.828-56.828-56.828zm-302.417-57.347h206.49v57.347h-206.49zm211.446 255.067h-76.596v76.596h-63.211v-76.596h-76.595v-63.211h76.595v-76.596h63.211v76.596h76.596z" fill-rule="evenodd" fill="#000000" data-original="#000000" class=""></path></g></svg>