<svg width="25" height="25" viewBox="0 0 25 25" fill="none" xmlns="http://www.w3.org/2000/svg">
<path d="M18.2288 25C14.4945 25 11.458 21.9636 11.458 18.2292C11.458 14.4948 14.4945 11.4584 18.2288 11.4584C21.9632 11.4584 24.9997 14.4948 24.9997 18.2292C24.9997 21.9636 21.9632 25 18.2288 25ZM18.2288 13.0209C15.3564 13.0209 13.0205 15.3568 13.0205 18.2292C13.0205 21.1016 15.3564 23.4375 18.2288 23.4375C21.1012 23.4375 23.4372 21.1016 23.4372 18.2292C23.4372 15.3568 21.1012 13.0209 18.2288 13.0209Z" fill="#0C71C3"/>
<path d="M9.57292 21.875H2.86458C1.28385 21.875 0 20.5911 0 19.0104V2.86458C0 1.28385 1.28385 0 2.86458 0H14.8438C16.4245 0 17.7083 1.28385 17.7083 2.86458V9.20833C17.7083 9.64062 17.3594 9.98958 16.9271 9.98958C16.4948 9.98958 16.1458 9.64062 16.1458 9.20833V2.86458C16.1458 2.14583 15.5625 1.5625 14.8438 1.5625H2.86458C2.14583 1.5625 1.5625 2.14583 1.5625 2.86458V19.0104C1.5625 19.7292 2.14583 20.3125 2.86458 20.3125H9.57292C10.0052 20.3125 10.3542 20.6615 10.3542 21.0938C10.3542 21.526 10.0052 21.875 9.57292 21.875Z" fill="#0C71C3"/>
<path d="M13.8021 9.89587H3.90625C3.47396 9.89587 3.125 9.54692 3.125 9.11462C3.125 8.68233 3.47396 8.33337 3.90625 8.33337H13.8021C14.2344 8.33337 14.5833 8.68233 14.5833 9.11462C14.5833 9.54692 14.2344 9.89587 13.8021 9.89587Z" fill="#0C71C3"/>
<path d="M9.63542 14.0625H3.90625C3.47396 14.0625 3.125 13.7135 3.125 13.2812C3.125 12.849 3.47396 12.5 3.90625 12.5H9.63542C10.0677 12.5 10.4167 12.849 10.4167 13.2812C10.4167 13.7135 10.0677 14.0625 9.63542 14.0625Z" fill="#0C71C3"/>
<path d="M8.59375 5.72913H3.90625C3.47396 5.72913 3.125 5.38017 3.125 4.94788C3.125 4.51558 3.47396 4.16663 3.90625 4.16663H8.59375C9.02604 4.16663 9.375 4.51558 9.375 4.94788C9.375 5.38017 9.02604 5.72913 8.59375 5.72913Z" fill="#0C71C3"/>
</svg>
