<svg width="25" height="25" viewBox="0 0 25 25" fill="none" xmlns="http://www.w3.org/2000/svg">
<g clip-path="url(#clip0_199_2380)">
<path d="M23.0478 17.8656H22.3201V16.9468C22.3201 14.7712 20.5501 13.0013 18.3746 13.0013H16.8465H13.396V9.60321H15.5786C16.655 9.60321 17.5308 8.72748 17.5308 7.65101V2.91234C17.5308 1.83593 16.655 0.960144 15.5786 0.960144H9.74722C8.6708 0.960144 7.79507 1.83588 7.79507 2.91234V7.65096C7.79507 8.72738 8.6708 9.60316 9.74722 9.60316H11.9298V13.0013H8.52817H6.65791C4.48232 13.0013 2.7125 14.7712 2.7125 16.9467V17.8656H1.9522C0.875732 17.8656 0 18.7413 0 19.8178V22.0876C0 23.1641 0.875732 24.0398 1.9522 24.0398H4.93882C6.01523 24.0398 6.89097 23.1641 6.89097 22.0876V19.8178C6.89097 18.7413 6.01523 17.8656 4.93882 17.8656H4.17861V16.9468C4.17861 15.5797 5.29082 14.4675 6.65786 14.4675H8.52813H11.9298V17.8656H11.1696C10.0931 17.8656 9.21738 18.7413 9.21738 19.8178V22.0876C9.21738 23.1641 10.0931 24.0398 11.1696 24.0398H14.1562C15.2326 24.0398 16.1083 23.1641 16.1083 22.0876V19.8178C16.1083 18.7413 15.2326 17.8656 14.1562 17.8656H13.396V14.4675H16.8466H18.3747C19.7418 14.4675 20.854 15.5797 20.854 16.9468V17.8656H20.0612C18.9848 17.8656 18.109 18.7413 18.109 19.8178V22.0876C18.109 23.1641 18.9848 24.0398 20.0612 24.0398H23.0478C24.1243 24.0398 25 23.1641 25 22.0876V19.8178C25 18.7413 24.1243 17.8656 23.0478 17.8656ZM4.93887 19.3318C5.20684 19.3318 5.42485 19.5498 5.42485 19.8178V22.0876C5.42485 22.3556 5.20684 22.5736 4.93887 22.5736H1.95225C1.68428 22.5736 1.46621 22.3556 1.46621 22.0876V19.8178C1.46621 19.5498 1.68428 19.3318 1.95225 19.3318H4.93887ZM14.1563 19.3318C14.4242 19.3318 14.6422 19.5498 14.6422 19.8178V22.0876C14.6422 22.3556 14.4242 22.5736 14.1563 22.5736H11.1696C10.9017 22.5736 10.6836 22.3556 10.6836 22.0876V19.8178C10.6836 19.5498 10.9017 19.3318 11.1696 19.3318H14.1563ZM9.74722 8.13705C9.47925 8.13705 9.26123 7.91898 9.26123 7.65101V2.91234C9.26123 2.64437 9.47925 2.42631 9.74722 2.42631H15.5786C15.8465 2.42631 16.0646 2.64432 16.0646 2.91234V7.65096C16.0646 7.91893 15.8465 8.137 15.5786 8.137H9.74722V8.13705ZM23.5338 22.0877C23.5338 22.3557 23.3158 22.5737 23.0478 22.5737H20.0612C19.7932 22.5737 19.5752 22.3557 19.5752 22.0877V19.8179C19.5752 19.5499 19.7932 19.3318 20.0612 19.3318H23.0478C23.3158 19.3318 23.5338 19.5498 23.5338 19.8179V22.0877Z" fill="#0C71C3"/>
</g>
<defs>
<clipPath id="clip0_199_2380">
<rect width="25" height="25" fill="white"/>
</clipPath>
</defs>
</svg>
