<svg width="16" height="19" viewBox="0 0 16 19" fill="none" xmlns="http://www.w3.org/2000/svg">
<path d="M7.8943 8.16835C8.78649 8.16835 9.65864 7.92882 10.4005 7.48004C11.1423 7.03127 11.7205 6.39341 12.0619 5.64712C12.4033 4.90084 12.4927 4.07965 12.3186 3.28739C12.1446 2.49514 11.7149 1.76741 11.0841 1.19623C10.4532 0.625046 9.64939 0.236067 8.77435 0.0784781C7.8993 -0.0791107 6.99229 0.0017696 6.16801 0.310891C5.34374 0.620013 4.63922 1.14349 4.14354 1.81513C3.64787 2.48677 3.3833 3.2764 3.3833 4.08418C3.3833 5.16737 3.85856 6.20619 4.70454 6.97212C5.55052 7.73805 6.69791 8.16835 7.8943 8.16835Z" fill="white"/>
<path d="M14.6607 18.3788C14.9598 18.3788 15.2467 18.2712 15.4582 18.0797C15.6697 17.8883 15.7885 17.6286 15.7885 17.3578C15.7885 15.4622 14.9568 13.6442 13.4763 12.3038C11.9959 10.9635 9.98792 10.2104 7.89424 10.2104C5.80056 10.2104 3.79263 10.9635 2.31217 12.3038C0.831712 13.6442 3.11983e-08 15.4622 0 17.3578C0 17.6286 0.118816 17.8883 0.33031 18.0797C0.541804 18.2712 0.828651 18.3788 1.12775 18.3788H14.6607Z" fill="white"/>
</svg>
