<svg xmlns="http://www.w3.org/2000/svg" version="1.1" xmlns:xlink="http://www.w3.org/1999/xlink" width="1024" height="1024" x="0" y="0" viewBox="0 0 24 24" style="enable-background:new 0 0 512 512" xml:space="preserve" class=""><g><path fill="#0c71c3" fill-rule="evenodd" d="M9.668 10.631c.786.75.786 1.987 0 2.738l-.108.102c-2.015 1.924-3.572 3.409-4.04 6.522C5.352 21.09 6.292 22 7.424 22h9.15c1.132 0 2.072-.91 1.906-2.007-.47-3.113-2.026-4.598-4.041-6.522l-.107-.102a1.884 1.884 0 0 1 0-2.738l.107-.102c2.015-1.924 3.572-3.409 4.041-6.522C18.647 2.91 17.707 2 16.575 2h-9.15c-1.132 0-2.072.91-1.906 2.007.47 3.113 2.026 4.598 4.041 6.522zm.683-1.698-.008-.006C8.808 7.554 7.665 6.532 7.516 4.004a.468.468 0 0 1 .168-.388.493.493 0 0 1 .32-.116h7.992c.144 0 .274.06.363.158.084.09.132.212.124.346-.149 2.528-1.291 3.55-2.826 4.923-.406.363-.84.751-1.29 1.198a.523.523 0 0 1-.735 0c-.447-.444-.878-.83-1.281-1.192z" clip-rule="evenodd" opacity="1" data-original="#0c71c3" class=""></path></g></svg>