<svg xmlns="http://www.w3.org/2000/svg" version="1.1" xmlns:xlink="http://www.w3.org/1999/xlink" xmlns:svgjs="http://svgjs.com/svgjs" width="512" height="512" x="0" y="0" viewBox="0 0 60 60" style="enable-background:new 0 0 512 512" xml:space="preserve" class=""><g><path d="M57,0H15a3,3,0,0,0-3,3v8.059A9.01,9.01,0,0,0,4,20v3a3.005,3.005,0,0,0,2.051,2.846A7,7,0,0,0,9,30.734V32.2l-3.308.737A7.229,7.229,0,0,0,0,40.03V54a1.993,1.993,0,0,0,1,1.722V57a3,3,0,0,0,3,3H5a1.978,1.978,0,0,0,1-.278A1.978,1.978,0,0,0,7,60H19a2,2,0,0,0,2-2V45.987l1.013,1.892a3.456,3.456,0,0,0,2.452,2.036,3.41,3.41,0,0,0,3.017-.744l6.567-4.882a1.78,1.78,0,0,0,.6-1.226,8.045,8.045,0,0,1,2.631-1.455,2.959,2.959,0,0,0,.782-.365,3.38,3.38,0,0,0,1.526-2.215A3.257,3.257,0,0,0,39.6,38H57a3,3,0,0,0,3-3V3A3,3,0,0,0,57,0ZM13,13a7.009,7.009,0,0,1,7,7v.179c-.037-.013-.072-.032-.11-.044a3.073,3.073,0,0,0-4.626-1.743A4.063,4.063,0,0,1,13,19a4.065,4.065,0,0,1-2.263-.607,3.075,3.075,0,0,0-4.629,1.743c-.037.011-.071.03-.108.043V20A7.009,7.009,0,0,1,13,13ZM7,24a1,1,0,0,1,0-2,1.081,1.081,0,0,0,1-1.075,1.031,1.031,0,0,1,.564-.9,1.1,1.1,0,0,1,.51-.129,1.023,1.023,0,0,1,.564.169A6.009,6.009,0,0,0,13,21a6.015,6.015,0,0,0,3.362-.937,1.043,1.043,0,0,1,1.073-.04A1.064,1.064,0,0,1,18,21a1,1,0,0,0,1,1,1,1,0,0,1,0,2,1,1,0,0,0-1,1A5,5,0,0,1,8,25,1,1,0,0,0,7,24Zm7.984,22.646L13,47.965l-1.984-1.319L11.862,41h2.276ZM9.54,34.127a4.819,4.819,0,0,0,1.546,1.294,5.738,5.738,0,0,0-.8,1.668.373.373,0,0,1-.247.246.4.4,0,0,1-.37-.052,6.891,6.891,0,0,1-2.085-2.721ZM11.721,39l-.116-.348a2.294,2.294,0,0,0,.6-1.006A3.239,3.239,0,0,1,13,36.215a3.2,3.2,0,0,1,.788,1.417,2.323,2.323,0,0,0,.608,1.019L14.279,39Zm4.6-1.714a.392.392,0,0,1-.365.049.38.38,0,0,1-.251-.261,5.694,5.694,0,0,0-.793-1.654,4.831,4.831,0,0,0,1.524-1.265l1.921.517A6.768,6.768,0,0,1,16.324,37.286ZM13,32a6.956,6.956,0,0,0,2-.294v1.037a2.944,2.944,0,0,1-2,1.243,2.946,2.946,0,0,1-2-1.241V31.706A6.956,6.956,0,0,0,13,32ZM4,58a1,1,0,0,1-1-1V56H5v2Zm3-2h5v2H7Zm7,2V56h5v2ZM26.221,47.621a1.474,1.474,0,0,1-1.321.342,1.542,1.542,0,0,1-1.087-.949l-2.931-5.486A1,1,0,0,0,19,42V54H7V42a1,1,0,0,0-2,0V54H2V40.03a5.222,5.222,0,0,1,3.616-4.983,9.083,9.083,0,0,0,2.868,3.847,2.364,2.364,0,0,0,1.241.443l.25.75-.956,6.388a1.828,1.828,0,0,0,.794,1.774L11.989,49.7a1.823,1.823,0,0,0,2.022,0l2.176-1.446a1.831,1.831,0,0,0,.793-1.781l-.955-6.381.247-.742a2.359,2.359,0,0,0,1.239-.449,8.969,8.969,0,0,0,2.806-3.7l.151.04a5.247,5.247,0,0,1,3.788,3.29L25.6,42.118a1.956,1.956,0,0,0,3.052.84l2.248-1.8,1.647,1.759ZM31.114,39.1a1.784,1.784,0,0,0-1.314.375l-2.326,1.937L26.193,38h6.028A12.531,12.531,0,0,1,31.114,39.1Zm5.853.463a.972.972,0,0,1-.253.122,9.688,9.688,0,0,0-2.994,1.554l-.909-.971a9.984,9.984,0,0,0,2.147-2.793.641.641,0,0,1,.25-.226,1.661,1.661,0,0,1,2.188.387,1.3,1.3,0,0,1,.225,1.006A1.413,1.413,0,0,1,36.967,39.567ZM36,27a1,1,0,0,0-1,1v.949a10,10,0,1,1,2,0V28A1,1,0,0,0,36,27Zm22,8a1,1,0,0,1-1,1H38.6a3.6,3.6,0,0,0-1.6-.869V30.949a12,12,0,1,0-2,0v4.229a3.49,3.49,0,0,0-.853.38A2.878,2.878,0,0,0,33.6,36H25.112a7.166,7.166,0,0,0-4.167-2.7L17,32.234v-1.5a7,7,0,0,0,2.949-4.888A3.005,3.005,0,0,0,22,23V20a9.01,9.01,0,0,0-8-8.941V3a1,1,0,0,1,1-1H57a1,1,0,0,1,1,1Z" fill="#000000" data-original="#000000" class=""></path><path d="M42,19a2.752,2.752,0,0,0-1.165-2.259l-4.692-3.268a2.562,2.562,0,0,0-2.69-.175A2.724,2.724,0,0,0,32,15.729v6.542A2.726,2.726,0,0,0,33.451,24.7a2.558,2.558,0,0,0,2.69-.175l4.694-3.27A2.749,2.749,0,0,0,42,19Zm-2.308.616L35,22.887a.583.583,0,0,1-.621.042A.721.721,0,0,1,34,22.271V15.729a.722.722,0,0,1,.378-.658.6.6,0,0,1,.28-.071.588.588,0,0,1,.342.113l4.691,3.269a.771.771,0,0,1,0,1.234Z" fill="#000000" data-original="#000000" class=""></path></g></svg>