<svg width="25" height="25" viewBox="0 0 25 25" fill="none" xmlns="http://www.w3.org/2000/svg">
<path d="M22.6439 2.35603C19.5025 -0.785375 14.3913 -0.785326 11.2499 2.35608C9.10414 4.50183 8.35883 7.66398 9.28793 10.5329L0.214599 19.6063C0.146551 19.6742 0.0925722 19.755 0.0557494 19.8438C0.0189265 19.9327 -1.77602e-05 20.0279 1.24936e-08 20.1241V24.2676C1.24936e-08 24.6724 0.327588 25 0.732421 25H4.87587C5.07041 25 5.25639 24.9228 5.3937 24.7854L6.42939 23.749C6.50745 23.6709 6.56685 23.5761 6.60314 23.4719C6.63943 23.3676 6.65168 23.2564 6.63896 23.1467L6.5102 22.0338L8.05229 21.8886C8.22204 21.8728 8.38093 21.7981 8.50148 21.6776C8.62204 21.557 8.69667 21.3981 8.71249 21.2284L8.85771 19.6863L9.97064 19.8157C10.1773 19.8436 10.3855 19.7742 10.5421 19.6355C10.6192 19.5667 10.6809 19.4824 10.7232 19.3881C10.7654 19.2938 10.7873 19.1917 10.7874 19.0883V17.7246H12.1264C12.3209 17.7246 12.5069 17.6474 12.6442 17.51L14.5225 15.6566C17.3907 16.5864 20.4981 15.8973 22.6439 13.7501C25.7853 10.6087 25.7853 5.49743 22.6439 2.35603ZM20.5719 7.53522C19.715 8.39211 18.3217 8.39211 17.4648 7.53522C16.6079 6.67834 16.6079 5.28503 17.4648 4.42815C18.3217 3.57126 19.715 3.57126 20.5719 4.42815C21.4287 5.28503 21.4287 6.67834 20.5719 7.53522Z" fill="#0C71C3"/>
</svg>
