<svg width="146" height="28" viewBox="0 0 146 28" fill="none" xmlns="http://www.w3.org/2000/svg">
<path d="M36.1808 5.44461C36.2243 5.03961 36.2988 4.94961 36.6156 4.86461C37.1125 4.72461 38.8329 4.59961 40.2553 4.59961C41.5472 4.59961 43.4664 4.65461 44.6838 5.49961C45.5782 6.13461 45.9322 7.09961 45.8204 8.08961C45.6092 10.0246 43.6155 11.0296 42.0441 11.4196L45.5719 16.5946C45.6465 16.6996 45.721 16.8246 45.7086 16.9296C45.6837 17.1746 45.398 17.1746 45.2428 17.1746H43.0316C42.572 17.1546 42.5347 17.1196 42.3484 16.8246L39.5596 12.3146C39.4665 12.1546 39.2615 11.8546 38.8205 11.8546C38.3609 11.8546 38.3298 12.1546 38.3112 12.3146L37.8267 16.7496C37.7895 17.0646 37.6963 17.1746 37.2802 17.1746H35.3796C35.0752 17.1746 34.9013 17.1396 34.9386 16.8046L36.1808 5.44461ZM38.4851 10.7646C39.2925 10.7846 39.5534 10.7846 39.9074 10.7446C41.2366 10.6196 42.6589 9.98961 42.8391 8.34961C43.0999 5.97461 40.8453 5.97461 39.9944 5.97461C39.5348 5.97461 39.2242 6.00961 39.0068 6.02461L38.4913 10.7596L38.4851 10.7646Z" fill="#BF2F38"/>
<path d="M49.5399 12.5592C49.6454 14.9892 51.192 15.4642 52.2417 15.4642C53.4031 15.4642 54.3348 14.8992 54.9745 14.3042C55.3658 13.8992 55.4901 13.7942 55.7758 13.7942C56.0615 13.7942 56.3223 13.9892 56.2851 14.3392C56.2292 14.8342 55.0553 17.4042 51.6206 17.4042C48.7324 17.4042 46.9064 15.7142 47.248 12.5942C47.6331 9.08922 50.3287 7.82422 52.6702 7.82422C56.0863 7.82422 56.6267 10.2892 56.5335 11.1342C56.4652 11.7492 55.9559 11.8042 55.6888 11.8392L49.5523 12.5592H49.5399ZM53.8069 10.9192C53.8441 9.79422 53.0615 9.13922 52.0988 9.13922C50.5895 9.13922 49.7883 10.2492 49.5461 11.4642L53.8069 10.9192Z" fill="#BF2F38"/>
<path d="M63.8324 11.9253C64.7951 12.3103 66.3044 12.9453 66.118 14.6353C66.0125 15.6203 65.1367 17.4003 61.8759 17.4003C58.8573 17.4003 57.9629 15.9753 58.0374 15.2703C58.0933 14.7403 58.6213 14.3203 59.2548 14.3203C59.8883 14.3203 60.1368 14.6703 60.4039 15.0053C60.8635 15.6053 61.2051 16.0603 62.0808 16.0603C62.8697 16.0603 63.5094 15.6203 63.5777 14.9703C63.646 14.3703 63.1988 14.0353 63.0001 13.8803C62.7144 13.7053 61.4349 13.1953 60.907 12.9803C60.2796 12.7353 58.6026 12.0453 58.7828 10.4103C58.9194 9.16031 60.0933 7.82031 62.8697 7.82031C65.646 7.82031 66.3727 9.00031 66.2982 9.70531C66.2423 10.2003 65.764 10.5703 65.1553 10.5703C64.4783 10.5703 64.2361 10.1803 64.0311 9.85031C63.851 9.51531 63.5342 8.98531 62.6398 8.98531C61.7454 8.98531 61.261 9.58531 61.2113 10.0403C61.1119 10.9203 62.0436 11.2553 62.7765 11.5203L63.8262 11.9253H63.8324Z" fill="#BF2F38"/>
<path d="M73.316 9.19531C72.0055 9.19531 70.9247 10.4253 70.757 11.9953C70.5521 13.8453 71.521 15.4303 73.2663 15.4303C74.5582 15.4303 75.2539 14.6553 75.6079 14.2503C75.906 13.9353 76.0551 13.7553 76.3594 13.7553C76.6886 13.7553 76.906 13.9853 76.8625 14.3703C76.7507 15.3903 75.3532 17.4003 72.4154 17.4003C69.3285 17.4003 68.0925 15.1453 68.3596 12.6653C68.6204 10.3053 70.2664 7.82031 73.8129 7.82031C76.3284 7.82031 77.3532 9.26531 77.26 10.1103C77.1917 10.7453 76.5582 11.1153 75.9681 11.1153C75.6638 11.1153 75.1918 10.9903 74.9619 10.4803C74.6762 9.88031 74.3595 9.19531 73.3098 9.19531H73.316Z" fill="#BF2F38"/>
<path d="M88.2411 14.9899C88.1542 15.7649 88.0796 16.2599 87.1977 16.7149C86.5517 17.0149 85.1729 17.3999 83.3344 17.3999C79.1109 17.3999 79.0425 15.6399 79.1668 14.5299L79.8375 8.38492C79.8686 8.10492 80.0487 8.04992 80.3344 8.04992H82.1294C82.4586 8.02992 82.6077 8.10492 82.5704 8.39992L81.9245 14.2999C81.8624 14.8799 81.7692 15.9349 83.6511 15.9349C85.4027 15.9349 85.5145 15.0899 85.5828 14.5099L86.2474 8.41492C86.2784 8.13492 86.3964 8.04492 86.7443 8.04492H88.4709C88.8188 8.04492 88.9927 8.07992 88.9554 8.41492L88.2349 14.9849L88.2411 14.9899Z" fill="#BF2F38"/>
<path d="M93.1863 12.5592C93.2919 14.9892 94.8385 15.4642 95.8882 15.4642C97.0496 15.4642 97.9875 14.8992 98.621 14.3042C99.0123 13.8992 99.1365 13.7942 99.4223 13.7942C99.708 13.7942 99.9688 13.9892 99.9316 14.3392C99.8757 14.8342 98.7018 17.4042 95.267 17.4042C92.3789 17.4042 90.5528 15.7142 90.8944 12.5942C91.2795 9.08922 93.9751 7.82422 96.3167 7.82422C99.7328 7.82422 100.273 10.2892 100.18 11.1342C100.112 11.7492 99.6024 11.8042 99.3353 11.8392L93.1988 12.5592H93.1863ZM97.4533 10.9192C97.4906 9.79422 96.708 9.13922 95.7453 9.13922C94.236 9.13922 93.4348 10.2492 93.1925 11.4642L97.4533 10.9192Z" fill="#BF2F38"/>
<path d="M114.378 17.4545C110.639 17.4545 107.639 15.2345 108.104 10.9745C108.502 7.32945 111.378 4.43945 115.843 4.43945C120.309 4.43945 122.266 7.30945 122.079 10.6195C121.843 14.5645 118.576 17.4545 114.378 17.4545ZM118.371 7.32945C117.446 5.98945 116.048 5.95445 115.614 5.95445C115.042 5.95445 114.44 6.07945 113.93 6.30445C111.676 7.32445 111.316 9.82445 111.21 10.7795C111.135 11.4845 111.135 12.0645 111.191 12.5595C111.514 15.4295 113.725 15.7845 114.583 15.7845C115.564 15.7845 116.812 15.3995 117.744 14.2545C118.558 13.2345 118.881 11.8795 118.992 10.6645C119.073 9.72945 119.086 8.40945 118.371 7.33445V7.32945Z" fill="#BF2F38"/>
<path d="M132.937 16.8051C132.9 17.1201 132.764 17.1751 132.416 17.1751H130.664C130.223 17.1751 130.198 17.0351 130.229 16.7701L130.882 10.8201C130.956 10.1151 131.056 9.02508 129.198 9.02508C127.447 9.02508 127.329 10.1001 127.285 10.5051L126.602 16.7551C126.565 17.1101 126.447 17.1801 126.031 17.1801H124.304C123.956 17.1801 123.851 17.1101 123.888 16.8101L124.646 9.85508C124.72 9.15008 124.813 8.74508 125.838 8.37508C127.043 7.95008 128.329 7.83008 129.596 7.83008C131.782 7.83008 132.503 8.27008 132.844 8.51508C133.757 9.16508 133.689 9.99508 133.621 10.6101L132.944 16.8101L132.937 16.8051Z" fill="#BF2F38"/>
<path d="M138.124 12.5592C138.229 14.9892 139.776 15.4642 140.826 15.4642C141.987 15.4642 142.925 14.8992 143.559 14.3042C143.95 13.8992 144.074 13.7942 144.36 13.7942C144.645 13.7942 144.906 13.9892 144.869 14.3392C144.813 14.8342 143.639 17.4042 140.205 17.4042C137.316 17.4042 135.49 15.7142 135.832 12.5942C136.217 9.08922 138.913 7.82422 141.254 7.82422C144.664 7.82422 145.204 10.2892 145.111 11.1342C145.043 11.7492 144.534 11.8042 144.267 11.8392L138.13 12.5592H138.124ZM142.391 10.9192C142.428 9.79422 141.646 9.13922 140.683 9.13922C139.174 9.13922 138.372 10.2492 138.13 11.4642L142.391 10.9192Z" fill="#BF2F38"/>
<path d="M71.4897 22.0391C71.6263 22.0391 71.6263 22.0191 71.645 21.8241C71.6574 21.7291 71.6201 21.7241 71.5145 21.7241H70.7381L70.8375 20.8441C70.8437 20.7591 70.8499 20.6641 70.7568 20.6641C70.7319 20.6641 70.6947 20.6791 70.5953 20.7441L70.1543 21.0391C70.0363 21.1241 70.0052 21.1591 69.9928 21.2891L69.9431 21.7191H69.4711C69.3344 21.7241 69.3344 21.7391 69.3158 21.9291C69.3034 22.0291 69.322 22.0341 69.44 22.0341H69.9121L69.645 24.5041C69.6201 24.7291 69.6015 24.9641 69.7816 25.1891C69.9493 25.3841 70.2537 25.5191 70.6822 25.5191C70.8872 25.5191 71.3841 25.4691 71.4027 25.2791C71.4027 25.2391 71.4027 25.1341 71.2412 25.1341C71.204 25.1341 71.0425 25.1391 71.0052 25.1391C70.7381 25.1391 70.5767 25.0391 70.4959 24.8891C70.4152 24.7541 70.4214 24.6741 70.4462 24.3691L70.7009 22.0291H71.4897V22.0391Z" fill="#00578E"/>
<path d="M73.0353 25.3337C73.0167 25.4487 72.967 25.4537 72.8614 25.4537H72.4018C72.2776 25.4537 72.2217 25.4487 72.2341 25.3337L72.5633 22.3237C72.5881 22.0687 72.6378 21.9837 72.8428 21.8887C73.1223 21.7587 73.7123 21.6387 74.29 21.6387C74.731 21.6387 75.203 21.7187 75.1657 22.0537C75.1471 22.2187 74.9918 22.3637 74.7682 22.3637C74.6067 22.3637 74.5508 22.3037 74.4142 22.1687C74.3086 22.0737 74.203 21.9887 73.9422 21.9887C73.4142 21.9887 73.3707 22.3037 73.3397 22.4937L73.0291 25.3287L73.0353 25.3337Z" fill="#00578E"/>
<path d="M78.5895 24.7004C78.546 25.0254 78.4777 25.2054 78.136 25.3504C77.782 25.4954 77.2354 25.5454 76.8504 25.5454C76.6081 25.5454 75.2852 25.5454 75.3908 24.5654C75.4839 23.7354 76.5087 23.5004 77.9746 23.1604L78.0118 22.7954C78.0429 22.5154 78.0988 22.0254 77.428 22.0254C76.9125 22.0254 76.7137 22.3504 76.6268 22.4954C76.5522 22.6304 76.4591 22.8054 76.192 22.8054C76.0678 22.8054 75.8442 22.7354 75.869 22.5054C75.9187 22.0704 76.633 21.6504 77.5895 21.6504C78.9062 21.6504 78.8317 22.4204 78.7944 22.8004L78.5895 24.7054V24.7004ZM77.9435 23.4954C76.9435 23.7504 76.2789 23.9154 76.2168 24.4654C76.2106 24.5254 76.1423 25.1504 77.0553 25.1504C77.751 25.1504 77.8007 24.8204 77.8193 24.6254L77.9435 23.4954Z" fill="#00578E"/>
<path d="M80.6819 25.3251C80.6695 25.4501 80.626 25.4551 80.4894 25.4551H80.0049C79.8683 25.4551 79.8745 25.4251 79.8869 25.3251L80.2658 21.8651C80.2782 21.7701 80.2782 21.7301 80.4335 21.7301H80.8993C81.0421 21.7301 81.0732 21.7501 81.0608 21.8651L80.6819 25.3251ZM80.7502 21.0851C80.4459 21.0851 80.2844 20.9151 80.3092 20.7101C80.3341 20.4851 80.5577 20.3301 80.8434 20.3301C81.0918 20.3301 81.2844 20.4751 81.2782 20.6901C81.2533 20.8901 81.0546 21.0851 80.7502 21.0851Z" fill="#00578E"/>
<path d="M85.7373 25.3087C85.7311 25.3737 85.7124 25.4387 85.613 25.4537H85.1224C84.9795 25.4537 84.9298 25.4387 84.9422 25.3087L85.2093 22.8887C85.2466 22.5487 85.3087 22.0087 84.259 22.0087C83.3025 22.0087 83.2404 22.4687 83.2218 22.6487L82.9299 25.3037C82.9174 25.4337 82.8491 25.4487 82.7249 25.4487H82.2901C82.1659 25.4537 82.1224 25.4337 82.1348 25.3137L82.4516 22.4137C82.4827 22.1387 82.551 22.0137 82.8678 21.8887C83.4951 21.6387 84.3336 21.6387 84.4329 21.6387C86.1348 21.6387 86.0602 22.3987 86.0106 22.8237L85.7373 25.3087Z" fill="#00578E"/>
<path d="M87.9729 25.3251C87.9605 25.4501 87.917 25.4551 87.7804 25.4551H87.2959C87.1593 25.4551 87.1655 25.4251 87.1779 25.3251L87.5568 21.8651C87.5692 21.7701 87.5692 21.7301 87.7245 21.7301H88.1903C88.3332 21.7301 88.3642 21.7501 88.3518 21.8651L87.9729 25.3251ZM88.0412 21.0851C87.7369 21.0851 87.5754 20.9151 87.6003 20.7101C87.6251 20.4851 87.8487 20.3301 88.1344 20.3301C88.3828 20.3301 88.5754 20.4751 88.5692 20.6901C88.5443 20.8901 88.3456 21.0851 88.0412 21.0851Z" fill="#00578E"/>
<path d="M93.0306 25.3087C93.0244 25.3737 93.0057 25.4387 92.9064 25.4537H92.4157C92.2728 25.4537 92.2232 25.4387 92.2356 25.3087L92.5026 22.8887C92.5399 22.5487 92.602 22.0087 91.5524 22.0087C90.5958 22.0087 90.5337 22.4687 90.5151 22.6487L90.2232 25.3037C90.2108 25.4337 90.1424 25.4487 90.0182 25.4487H89.5772C89.453 25.4537 89.4095 25.4337 89.422 25.3137L89.7387 22.4137C89.7698 22.1387 89.8381 22.0137 90.1549 21.8887C90.7822 21.6387 91.6207 21.6387 91.7201 21.6387C93.4219 21.6387 93.3474 22.3987 93.2977 22.8237L93.0244 25.3087H93.0306Z" fill="#00578E"/>
<path d="M97.6939 22.1787C97.8057 22.3237 97.961 22.5187 97.9113 22.9487C97.8181 23.8287 96.874 24.1737 96.166 24.1737C95.9424 24.1737 95.7933 24.1487 95.6256 24.1187C95.3958 24.2737 95.2343 24.4287 95.2157 24.5737C95.1908 24.8037 95.5821 24.8287 96.0977 24.8487L97.048 24.8887C97.4393 24.9087 98.4703 24.9737 98.3833 25.7587C98.3274 26.2487 97.5759 27.1537 95.607 27.1537C95.2405 27.1537 94.9859 27.1187 94.7933 27.0737C94.2405 26.9487 93.9424 26.6637 93.9797 26.3187C94.0232 25.9287 94.4766 25.5987 95.0294 25.3337C94.7933 25.2837 94.3586 25.1987 94.3958 24.8487C94.4269 24.5387 95.0169 24.1737 95.284 23.9987C95.1225 23.9187 94.8927 23.8037 94.7312 23.4887C94.6256 23.2887 94.5946 23.0737 94.6194 22.8687C94.7002 22.1387 95.4144 21.6387 96.3647 21.6387C96.6877 21.6387 96.8678 21.6887 97.0542 21.7387C97.2529 21.8037 97.3647 21.8387 97.5821 21.8387C97.7187 21.8387 98.4268 21.7387 98.4765 21.7387C98.5759 21.7387 98.5697 21.9387 98.5697 21.9637C98.5697 22.0137 98.5386 22.0237 98.4641 22.0337L97.6877 22.1787H97.6939ZM94.7995 26.0837C94.7499 26.5387 95.3834 26.7087 96.0169 26.7087C96.7063 26.7087 97.5883 26.3937 97.6442 25.9237C97.6877 25.5087 97.0976 25.4537 96.8119 25.4437C96.6132 25.4387 95.6505 25.4087 95.4331 25.3937C95.1225 25.6037 94.8368 25.7887 94.8058 26.0837H94.7995ZM96.8306 22.1237C96.7126 22.0437 96.5511 21.9887 96.3461 21.9887C95.9424 21.9887 95.4393 22.1837 95.371 22.7887C95.3026 23.4337 95.7747 23.7737 96.2405 23.7737C96.6318 23.7737 97.0914 23.5787 97.1597 22.9937C97.1722 22.9087 97.1722 22.8237 97.1597 22.7337C97.1038 22.3137 96.8803 22.1637 96.8306 22.1237Z" fill="#00578E"/>
<path d="M103.148 22.0495L102.794 25.3045C102.781 25.4345 102.713 25.4545 102.595 25.4545H102.129C101.986 25.4545 101.974 25.4195 101.986 25.2995L102.34 22.0545H101.837C101.713 22.0545 101.669 22.0545 101.682 21.9545C101.7 21.7545 101.707 21.7295 101.868 21.7295H102.377C102.439 21.4045 102.533 20.9295 102.781 20.5695C103.036 20.1995 103.483 19.8945 103.974 19.8945C104.203 19.8945 104.365 19.9945 104.346 20.1745C104.328 20.3245 104.197 20.4095 104.048 20.4245C104.005 20.4295 103.818 20.4245 103.769 20.4245C103.365 20.4245 103.154 20.7095 103.104 21.1795C103.067 21.5045 103.116 21.6245 103.16 21.7245H103.905C104.085 21.7195 104.079 21.7445 104.061 21.9545C104.048 22.0495 103.986 22.0495 103.874 22.0495H103.148Z" fill="#00578E"/>
<path d="M106.359 25.5387C105.005 25.5387 104.408 24.5587 104.514 23.5937C104.626 22.5887 105.477 21.6387 106.775 21.6387C108.178 21.6387 108.669 22.7337 108.601 23.5687C108.514 24.5337 107.675 25.5387 106.352 25.5387H106.359ZM106.675 22.0387C105.967 22.0387 105.445 22.6387 105.352 23.4937C105.241 24.5037 105.793 25.0987 106.439 25.0987C107.085 25.0987 107.7 24.5087 107.756 23.5137C107.812 22.5187 107.272 22.0387 106.675 22.0387Z" fill="#00578E"/>
<path d="M110.414 25.3337C110.389 25.4487 110.346 25.4537 110.24 25.4537H109.787C109.662 25.4537 109.606 25.4487 109.619 25.3337L109.948 22.3237C109.973 22.0687 110.023 21.9837 110.228 21.8887C110.507 21.7587 111.097 21.6387 111.675 21.6387C112.116 21.6387 112.588 21.7187 112.551 22.0537C112.532 22.2187 112.37 22.3637 112.153 22.3637C111.992 22.3637 111.936 22.3037 111.799 22.1687C111.693 22.0737 111.588 21.9887 111.327 21.9887C110.799 21.9887 110.756 22.3037 110.724 22.4937L110.414 25.3287V25.3337Z" fill="#00578E"/>
<path d="M116.178 20.0642C116.191 19.9542 116.253 19.9492 116.371 19.9492H116.818C116.948 19.9492 116.986 19.9542 116.973 20.0642L116.395 25.3242C116.383 25.4392 116.327 25.4542 116.209 25.4542H115.756C115.613 25.4542 115.588 25.4492 115.6 25.3242L116.178 20.0642Z" fill="#00578E"/>
<path d="M119.017 21.8651C119.029 21.7501 118.998 21.7301 118.855 21.7301H118.39C118.234 21.7301 118.234 21.7701 118.222 21.8651L117.843 25.3251C117.831 25.4251 117.831 25.4551 117.961 25.4551H118.446C118.576 25.4551 118.626 25.4501 118.638 25.3251L119.017 21.8651ZM119.234 20.6901C119.241 20.4751 119.054 20.3301 118.8 20.3301C118.514 20.3301 118.29 20.4851 118.265 20.7101C118.241 20.9101 118.402 21.0851 118.706 21.0851C119.011 21.0851 119.209 20.8901 119.234 20.6901Z" fill="#00578E"/>
<path d="M121.47 22.0495L121.116 25.3045C121.104 25.4345 121.036 25.4545 120.924 25.4545H120.458C120.315 25.4545 120.303 25.4195 120.315 25.2995L120.669 22.0545H120.166C120.042 22.0545 119.998 22.0545 120.004 21.9545C120.029 21.7545 120.029 21.7295 120.191 21.7295H120.7C120.762 21.4045 120.862 20.9295 121.104 20.5695C121.358 20.1995 121.806 19.8945 122.296 19.8945C122.526 19.8945 122.688 19.9945 122.669 20.1745C122.65 20.3245 122.52 20.4095 122.371 20.4245C122.327 20.4295 122.141 20.4245 122.091 20.4245C121.688 20.4245 121.477 20.7095 121.427 21.1795C121.39 21.5045 121.439 21.6245 121.483 21.7245H122.228C122.408 21.7195 122.408 21.7445 122.383 21.9545C122.371 22.0495 122.309 22.0495 122.197 22.0495H121.47Z" fill="#00578E"/>
<path d="M123.533 23.4748C123.495 24.4848 124.079 24.9498 124.756 24.9498C125.29 24.9498 125.725 24.7048 126.061 24.3148C126.203 24.1448 126.235 24.1048 126.34 24.1048C126.39 24.1048 126.514 24.1248 126.502 24.2798C126.483 24.4648 125.974 25.5398 124.576 25.5398C124.042 25.5398 123.334 25.3698 123.005 24.7048C122.812 24.3448 122.8 23.9348 122.837 23.5948C122.893 23.0748 123.061 22.6998 123.266 22.4348C123.377 22.2848 123.905 21.6348 125.005 21.6348C126.421 21.6348 126.613 22.6198 126.582 22.9148C126.564 23.1148 126.408 23.1298 126.297 23.1448L123.527 23.4698L123.533 23.4748ZM125.738 22.8548C125.738 22.3948 125.377 22.0498 124.868 22.0498C124.141 22.0498 123.731 22.4948 123.57 23.1198L125.738 22.8548Z" fill="#00578E"/>
<path d="M127.619 24.9602C127.644 24.7452 127.899 24.6152 128.147 24.6152C128.514 24.6152 128.762 24.8602 128.719 25.2652C128.656 25.8602 127.861 26.3352 127.638 26.3352C127.532 26.3352 127.483 26.2852 127.489 26.2202C127.489 26.1602 127.514 26.1402 127.712 25.9852C127.83 25.8702 128.011 25.7052 128.029 25.5452C128.029 25.4852 128.029 25.4152 127.861 25.3002C127.737 25.2202 127.601 25.1402 127.619 24.9602Z" fill="#00578E"/>
<path d="M133.601 25.3251C133.589 25.4501 133.539 25.4551 133.408 25.4551H132.924C132.794 25.4551 132.794 25.4251 132.806 25.3251L133.185 21.8651C133.197 21.7701 133.203 21.7301 133.353 21.7301H133.818C133.961 21.7301 133.992 21.7501 133.98 21.8651L133.601 25.3251ZM133.669 21.0851C133.365 21.0851 133.203 20.9151 133.228 20.7101C133.253 20.4851 133.477 20.3301 133.762 20.3301C134.011 20.3301 134.203 20.4751 134.197 20.6901C134.172 20.8901 133.974 21.0851 133.669 21.0851Z" fill="#00578E"/>
<path d="M138.656 25.3087C138.65 25.3737 138.631 25.4387 138.532 25.4537H138.041C137.898 25.4537 137.849 25.4387 137.861 25.3087L138.122 22.8887C138.159 22.5487 138.215 22.0087 137.172 22.0087C136.215 22.0087 136.159 22.4687 136.134 22.6487L135.842 25.3037C135.83 25.4337 135.768 25.4487 135.637 25.4487H135.196C135.072 25.4537 135.029 25.4337 135.041 25.3137L135.358 22.4137C135.389 22.1387 135.457 22.0137 135.774 21.8887C136.401 21.6387 137.24 21.6387 137.339 21.6387C139.041 21.6387 138.967 22.3987 138.917 22.8237L138.644 25.3087H138.656Z" fill="#00578E"/>
<path d="M142.93 22.6387C142.986 22.7537 143.104 22.8537 143.284 22.8537C143.421 22.8537 143.657 22.7837 143.681 22.5537C143.713 22.2737 143.278 21.6387 142.253 21.6387C140.973 21.6387 140.166 22.4737 140.042 23.6237C139.924 24.7087 140.532 25.5387 141.719 25.5387C142.905 25.5387 143.501 24.6687 143.539 24.3587C143.557 24.1987 143.408 24.1837 143.371 24.1837C143.265 24.1837 143.222 24.2337 143.091 24.3837C142.93 24.5687 142.588 24.9587 141.967 24.9587C141.296 24.9587 140.682 24.4487 140.8 23.3887C140.893 22.5337 141.489 22.0437 142.11 22.0437C142.638 22.0437 142.787 22.3387 142.942 22.6337L142.93 22.6387Z" fill="#00578E"/>
<path d="M144.719 25.4994C144.433 25.4994 144.184 25.3244 144.216 25.0494C144.247 24.7444 144.576 24.6094 144.818 24.6094C145.122 24.6094 145.358 24.8044 145.321 25.0694C145.284 25.3194 145.004 25.4944 144.719 25.4944V25.4994Z" fill="#00578E"/>
<path d="M0.000529187 9.56H7.36686C7.6712 8.8 9.31093 4.7 9.31093 4.7C9.42894 4.41 9.77055 4.225 10.1494 4.245C10.5221 4.265 10.8326 4.495 10.8948 4.79C10.8948 4.79 12.6401 13.33 13.3543 16.805C14.5096 14.12 16.3481 9.825 16.3481 9.825C16.4599 9.56 16.7704 9.385 17.1182 9.385H26.6274V6.12C26.6274 5.415 26.3168 5.365 25.2796 5.365H19.9567V1.085C19.9567 0.255 20.0747 0 19.0188 0H7.6153C6.73954 0 6.67743 0.25 6.67743 1.085V5.37H0.981879C-0.0553704 5.37 0.000529187 5.71 0.000529187 6.125V9.56Z" fill="#00578E"/>
<path d="M17.7021 10.6997C17.3605 11.5047 13.845 19.6847 13.845 19.6847C13.7208 19.9697 13.3792 20.1497 13.0065 20.1247C12.6339 20.0997 12.3295 19.8747 12.2736 19.5797C12.2736 19.5797 10.5656 11.2447 9.83887 7.67969C9.29229 9.04469 8.74572 10.4147 8.74572 10.4147C8.64013 10.6847 8.32337 10.8697 7.96933 10.8697H0.000529187V15.3047C0.000529187 15.7247 -0.0553704 16.0597 0.981879 16.0597H6.67122V20.6447C6.67122 21.4797 7.09357 21.4297 7.60909 21.4297H19.0188C19.5406 21.4297 19.9567 21.4747 19.9567 20.6447V16.0597H25.2796C26.3106 16.0597 26.6274 16.1597 26.6274 15.3047V10.6947H17.7021V10.6997Z" fill="#00578E"/>
</svg>
