<?xml version="1.0" encoding="utf-8"?>
<!-- Generator: Adobe Illustrator 27.1.1, SVG Export Plug-In . SVG Version: 6.00 Build 0)  -->
<svg version="1.1" id="Layer_1" xmlns:svgjs="http://svgjs.com/svgjs"
	 xmlns="http://www.w3.org/2000/svg" xmlns:xlink="http://www.w3.org/1999/xlink" x="0px" y="0px" viewBox="0 0 512 512"
	 style="enable-background:new 0 0 512 512;" xml:space="preserve">
<g>
	<g>
		<g>
			<path d="M77.4,512h357.3c37.5,0,67.9-30.4,67.9-67.9V105.8c0-37.5-30.4-67.9-67.9-67.9h-26.9V19c0-10.4-8.5-19-19-19
				c-10.4,0-19,8.5-19,19v19H142.2V19c0-10.4-8.5-19-19-19s-19,8.5-19,19v19H77.4c-37.5,0-67.9,30.4-67.9,67.9v338.3
				C9.5,481.6,39.9,512,77.4,512L77.4,512z M47.4,105.8c0-16.5,13.5-30,30-30h26.9v19c0,10.4,8.5,19,19,19s19-8.5,19-19v-19h227.6
				v19c0,10.4,8.5,19,19,19c10.4,0,19-8.5,19-19v-19h26.9c16.5,0,30,13.5,30,30v55.4H47.4L47.4,105.8z M47.4,199.1h417.2v245
				c0,16.5-13.5,30-30,30H77.4c-16.5,0-30-13.5-30-30L47.4,199.1z"/>
		</g>
	</g>
</g>
<g>
	<g id="Layer_1-2_00000150065100318162499510000009226272348573638785_">
		<g>
			<path d="M136,323.7h68.6c2.8-8.8,18.1-56.2,18.1-56.2c1.1-3.4,4.3-5.5,7.8-5.3c3.5,0.2,6.4,2.9,6.9,6.4c0,0,16.3,98.8,22.9,139
				c10.8-31.1,27.9-80.7,27.9-80.7c1-3.1,3.9-5.1,7.2-5.1H384V284c0-8.2-2.9-8.7-12.6-8.7h-49.6v-49.6c0-9.6,1.1-12.6-8.7-12.6
				H206.9c-8.2,0-8.7,2.9-8.7,12.6v49.6h-53c-9.7,0-9.1,3.9-9.1,8.7C136,284,136,323.7,136,323.7z"/>
			<path d="M300.8,336.9c-3.2,9.3-35.9,103.9-35.9,103.9c-1.2,3.3-4.3,5.4-7.8,5.1s-6.3-2.9-6.8-6.3c0,0-15.9-96.4-22.7-137.7
				c-5.1,15.8-10.2,31.6-10.2,31.6c-1,3.1-3.9,5.3-7.2,5.3H136v51.3c0,4.9-0.5,8.7,9.1,8.7h53v53c0,9.7,3.9,9.1,8.7,9.1h106.2
				c4.9,0,8.7,0.5,8.7-9.1v-53h49.6c9.6,0,12.6,1.2,12.6-8.7v-53.3L300.8,336.9L300.8,336.9z"/>
		</g>
	</g>
</g>
</svg>
