<svg width="17" height="17" viewBox="0 0 17 17" fill="none" xmlns="http://www.w3.org/2000/svg">
<path d="M15.4802 2.83335H14.6202V1.8889C14.6202 1.63842 14.5296 1.3982 14.3683 1.22108C14.207 1.04396 13.9883 0.944458 13.7602 0.944458C13.5321 0.944458 13.3134 1.04396 13.1521 1.22108C12.9908 1.3982 12.9002 1.63842 12.9002 1.8889V2.83335H12.0402C11.8121 2.83335 11.5933 2.93286 11.4321 3.10997C11.2708 3.28709 11.1802 3.52732 11.1802 3.7778C11.1802 4.02828 11.2708 4.2685 11.4321 4.44562C11.5933 4.62274 11.8121 4.72224 12.0402 4.72224H12.9002V5.66669C12.9002 5.91717 12.9908 6.1574 13.1521 6.33452C13.3134 6.51163 13.5321 6.61114 13.7602 6.61114C13.9883 6.61114 14.207 6.51163 14.3683 6.33452C14.5296 6.1574 14.6202 5.91717 14.6202 5.66669V4.72224H15.4802C15.7083 4.72224 15.927 4.62274 16.0883 4.44562C16.2496 4.2685 16.3402 4.02828 16.3402 3.7778C16.3402 3.52732 16.2496 3.28709 16.0883 3.10997C15.927 2.93286 15.7083 2.83335 15.4802 2.83335Z" fill="#3781D8"/>
<path d="M6.02009 7.55557C6.70046 7.55557 7.36555 7.33401 7.93125 6.9189C8.49696 6.50379 8.93787 5.91379 9.19824 5.22348C9.45861 4.53318 9.52673 3.7736 9.394 3.04078C9.26126 2.30796 8.93363 1.63482 8.45254 1.10649C7.97145 0.578157 7.3585 0.218358 6.6912 0.0725908C6.0239 -0.0731759 5.33223 0.00163684 4.70365 0.287569C4.07507 0.5735 3.53782 1.05771 3.15982 1.67896C2.78183 2.30022 2.58008 3.03061 2.58008 3.77779C2.58008 4.77972 2.94251 5.74061 3.58763 6.44909C4.23276 7.15756 5.10774 7.55557 6.02009 7.55557Z" fill="#3781D8"/>
<path d="M11.18 17C11.4081 17 11.6269 16.9005 11.7881 16.7233C11.9494 16.5462 12.04 16.306 12.04 16.0555C12.04 14.3021 11.4058 12.6206 10.2768 11.3808C9.14784 10.1409 7.61662 9.4444 6.02002 9.4444C4.42341 9.4444 2.89219 10.1409 1.76322 11.3808C0.63425 12.6206 2.37913e-08 14.3021 0 16.0555C0 16.306 0.0906071 16.5462 0.251889 16.7233C0.41317 16.9005 0.631915 17 0.860002 17" fill="#3781D8"/>
</svg>
