<svg width="100" height="101" viewBox="0 0 100 101" fill="none" xmlns="http://www.w3.org/2000/svg">
<g clip-path="url(#clip0_4073_40240)">
<path d="M20.7031 100.126H79.2969C84.1434 100.126 88.0859 96.1834 88.0859 91.3369V29.4229H67.5781C62.7316 29.4229 58.7891 25.4803 58.7891 20.6338V0.125977H20.7031C15.8566 0.125977 11.9141 4.06855 11.9141 8.91504V91.3369C11.9141 96.1834 15.8566 100.126 20.7031 100.126ZM32.4219 41.3369H67.5781C69.1975 41.3369 70.5078 42.6473 70.5078 44.2666C70.5078 45.8859 69.1975 47.1963 67.5781 47.1963H32.4219C30.8025 47.1963 29.4922 45.8859 29.4922 44.2666C29.4922 42.6473 30.8025 41.3369 32.4219 41.3369ZM32.4219 53.0557H67.5781C69.1975 53.0557 70.5078 54.366 70.5078 55.9854C70.5078 57.6047 69.1975 58.915 67.5781 58.915H32.4219C30.8025 58.915 29.4922 57.6047 29.4922 55.9854C29.4922 54.366 30.8025 53.0557 32.4219 53.0557ZM32.4219 64.7744H67.5781C69.1975 64.7744 70.5078 66.0848 70.5078 67.7041C70.5078 69.3234 69.1975 70.6338 67.5781 70.6338H32.4219C30.8025 70.6338 29.4922 69.3234 29.4922 67.7041C29.4922 66.0848 30.8025 64.7744 32.4219 64.7744ZM32.4219 76.4932H55.8594C57.4787 76.4932 58.7891 77.8035 58.7891 79.4229C58.7891 81.0422 57.4787 82.3525 55.8594 82.3525H32.4219C30.8025 82.3525 29.4922 81.0422 29.4922 79.4229C29.4922 77.8035 30.8025 76.4932 32.4219 76.4932Z" fill="#0C71C3"/>
<path d="M67.5781 23.5637H86.3693L64.6484 1.84277V20.634C64.6484 22.2504 65.9617 23.5637 67.5781 23.5637Z" fill="#0C71C3"/>
</g>
<defs>
<clipPath id="clip0_4073_40240">
<rect width="100" height="100" fill="white" transform="translate(0 0.125977)"/>
</clipPath>
</defs>
</svg>
