<svg width="100" height="100" viewBox="0 0 100 100" fill="none" xmlns="http://www.w3.org/2000/svg">
<path d="M75 68.7499H93.75C93.7498 69.5786 93.4205 70.3734 92.8344 70.9593L74.0844 89.7093C73.4985 90.2954 72.7038 90.6247 71.875 90.6249V71.8749C71.8758 71.0464 72.2053 70.252 72.7912 69.6661C73.3771 69.0802 74.1715 68.7507 75 68.7499ZM18.75 31.2499C18.755 27.1074 20.4028 23.136 23.332 20.2068C26.2611 17.2777 30.2325 15.6299 34.375 15.6249H71.3125L22.825 9.67178C20.4365 9.38637 18.0321 10.0576 16.1368 11.5389C14.2416 13.0203 13.0094 15.1913 12.7094 17.578L6.54377 67.7968C6.25412 70.186 6.92376 72.5926 8.40586 74.4889C9.88796 76.3852 12.0615 77.6163 14.45 77.9124L18.75 78.4374V31.2499ZM75 56.2499C74.994 58.4555 74.5167 60.6344 73.6 62.6405C71.6293 62.9399 69.8059 63.8617 68.3964 65.2713C66.9868 66.6808 66.065 68.5041 65.7656 70.4749C63.7595 71.3916 61.5806 71.8689 59.375 71.8749C56.2847 71.8749 53.2637 70.9585 50.6942 69.2416C48.1247 67.5247 46.122 65.0844 44.9394 62.2293C43.7568 59.3742 43.4473 56.2326 44.0502 53.2016C44.6531 50.1707 46.1413 47.3866 48.3265 45.2014C50.5117 43.0162 53.2958 41.528 56.3267 40.9251C59.3577 40.3222 62.4994 40.6317 65.3544 41.8143C68.2095 42.9969 70.6498 44.9996 72.3667 47.5691C74.0836 50.1386 75 53.1596 75 56.2499ZM68.75 53.1249H62.5V46.8749C62.5 46.0461 62.1708 45.2512 61.5847 44.6652C60.9987 44.0791 60.2038 43.7499 59.375 43.7499C58.5462 43.7499 57.7514 44.0791 57.1653 44.6652C56.5793 45.2512 56.25 46.0461 56.25 46.8749V53.1249H50C49.1712 53.1249 48.3764 53.4541 47.7903 54.0402C47.2043 54.6262 46.875 55.4211 46.875 56.2499C46.875 57.0787 47.2043 57.8736 47.7903 58.4596C48.3764 59.0457 49.1712 59.3749 50 59.3749H56.25V65.6249C56.25 66.4537 56.5793 67.2486 57.1653 67.8346C57.7514 68.4207 58.5462 68.7499 59.375 68.7499C60.2038 68.7499 60.9987 68.4207 61.5847 67.8346C62.1708 67.2486 62.5 66.4537 62.5 65.6249V59.3749H68.75C69.5788 59.3749 70.3737 59.0457 70.9597 58.4596C71.5458 57.8736 71.875 57.0787 71.875 56.2499C71.875 55.4211 71.5458 54.6262 70.9597 54.0402C70.3737 53.4541 69.5788 53.1249 68.75 53.1249ZM84.375 21.8749H34.375C31.8894 21.8774 29.5062 22.8659 27.7486 24.6235C25.991 26.3811 25.0025 28.7643 25 31.2499V81.2499C25.0025 83.7355 25.991 86.1187 27.7486 87.8763C29.5062 89.6339 31.8894 90.6224 34.375 90.6249H65.625V77.203C60.9516 78.6029 55.9447 78.4033 51.3976 76.6356C46.8506 74.868 43.0234 71.6335 40.5226 67.4446C38.0218 63.2558 36.9904 58.3522 37.5918 53.5108C38.1932 48.6695 40.393 44.1673 43.8427 40.7176C47.2924 37.2679 51.7946 35.0681 56.6359 34.4667C61.4773 33.8653 66.3809 34.8967 70.5697 37.3975C74.7586 39.8983 77.9931 43.7255 79.7607 48.2725C81.5284 52.8196 81.7281 57.8265 80.3281 62.4999H93.75V31.2499C93.7475 28.7643 92.759 26.3811 91.0014 24.6235C89.2438 22.8659 86.8607 21.8774 84.375 21.8749Z" fill="#0C71C3"/>
</svg>
