<svg width="100" height="100" viewBox="0 0 100 100" fill="none" xmlns="http://www.w3.org/2000/svg">
<path d="M93.75 53.125V62.5C93.7467 65.8142 92.4287 68.9917 90.0852 71.3351C87.7417 73.6786 84.5642 74.9967 81.25 75H78.125C76.4679 74.9983 74.8792 74.3393 73.7074 73.1676C72.5357 71.9958 71.8767 70.4071 71.875 68.75V46.875C71.8767 45.2179 72.5357 43.6291 73.7074 42.4574C74.8792 41.2856 76.4679 40.6266 78.125 40.625H81.25C84.5642 40.6283 87.7417 41.9463 90.0852 44.2898C92.4287 46.6333 93.7467 49.8108 93.75 53.125ZM53.125 75H46.875C44.9424 75.0057 43.0589 75.6096 41.4833 76.7286C39.9076 77.8477 38.717 79.4271 38.075 81.25H28.125C27.2965 81.2491 26.5021 80.9196 25.9162 80.3338C25.3303 79.7479 25.0008 78.9535 25 78.125V74.1312C25.947 73.587 26.7342 72.8034 27.2827 71.8588C27.8312 70.9143 28.1217 69.8422 28.125 68.75V46.875C28.1233 45.2179 27.4643 43.6291 26.2926 42.4574C25.1208 41.2856 23.5321 40.6266 21.875 40.625H18.75C15.4358 40.6283 12.2583 41.9463 9.91482 44.2898C7.57133 46.6333 6.25331 49.8108 6.25 53.125V62.5C6.25331 65.8142 7.57133 68.9917 9.91482 71.3351C12.2583 73.6786 15.4358 74.9967 18.75 75V78.125C18.7525 80.6106 19.741 82.9937 21.4986 84.7514C23.2562 86.509 25.6394 87.4975 28.125 87.5H38.075C38.717 89.3228 39.9076 90.9022 41.4833 92.0213C43.0589 93.1404 44.9424 93.7442 46.875 93.75H53.125C55.6114 93.75 57.996 92.7622 59.7541 91.0041C61.5123 89.2459 62.5 86.8614 62.5 84.375C62.5 81.8886 61.5123 79.504 59.7541 77.7458C57.996 75.9877 55.6114 75 53.125 75ZM20.1906 34.375C22.1862 28.0323 26.1529 22.4915 31.5139 18.5581C36.8749 14.6247 43.3508 12.5039 50 12.5039C56.6492 12.5039 63.1251 14.6247 68.4861 18.5581C73.8471 22.4915 77.8138 28.0323 79.8094 34.375C82.0518 34.2692 84.2968 34.5224 86.4594 35.125C84.5248 26.9081 79.8713 19.5856 73.2535 14.3449C66.6356 9.10422 58.4416 6.25269 50 6.25269C41.5584 6.25269 33.3644 9.10422 26.7465 14.3449C20.1287 19.5856 15.4752 26.9081 13.5406 35.125C15.7022 34.5227 17.9492 34.2695 20.1906 34.375Z" fill="#0C71C3"/>
</svg>
