<?xml version="1.0" encoding="UTF-8"?>
<svg id="Layer_2" data-name="Layer 2" xmlns="http://www.w3.org/2000/svg" viewBox="0 0 95 95">
  <defs>
    <style>
      .cls-1 {
        fill: #a02a68;
      }

      .cls-1, .cls-2 {
        stroke-width: 0px;
      }

      .cls-2 {
        fill: #dd372d;
      }
    </style>
  </defs>
  <g id="No_Pediatric" data-name="No Pediatric">
    <path class="cls-1" d="m69.51,48.13h0s-11.43-10.48-11.43-10.48c-1.24-1.14-2.72-1.95-4.29-2.46,2.61-1.89,4.33-4.94,4.33-8.4,0-5.73-4.66-10.38-10.38-10.38s-10.38,4.66-10.38,10.38c0,3.46,1.72,6.51,4.33,8.4-1.57.51-3.05,1.32-4.29,2.46l-11.43,10.48c-1.01.93-1.59,2.24-1.59,3.61,0,2.7,2.2,4.9,5,4.9,1.29,0,2.55-.52,3.47-1.44l4.65-4.65c.15,1.58.41,3.12.79,4.59l-4.67,6.49c-1.82,2.42-1.91,5.74-.23,8.26l4.49,6.73c.87,1.3,2.32,2.08,3.9,2.08,2.58,0,4.67-2.1,4.67-4.67v-.63c0-1.06-.36-2.09-1.02-2.92l-3.62-4.52,2.04-1.53c2.47,1.72,5.33,1.72,7.79,0l2.04,1.53-3.62,4.52c-.66.83-1.02,1.86-1.02,2.92v.63c0,2.58,2.1,4.67,4.68,4.67,1.56,0,3.02-.78,3.89-2.08l4.54-6.81c1.65-2.47,1.56-5.73-.21-8.09l-4.75-6.58c.38-1.47.65-3.01.79-4.59l4.65,4.65c.91.91,2.18,1.44,3.56,1.44,2.7,0,4.9-2.2,4.9-4.9,0-1.37-.58-2.68-1.59-3.61h0Zm-21.77,15.01c-2.71,0-5.3-3.07-6.71-7.79h13.42c-1.41,4.72-4,7.79-6.71,7.79Z"/>
    <path class="cls-2" d="m47.5,0C21.27,0,0,21.27,0,47.5s21.27,47.5,47.5,47.5,47.5-21.27,47.5-47.5S73.73,0,47.5,0ZM8.19,47.5c0-21.67,17.64-39.31,39.31-39.31,9.21,0,18.13,3.23,25.18,9.15l-55.34,55.34c-5.92-7.06-9.16-15.97-9.15-25.18Zm39.31,39.31c-8.81,0-17.36-2.96-24.27-8.43l55.16-55.16c5.46,6.91,8.43,15.47,8.43,24.28,0,21.67-17.64,39.31-39.31,39.31Z"/>
  </g>
</svg>