<svg width="25" height="25" viewBox="0 0 25 25" fill="none" xmlns="http://www.w3.org/2000/svg">
<g clip-path="url(#clip0_2121_10515)">
<path d="M24.7358 10.6367L22.6401 9.95557C22.3912 8.96195 21.9965 8.0107 21.4688 7.13281L22.4707 5.16797C22.5479 5.01709 22.5186 4.8335 22.3989 4.71387L20.2881 2.60352C20.2298 2.54513 20.1545 2.50673 20.073 2.49383C19.9915 2.48094 19.908 2.49421 19.8345 2.53174L17.8691 3.53271C16.9873 3.00391 16.04 2.61133 15.0469 2.36279L14.3638 0.266113C14.3383 0.187639 14.2886 0.11925 14.2218 0.0707444C14.1551 0.0222391 14.0747 -0.00389258 13.9922 -0.00390625H11.0078C10.8384 -0.00390625 10.6885 0.10498 10.6362 0.266113L10.1738 1.68555L9.95508 2.3623C8.9614 2.61077 8.01 3.00502 7.13184 3.53223L5.16602 2.53125C5.0925 2.49383 5.00904 2.48062 4.92756 2.49351C4.84608 2.50641 4.77077 2.54474 4.7124 2.60303L2.60107 4.71436C2.54268 4.77276 2.50428 4.84816 2.49139 4.92974C2.47849 5.01132 2.49176 5.09489 2.5293 5.16846L3.53125 7.1333C3.0039 8.01105 2.60964 8.96215 2.36133 9.95557L0.26416 10.6367C0.185568 10.6622 0.11707 10.712 0.0684783 10.7788C0.0198864 10.8457 -0.00630621 10.9262 -0.00634766 11.0088V13.9941C-0.00634766 14.1636 0.102539 14.314 0.26416 14.3662L2.36133 15.0474C2.61035 16.043 3.00342 16.9907 3.53125 17.8701L2.5293 19.8345C2.49176 19.908 2.47849 19.9916 2.49139 20.0732C2.50428 20.1548 2.54268 20.2302 2.60107 20.2886L4.71191 22.3994C4.77022 22.4578 4.84554 22.4962 4.92704 22.5091C5.00855 22.522 5.09204 22.5087 5.16553 22.4712L7.13135 21.4702C8.00956 21.9973 8.96094 22.3916 9.95459 22.6401L10.6362 24.7363C10.6617 24.8148 10.7114 24.8832 10.7782 24.9317C10.8449 24.9802 10.9253 25.0063 11.0078 25.0063H13.9922C14.1616 25.0063 14.3115 24.8975 14.3638 24.7363L15.0464 22.6401C16.0396 22.3916 16.9868 21.999 17.8687 21.4702L19.834 22.4712C19.9849 22.5478 20.168 22.519 20.2876 22.3994L22.3984 20.2886C22.4568 20.2302 22.4952 20.1548 22.5081 20.0732C22.521 19.9916 22.5077 19.908 22.4702 19.8345L21.4683 17.8696C21.9957 16.9918 22.39 16.0405 22.6382 15.0469L24.7354 14.3657C24.8139 14.3402 24.8824 14.2905 24.931 14.2236C24.9796 14.1568 25.0058 14.0763 25.0059 13.9937V11.0083C25.0059 10.8394 24.897 10.689 24.7358 10.6367ZM24.2241 13.71L22.1885 14.3711C22.1241 14.392 22.0663 14.4293 22.0206 14.4792C21.975 14.5292 21.9432 14.5902 21.9282 14.6562C21.6878 15.715 21.2691 16.7252 20.6899 17.6436C20.6539 17.7008 20.6333 17.7665 20.6303 17.8341C20.6272 17.9017 20.6417 17.969 20.6724 18.0293L21.645 19.937L19.936 21.646L18.0288 20.6743C17.9685 20.6436 17.9013 20.629 17.8337 20.632C17.7661 20.635 17.7004 20.6554 17.6431 20.6914C16.7192 21.272 15.7139 21.689 14.6558 21.9297C14.5898 21.9447 14.5288 21.9766 14.4788 22.0222C14.4289 22.0678 14.3916 22.1256 14.3706 22.1899L13.7085 24.2241H11.292L10.918 23.0762L10.6313 22.1904C10.6105 22.1259 10.5733 22.068 10.5233 22.0223C10.4733 21.9766 10.4123 21.9446 10.3462 21.9297C9.28711 21.689 8.28174 21.272 7.35742 20.6914C7.30009 20.6554 7.23442 20.635 7.16681 20.632C7.0992 20.629 7.03196 20.6436 6.97168 20.6743L5.06445 21.646L3.35547 19.937L4.32812 18.0293C4.35881 17.969 4.37333 17.9017 4.37024 17.8341C4.36716 17.7665 4.34659 17.7008 4.31055 17.6436C3.73135 16.7252 3.31261 15.715 3.07227 14.6562C3.05725 14.5903 3.02537 14.5293 2.97976 14.4793C2.93414 14.4294 2.87635 14.3921 2.81201 14.3711L0.776367 13.71V11.293L2.81201 10.6318C2.87639 10.6109 2.93423 10.5737 2.97986 10.5237C3.02548 10.4737 3.05733 10.4127 3.07227 10.3467C3.31279 9.28795 3.73151 8.27779 4.31055 7.35938C4.38379 7.24268 4.39062 7.09619 4.32812 6.97314L3.35547 5.06592L5.06445 3.35693L6.97168 4.32861C7.03196 4.35937 7.0992 4.37396 7.16681 4.37097C7.23442 4.36797 7.30009 4.34749 7.35742 4.31152C8.28174 3.73047 9.28711 3.31396 10.3462 3.07324C10.4122 3.05812 10.4732 3.02615 10.5231 2.98046C10.5731 2.93476 10.6104 2.87689 10.6313 2.8125L10.9175 1.92725L11.292 0.77832H13.7085L14.3706 2.8125C14.3915 2.87688 14.4288 2.93472 14.4788 2.98034C14.5288 3.02597 14.5897 3.05782 14.6558 3.07275C15.7139 3.31396 16.7192 3.73047 17.6431 4.31104C17.7003 4.34712 17.766 4.36767 17.8337 4.37066C17.9013 4.37366 17.9686 4.359 18.0288 4.32812L19.936 3.35645L21.645 5.06543L20.6724 6.97266C20.6416 7.03304 20.627 7.10038 20.6301 7.1681C20.6332 7.23581 20.6538 7.30156 20.6899 7.35889C21.2715 8.28174 21.6885 9.28662 21.9297 10.3462C21.9448 10.4121 21.9767 10.4731 22.0223 10.523C22.0679 10.573 22.1256 10.6103 22.1899 10.6313L24.2246 11.2925V13.71H24.2241ZM9.51416 10.6895C9.4698 10.6452 9.41549 10.6122 9.35577 10.5933C9.29605 10.5743 9.23265 10.57 9.1709 10.5806C9.10911 10.5913 9.05081 10.6167 9.00092 10.6547C8.95103 10.6927 8.91102 10.7421 8.88428 10.7988C8.16504 12.3223 8.48242 14.146 9.67432 15.3379C10.4409 16.1045 11.4697 16.5098 12.5122 16.5098C13.0894 16.5098 13.6714 16.3853 14.2144 16.1294C14.3296 16.0752 14.4111 15.9683 14.4331 15.8428C14.4551 15.7173 14.4146 15.5894 14.3242 15.499L9.51416 10.6895ZM10.2271 14.7847C9.40625 13.9639 9.10059 12.7695 9.39307 11.6738L13.3389 15.6196C12.2422 15.9116 11.0479 15.606 10.2271 14.7847ZM10.7969 8.88477C10.6816 8.93896 10.6001 9.0459 10.5781 9.17139C10.5562 9.29688 10.5967 9.4248 10.687 9.51514L15.4966 14.3247C15.5699 14.398 15.6693 14.4393 15.7729 14.4395C15.7954 14.4395 15.8179 14.4375 15.8398 14.4336C15.9016 14.4229 15.9599 14.3975 16.0098 14.3595C16.0597 14.3215 16.0997 14.272 16.1265 14.2153C16.8457 12.6919 16.5283 10.8682 15.3364 9.67627C14.1445 8.48535 12.3203 8.16699 10.7969 8.88477ZM15.6182 13.3398L11.6724 9.39404C12.7681 9.10303 13.9624 9.40869 14.7842 10.229C15.605 11.0503 15.9102 12.2441 15.6182 13.3398ZM7.94775 7.95019C5.43506 10.4629 5.43506 14.5513 7.94775 17.064C9.16504 18.2817 10.7837 18.9526 12.5054 18.9526C14.227 18.9526 15.8457 18.2817 17.063 17.064C19.5757 14.5513 19.5757 10.4629 17.063 7.95019C14.5498 5.43701 10.4609 5.43701 7.94775 7.95019ZM16.5103 16.5107C15.4409 17.5811 14.0186 18.1704 12.5059 18.1704C10.9932 18.1704 9.57031 17.5811 8.50098 16.5107C6.29346 14.3032 6.29346 10.7109 8.50098 8.50293C9.60498 7.39893 11.0552 6.84668 12.5054 6.84668C13.9556 6.84668 15.4058 7.39893 16.5098 8.50293C18.7178 10.7109 18.7178 14.3032 16.5103 16.5107Z" fill="#0C71C3"/>
</g>
<defs>
<clipPath id="clip0_2121_10515">
<rect width="25" height="25" fill="white"/>
</clipPath>
</defs>
</svg>
