<svg width="100" height="100" viewBox="0 0 100 100" fill="none" xmlns="http://www.w3.org/2000/svg">
<path d="M89.6999 11.45C77.7599 -0.490005 58.3399 -0.490005 46.3999 11.45C38.2499 19.6 35.4099 31.62 38.9399 42.52L4.4699 77C3.9499 77.52 3.6499 78.23 3.6499 78.97V94.72C3.6499 96.26 4.8899 97.5 6.4299 97.5H22.1799C22.9199 97.5 23.6299 97.21 24.1499 96.68L28.0899 92.74C28.6899 92.14 28.9799 91.3 28.8899 90.45L28.3999 86.22L34.2599 85.67C35.5899 85.55 36.6399 84.49 36.7699 83.16L37.3199 77.3L41.5499 77.79C42.3399 77.9 43.1299 77.63 43.7199 77.11C44.3099 76.58 44.6499 75.82 44.6499 75.03V69.85H49.7399C50.4799 69.85 51.1899 69.56 51.7099 69.03L58.8499 61.99C69.7499 65.52 81.5599 62.9 89.7099 54.75C101.65 42.81 101.65 23.39 89.7099 11.45H89.6999ZM81.8299 31.13C78.5699 34.39 73.2799 34.39 70.0199 31.13C66.7599 27.87 66.7599 22.58 70.0199 19.32C73.2799 16.06 78.5699 16.06 81.8299 19.32C85.0899 22.58 85.0899 27.87 81.8299 31.13Z" fill="#9F2B68"/>
</svg>
