<svg width="11" height="23" viewBox="0 0 11 23" fill="none" xmlns="http://www.w3.org/2000/svg">
<path d="M5.5 5.33594C6.83325 5.33594 7.91406 4.25513 7.91406 2.92188C7.91406 1.58863 6.83325 0.507812 5.5 0.507812C4.16675 0.507812 3.08594 1.58863 3.08594 2.92188C3.08594 4.25513 4.16675 5.33594 5.5 5.33594Z" fill="#0C71C3"/>
<path d="M7.0625 6.02976H3.9375C3.14351 5.99796 2.3692 6.28164 1.78368 6.81886C1.19816 7.35607 0.849015 8.10316 0.8125 8.89694V12.9985C0.824915 13.4615 0.982414 13.9089 1.26277 14.2775C1.54312 14.6462 1.93216 14.9175 2.375 15.0532V20.6469C2.34913 21.0904 2.49834 21.5263 2.79055 21.8609C3.08275 22.1954 3.4946 22.402 3.9375 22.436H7.0625C7.5054 22.402 7.91725 22.1954 8.20945 21.8609C8.50166 21.5263 8.65087 21.0904 8.625 20.6469V15.0532C9.06783 14.9175 9.45688 14.6462 9.73723 14.2775C10.0176 13.9089 10.1751 13.4615 10.1875 12.9985V8.89694C10.151 8.10316 9.80184 7.35607 9.21632 6.81886C8.6308 6.28164 7.85649 5.99796 7.0625 6.02976Z" fill="#0C71C3"/>
</svg>
