<svg width="234" height="212" viewBox="0 0 234 212" fill="none" xmlns="http://www.w3.org/2000/svg">
<g clip-path="url(#clip0_585_11384)">
<path d="M204.099 0H29.9013C13.4134 0 0 12.1527 0 27.0905V184.91C0 199.847 13.4134 212 29.9013 212H204.099C220.587 212 234 199.847 234 184.91V27.0905C234 12.1527 220.587 0 204.099 0ZM220.217 184.91C220.217 192.962 212.986 199.513 204.099 199.513H29.9013C21.0134 199.513 13.7827 192.962 13.7827 184.91V162.134L59.1453 127.166C60.8007 125.889 63.2156 125.877 64.8866 127.135L93.302 148.512C96.0419 150.573 100.064 150.404 102.582 148.12L170.098 86.8579C171.319 85.7503 172.741 85.6426 173.484 85.677C174.224 85.7113 175.63 85.9507 176.719 87.166L220.217 135.69L220.217 184.91ZM220.217 115.882L187.418 79.2925C184.165 75.6637 179.344 73.4452 174.19 73.2054C169.04 72.9694 163.991 74.7259 160.345 78.0342L97.2709 135.266L73.6926 117.528C66.8559 112.385 56.9822 112.438 50.2136 117.656L13.7827 145.738V27.0905C13.7827 19.0382 21.0134 12.4873 29.9013 12.4873H204.099C212.987 12.4873 220.217 19.0382 220.217 27.0905V115.882Z" fill="black"/>
<path d="M73.6616 26.084C55.3369 26.084 40.4294 39.5907 40.4294 56.1917C40.4294 72.7931 55.3373 86.2994 73.6616 86.2994C91.9858 86.2994 106.894 72.7931 106.894 56.1917C106.894 39.5903 91.9862 26.084 73.6616 26.084ZM73.6616 73.8126C62.9369 73.8126 54.2121 65.9077 54.2121 56.1917C54.2121 46.4753 62.9369 38.5709 73.6616 38.5709C84.3862 38.5709 93.111 46.4757 93.111 56.1917C93.111 65.9077 84.3862 73.8126 73.6616 73.8126Z" fill="black"/>
</g>
<defs>
<clipPath id="clip0_585_11384">
<rect width="234" height="212" fill="white"/>
</clipPath>
</defs>
</svg>
