<svg width="100" height="101" viewBox="0 0 100 101" fill="none" xmlns="http://www.w3.org/2000/svg">
<path d="M86.42 38.7262H61.14V13.4462C61.14 7.23625 55.92 2.15625 49.71 2.15625C43.5 2.15625 38.28 7.23625 38.28 13.4462V38.7262H13C6.79 38.7262 1.71 43.9463 1.71 50.1562C1.71 56.3662 6.79 61.5863 13 61.5863H38.28V86.8662C38.28 93.0762 43.5 98.1562 49.71 98.1562C55.92 98.1562 61.14 93.0762 61.14 86.8662V61.5863H86.42C92.63 61.5863 97.71 56.3662 97.71 50.1562C97.71 43.9463 92.63 38.7262 86.42 38.7262Z" fill="#0C71C3"/>
</svg>
