<svg width="25" height="25" viewBox="0 0 25 25" fill="none" xmlns="http://www.w3.org/2000/svg">
<path d="M10.6485 21.6175H6.43911V19.0946L6.67119 19.3268C6.70516 19.3609 6.74552 19.3879 6.78997 19.4063C6.83442 19.4247 6.88206 19.4342 6.93018 19.4341C7.00259 19.4341 7.07339 19.4126 7.1336 19.3724C7.19382 19.3322 7.24075 19.275 7.26847 19.2081C7.29619 19.1412 7.30345 19.0676 7.28933 18.9965C7.27522 18.9255 7.24036 18.8602 7.18916 18.809L6.33188 17.9515L6.33159 17.9512C6.32658 17.9461 6.3213 17.9413 6.31577 17.9368C6.24894 17.8771 6.16246 17.8441 6.07285 17.8441C5.97168 17.8441 5.88013 17.8851 5.81387 17.9515L5.81367 17.9516L4.95771 18.8092C4.9066 18.8605 4.87181 18.9257 4.85776 18.9967C4.8437 19.0677 4.85099 19.1413 4.87873 19.2082C4.90646 19.275 4.95338 19.3322 5.01357 19.3724C5.07375 19.4126 5.14451 19.4341 5.21689 19.4341C5.26506 19.4342 5.31276 19.4247 5.35725 19.4063C5.40174 19.3878 5.44214 19.3607 5.47612 19.3266L5.70664 19.0956V21.9837C5.70664 22.0808 5.74522 22.174 5.8139 22.2426C5.88258 22.3113 5.97573 22.3499 6.07285 22.3499H10.6484C10.7456 22.3499 10.8387 22.3113 10.9074 22.2426C10.9761 22.174 11.0147 22.0808 11.0147 21.9837C11.0147 21.8866 10.9761 21.7934 10.9074 21.7247C10.8388 21.6561 10.7456 21.6175 10.6485 21.6175ZM14.2119 3.93822H18.4199V6.46102L18.1877 6.22884C18.1191 6.16016 18.0259 6.12156 17.9288 6.12155C17.8317 6.12154 17.7385 6.16012 17.6698 6.2288C17.6011 6.29747 17.5625 6.39062 17.5625 6.48774C17.5625 6.58487 17.6011 6.67803 17.6698 6.74671L18.5271 7.60428L18.5273 7.60443C18.5613 7.63844 18.6016 7.66541 18.646 7.68379C18.6904 7.70217 18.738 7.71161 18.7861 7.71156C18.8771 7.71159 18.9648 7.67757 19.0319 7.6162C19.0342 7.61468 19.038 7.61136 19.0451 7.60428L19.9024 6.74671C19.9711 6.67803 20.0096 6.58487 20.0096 6.48774C20.0096 6.39062 19.971 6.29747 19.9023 6.2288C19.8337 6.16012 19.7405 6.12154 19.6434 6.12155C19.5462 6.12156 19.4531 6.16016 19.3844 6.22884L19.1523 6.46102V3.57201C19.1523 3.47488 19.1138 3.38174 19.0451 3.31306C18.9764 3.24438 18.8833 3.2058 18.7861 3.2058H14.2119C14.1148 3.20579 14.0216 3.24437 13.953 3.31304C13.8843 3.38171 13.8457 3.47486 13.8457 3.57198C13.8457 3.66911 13.8842 3.76226 13.9529 3.83094C14.0216 3.89962 14.1147 3.93821 14.2119 3.93822ZM23.2257 18.6709C23.0776 18.5867 22.9245 18.4996 22.7675 18.4054L21.5153 17.6536C22.0833 17.0737 22.5099 16.3569 22.6735 15.6383C22.7199 15.4335 22.7434 15.2318 22.7434 15.0387V12.0842C22.7434 10.775 21.7542 9.59227 20.2234 9.07098C18.8736 8.61136 17.5363 8.82635 16.8309 9.60052C16.1079 9.71888 15.0716 10.2835 15.1075 12.5535C15.1079 12.5749 15.1082 12.5925 15.1082 12.6057V15.0387C15.1082 15.2318 15.1316 15.4334 15.1782 15.639C15.3426 16.3574 15.7693 17.0738 16.3366 17.6534L15.084 18.4054C14.9271 18.4996 14.7739 18.5867 14.6258 18.6709C13.6737 19.2123 12.8515 19.6799 12.8515 21.0915V23.714C12.8515 23.8542 12.8693 24.058 13.0233 24.2091C13.1647 24.3479 13.3378 24.364 13.4794 24.364C13.5019 24.364 13.5235 24.3637 13.5442 24.3633C13.5661 24.3629 13.5892 24.3624 13.6132 24.3624H14.6697C14.7668 24.3624 14.86 24.3238 14.9286 24.2551C14.9973 24.1865 15.0359 24.0933 15.0359 23.9962C15.0359 23.8991 14.9973 23.8059 14.9286 23.7372C14.86 23.6686 14.7668 23.63 14.6697 23.63H13.6132C13.6033 23.63 13.5936 23.63 13.584 23.6301V21.0915C13.584 20.1059 14.0827 19.8223 14.9879 19.3076C15.08 19.2553 15.1718 19.2027 15.2634 19.1497L16.8157 20.1553C16.8207 20.1585 16.8257 20.1616 16.8308 20.1645C16.8866 20.197 16.9349 20.23 16.9815 20.2619C17.0802 20.3293 17.2368 20.4364 17.4243 20.4364C17.5282 20.4364 17.6416 20.4033 17.7598 20.3126L17.8557 20.6882L16.9743 22.5987C16.9102 22.7254 16.9169 22.8646 16.9923 22.9841L17.3726 23.63H16.2972C16.2 23.63 16.1069 23.6686 16.0382 23.7373C15.9695 23.806 15.931 23.8991 15.931 23.9962C15.931 24.0934 15.9695 24.1865 16.0382 24.2552C16.1069 24.3239 16.2 24.3624 16.2972 24.3624H18.0127L18.0134 24.3625L18.0142 24.3624H19.8332L19.8339 24.3625L19.8346 24.3624H24.2383C24.2624 24.3624 24.2854 24.3629 24.3073 24.3633C24.328 24.3637 24.3496 24.3641 24.3721 24.3641C24.5137 24.3641 24.6868 24.348 24.8282 24.2092C24.9822 24.058 25 23.8542 25 23.714V21.0915C25 19.6798 24.1777 19.2123 23.2257 18.6709ZM21.8872 18.7311L20.6447 19.536C20.5734 19.5778 20.5139 19.6182 20.465 19.6516L20.4627 19.6492L20.1709 19.3401C20.1688 19.3377 20.1665 19.3354 20.1643 19.333L19.667 18.8065C19.7516 18.7813 19.8353 18.7532 19.918 18.7222C20.2727 18.5898 20.6167 18.3967 20.9357 18.1599L21.8872 18.7311ZM17.051 10.3106C17.1014 10.3061 17.1504 10.2913 17.1948 10.267C17.2392 10.2427 17.2781 10.2094 17.309 10.1693C17.8643 9.44857 19.0543 9.44662 19.9873 9.76429C20.9208 10.0822 22.0109 10.8805 22.0109 12.0842V13.3584H21.7424C21.2491 13.3584 20.9354 13.064 20.5384 12.6913C20.0686 12.2503 19.4838 11.7014 18.4763 11.7014H17.6757C16.7706 11.7014 16.6169 12.4506 16.5251 12.8982C16.4087 13.4661 16.3349 13.6101 15.9293 13.6101H15.8406V12.6056C15.8406 12.5894 15.8403 12.568 15.8398 12.5418C15.8245 11.5739 16.0222 10.401 17.051 10.3106ZM15.8923 15.4765C15.858 15.3247 15.8405 15.1774 15.8405 15.0387V14.3426H15.9292C16.9765 14.3426 17.1431 13.5305 17.2426 13.0453C17.3516 12.5138 17.4083 12.4338 17.6757 12.4338H18.4763C19.1938 12.4338 19.5846 12.8006 20.0371 13.2253C20.4693 13.631 20.9591 14.0908 21.7424 14.0908H22.0109V15.0387C22.0109 15.1774 21.9935 15.3247 21.9592 15.4761C21.7178 16.5368 20.7302 17.6373 19.6615 18.0361C19.3839 18.14 19.1501 18.1885 18.9257 18.1885C18.7014 18.1885 18.4676 18.14 18.1896 18.0359C17.1227 17.6379 16.1351 16.5372 15.8923 15.4765ZM19.4917 19.6876L19.3213 20.3574H18.5271L18.3568 19.6907L18.9257 19.0882L19.4917 19.6876ZM17.3887 19.6492C17.388 19.65 17.3872 19.6508 17.3865 19.6516C17.3376 19.6182 17.278 19.5779 17.2068 19.5361L15.9643 18.7311L16.916 18.1598C17.2349 18.3967 17.5787 18.5898 17.9331 18.722C18.0159 18.7531 18.0997 18.7813 18.1844 18.8065L17.3887 19.6492ZM19.6249 23.63H18.2225L17.7081 22.7564L18.477 21.0897H19.3715L20.1393 22.7563L19.6249 23.63ZM24.2676 23.6301C24.2578 23.63 24.2481 23.63 24.2383 23.63H20.4748L20.8551 22.9841C20.9304 22.8648 20.9372 22.7259 20.8731 22.5988L19.993 20.6881L20.0891 20.3106C20.2083 20.4028 20.3226 20.4363 20.4273 20.4363C20.6148 20.4363 20.7714 20.3293 20.87 20.2619C20.9167 20.23 20.965 20.197 21.0208 20.1645C21.0259 20.1616 21.0309 20.1585 21.0358 20.1553L22.5882 19.1497C22.6798 19.2027 22.7716 19.2553 22.8636 19.3076C23.7689 19.8223 24.2676 20.1059 24.2676 21.0915V23.6301ZM10.3743 9.84139C10.2258 9.75697 10.0721 9.66961 9.91465 9.57508L8.66216 8.82313C9.23027 8.2431 9.65708 7.52601 9.82051 6.80716C9.86787 6.59955 9.89189 6.39813 9.89189 6.20838V3.25389C9.89189 1.94398 8.90176 0.76068 7.36934 0.239293C6.01997 -0.219838 4.68359 -0.00484772 3.97925 0.76898C3.2561 0.887877 2.21938 1.45321 2.25469 3.7225C2.25503 3.74364 2.25532 3.76092 2.25532 3.77396V6.20838C2.25532 6.39818 2.27935 6.59964 2.32666 6.80687C2.49009 7.52587 2.91689 8.2431 3.48501 8.82313L2.23252 9.57508C2.07505 9.66966 1.92144 9.75697 1.77285 9.84139C0.821533 10.3821 0 10.849 0 12.2612V14.8837C0 15.0236 0.0177734 15.227 0.17168 15.3782C0.313818 15.5178 0.487988 15.5336 0.630176 15.5336C0.652002 15.5336 0.673047 15.5332 0.693164 15.5329C0.714551 15.5325 0.736963 15.5321 0.760352 15.5321H1.91909C2.01622 15.5321 2.10936 15.4935 2.17804 15.4249C2.24672 15.3562 2.2853 15.263 2.2853 15.1659C2.2853 15.0688 2.24672 14.9756 2.17804 14.907C2.10936 14.8383 2.01622 14.7997 1.91909 14.7997H0.760303C0.750879 14.7997 0.741602 14.7997 0.732422 14.7998V12.2612C0.732422 11.2752 1.23052 10.9921 2.13477 10.4782C2.22741 10.4257 2.31981 10.3727 2.41196 10.3194L3.9644 11.3238C3.96875 11.3266 3.97319 11.3294 3.97764 11.332C4.03286 11.3645 4.08081 11.3974 4.12715 11.4294C4.22637 11.4977 4.38408 11.6063 4.57266 11.6063C4.67637 11.6063 4.78945 11.5732 4.90718 11.4827L5.00293 11.858L4.12295 13.7683C4.05874 13.895 4.06631 14.0372 4.14238 14.1551L4.52148 14.7997H3.60889C3.51176 14.7997 3.41861 14.8383 3.34994 14.907C3.28126 14.9757 3.24268 15.0688 3.24268 15.166C3.24268 15.2631 3.28126 15.3562 3.34994 15.4249C3.41861 15.4936 3.51176 15.5322 3.60889 15.5322H5.16133L5.16206 15.5322L5.16279 15.5322H6.98179L6.98252 15.5322L6.98325 15.5322H11.387C11.4104 15.5322 11.4328 15.5326 11.4542 15.5329C11.4743 15.5333 11.4953 15.5337 11.5171 15.5337C11.6593 15.5337 11.8335 15.5179 11.9756 15.3782C12.1294 15.227 12.1473 15.0236 12.1473 14.8838V12.2613C12.1472 10.849 11.3256 10.3821 10.3743 9.84139ZM9.03403 9.90067L7.79146 10.7046C7.72065 10.7465 7.66133 10.7869 7.61265 10.8202L7.61133 10.8188L6.8144 9.97489C6.89941 9.94967 6.98351 9.92152 7.06655 9.89046C7.42061 9.75834 7.76401 9.56561 8.08247 9.32933L9.03403 9.90067ZM4.1998 1.47889C4.25022 1.4744 4.29916 1.45951 4.34353 1.43518C4.38791 1.41084 4.42677 1.37758 4.45767 1.33749C5.01177 0.617467 6.20078 0.615465 7.1334 0.932701C8.06802 1.25072 9.15942 2.04945 9.15942 3.25394V4.52684H8.89097C8.39658 4.52684 8.08267 4.23255 7.68525 3.85995C7.21538 3.41942 6.63062 2.87118 5.62344 2.87118H4.82427C3.91841 2.87118 3.76475 3.6204 3.67295 4.06805C3.55649 4.63587 3.48271 4.77997 3.07642 4.77997H2.9877V3.77396C2.9877 3.75804 2.9874 3.7369 2.98696 3.71112C2.97192 2.7432 3.17012 1.57025 4.1998 1.47889ZM3.04077 6.64422C3.00557 6.49003 2.98774 6.34339 2.98774 6.20838V5.51229H3.07646C4.12441 5.51229 4.29097 4.70028 4.39048 4.21512C4.49951 3.68353 4.5563 3.6035 4.82432 3.6035H5.62354C6.34102 3.6035 6.73184 3.96991 7.18438 4.39418C7.61685 4.79964 8.10703 5.25917 8.89102 5.25917H9.15947V6.20838C9.15947 6.34339 9.14165 6.49003 9.1064 6.64452C8.86523 7.70541 7.87822 8.80589 6.81055 9.20423C6.52764 9.30975 6.30015 9.35682 6.07295 9.35682C5.84854 9.35682 5.6147 9.30838 5.33672 9.20423C4.26899 8.80589 3.28198 7.70541 3.04077 6.64422ZM6.63921 10.8562L6.46851 11.5271H5.67432L5.5041 10.8598L6.07305 10.2566L6.63921 10.8562ZM4.82646 10.5108L4.82588 10.5114L4.53574 10.819C4.53528 10.8195 4.53481 10.82 4.53433 10.8204C4.47622 10.7798 4.41673 10.7413 4.35596 10.7048L3.11313 9.90062L4.0647 9.32938C4.38311 9.56561 4.72632 9.75824 5.08022 9.89032C5.16311 9.92145 5.24707 9.94966 5.33193 9.97489L4.82646 10.5108ZM6.77305 14.7997H5.37114L4.85693 13.9253L5.62432 12.2595H6.51885L7.28691 13.9243L6.77305 14.7997ZM11.4147 14.7998C11.4055 14.7997 11.3962 14.7997 11.3869 14.7997H7.62236L7.99785 14.16C8.07769 14.0422 8.08721 13.8993 8.02187 13.769L7.14014 11.8578L7.23628 11.48C7.35532 11.5726 7.46958 11.6062 7.57427 11.6062C7.76221 11.6062 7.91938 11.4982 8.01826 11.4303C8.06494 11.3982 8.11314 11.365 8.16895 11.3324C8.17363 11.3296 8.17822 11.3268 8.18281 11.3238L9.73525 10.3194C9.82741 10.3727 9.91981 10.4257 10.0125 10.4782C10.9167 10.9921 11.4148 11.2752 11.4148 12.2612L11.4147 14.7998Z" fill="#0C71C3"/>
</svg>
