<?xml version="1.0" encoding="UTF-8"?>
<svg id="Layer_2" data-name="Layer 2" xmlns="http://www.w3.org/2000/svg" viewBox="0 0 439.29 42.87">
  <defs>
    <style>
      .cls-1 {
        fill: #00578e;
      }

      .cls-2 {
        fill: #bf2f38;
      }
    </style>
  </defs>
  <g id="Four_Color_Process_CMYK_Logo" data-name="Four Color Process (CMYK) Logo">
    <g>
      <path class="cls-2" d="m368.91,34.68c-5.39,0-8.27-3.54-8.04-6.09.13-1.51,1.33-2.38,2.73-2.38,1.29,0,2.11.73,2.4,1.72.41,1.33,1.37,3.15,3.44,3.15s3.2-1.33,3.35-3.05c.48-5.53-11.08-4.24-10.38-12.22.39-4.45,4.21-6.97,9.01-6.97,5.6,0,7.69,3.33,7.53,5.18-.13,1.47-1.25,2.31-2.65,2.31-1.16,0-1.9-.7-2.24-1.65-.46-1.19-1.14-2.56-3-2.56-1.75,0-3.07,1.12-3.24,3.05-.44,5.04,11.37,3.68,10.62,12.25-.37,4.24-3.89,7.25-9.52,7.25Z"/>
      <path class="cls-2" d="m395.55,33.38c-1.03.59-3.6,1.19-6.54,1.19-2.59,0-7.7-.46-7.25-5.57l1.08-12.29c.04-.49.27-.74.76-.74h3.71c.49,0,.71.25.67.74l-1.07,12.18c-.15,1.71.79,2.56,2.37,2.56,2.1,0,2.69-.77,2.79-1.93l1.12-12.81c.04-.49.27-.74.76-.74h3.75c.49,0,.68.25.64.74l-1.23,14.07c-.11,1.3-.6,2.07-1.56,2.59Z"/>
      <path class="cls-2" d="m405.6,34.12h-3.71c-.49,0-.68-.25-.64-.73l1.46-16.66c.04-.49.27-.74.76-.74h3.71c.49,0,.71.25.67.74l-1.46,16.66c-.04.49-.31.73-.8.73Zm-.05-20.62c-1.72,0-2.71-.98-2.61-2.21.11-1.23,1.27-2.17,2.99-2.17s2.75.95,2.65,2.17c-.11,1.23-1.31,2.21-3.03,2.21Z"/>
      <path class="cls-2" d="m416.9,34.57c-2.07,0-5.12-.74-4.71-5.32l.92-10.47h-1.72c-.49,0-.71-.25-.67-.74l.12-1.33c.04-.49.31-.74.8-.74h1.72l.2-2.31c.05-.52.18-.84.58-1.02l3.53-1.51c.18-.07.37-.17.54-.17.46,0,.68.28.64.73l-.37,4.27h2.7c.49,0,.71.25.67.74l-.12,1.33c-.04.49-.31.74-.8.74h-2.7l-.93,10.61c-.18,2.07.76,2.52,1.81,2.52.28,0,.49-.04.7-.04.63,0,.95.35.9.91-.09,1.05-1.73,1.79-3.8,1.79Z"/>
      <path class="cls-2" d="m431.04,34.57c-4.69,0-8.22-2.87-7.62-9.66.57-6.51,4.78-9.38,9.26-9.38s6.93,3.26,6.59,7.11c-.09,1.02-.53,1.29-1.42,1.44l-9.76,1.58c.08,2.7,1.35,4.94,4.33,4.94,2.03,0,3.55-1.4,4.34-2.42.28-.35.65-.63,1.14-.63.56,0,.97.49.92,1.12-.23,2.59-3.46,5.92-7.76,5.92Zm.83-16.31c-2.45,0-3.62,2.56-3.89,4.9l6.54-1.08c.1-1.89-.47-3.82-2.64-3.82Z"/>
    </g>
    <g>
      <path class="cls-2" d="m253.98,34.35c-5.39,0-8.27-3.54-8.04-6.09.13-1.51,1.33-2.38,2.73-2.38,1.29,0,2.11.73,2.4,1.72.41,1.33,1.37,3.15,3.44,3.15s3.2-1.33,3.35-3.05c.48-5.53-11.08-4.24-10.38-12.22.39-4.45,4.21-6.97,9.01-6.97,5.6,0,7.69,3.33,7.53,5.18-.13,1.47-1.25,2.31-2.65,2.31-1.16,0-1.9-.7-2.24-1.65-.46-1.19-1.14-2.56-3-2.56-1.75,0-3.07,1.12-3.24,3.05-.44,5.04,11.37,3.68,10.62,12.25-.37,4.24-3.89,7.25-9.52,7.25Z"/>
      <path class="cls-2" d="m279.97,34.06c-.92.56-3.46,1.12-5.8,1.12-4.09,0-7.9-1.26-7.58-5.01.42-4.8,6.33-5.92,10.74-6.72l.2-2.31c.13-1.51-.7-2.38-1.96-2.38-1.61,0-2.53,1.3-2.93,2.31-.36.88-1.28,1.47-2.4,1.47-1.23,0-2.14-.7-2.03-2,.15-1.72,2.59-4.41,8.3-4.41,3.57,0,6.25,1.75,5.93,5.5l-.84,9.56c-.13,1.51-.51,2.21-1.62,2.87Zm-2.83-8.4c-2.74.53-5.37,1.33-5.61,4.1-.14,1.58.84,2.77,2.73,2.77,1.16,0,2.31-.42,2.43-1.72l.45-5.15Z"/>
      <path class="cls-2" d="m294.98,11.67c-.56,0-.75-.25-1.41-.25-1.19,0-1.66,1.4-1.75,2.45-.1,1.12.16,2.17.55,2.91h2.91c.49,0,.71.25.67.74l-.12,1.33c-.04.49-.31.74-.8.74h-2.66l-1.28,14.6c-.04.49-.28.73-.76.73h-3.68c-.49,0-.71-.25-.67-.73l1.28-14.6h-1.79c-.49,0-.71-.25-.67-.74l.12-1.33c.04-.49.31-.74.8-.74h1.79c.64-7.28,4.42-8.96,7.15-8.96,1.82,0,2.47,1.02,2.38,2.03-.09,1.08-.82,1.82-2.05,1.82Z"/>
      <path class="cls-2" d="m304.75,34.1c-4.69,0-8.22-2.87-7.62-9.66.57-6.51,4.78-9.38,9.26-9.38s6.93,3.26,6.59,7.11c-.09,1.02-.53,1.29-1.42,1.44l-9.76,1.58c.08,2.7,1.35,4.94,4.33,4.94,2.03,0,3.55-1.4,4.34-2.42.28-.35.65-.63,1.14-.63.56,0,.97.49.92,1.12-.23,2.59-3.46,5.92-7.76,5.92Zm.83-16.31c-2.45,0-3.62,2.56-3.89,4.9l6.54-1.08c.1-1.89-.47-3.82-2.64-3.82Z"/>
      <path class="cls-2" d="m321.58,34.73c-2.07,0-5.12-.74-4.71-5.32l.92-10.47h-1.72c-.49,0-.71-.25-.67-.74l.12-1.33c.04-.49.31-.74.8-.74h1.72l.2-2.31c.05-.52.18-.84.58-1.02l3.53-1.51c.18-.07.37-.17.54-.17.46,0,.68.28.64.73l-.37,4.27h2.7c.49,0,.71.25.67.74l-.12,1.33c-.04.49-.31.74-.8.74h-2.7l-.93,10.61c-.18,2.07.76,2.52,1.81,2.52.28,0,.49-.04.7-.04.63,0,.95.35.9.91-.09,1.05-1.73,1.79-3.8,1.79Z"/>
      <path class="cls-2" d="m346.8,17.12l-8.34,19.25c-1.49,3.43-3.68,6.06-7.71,6.06-2.62,0-3.65-1.08-3.52-2.56.11-1.26,1.05-1.96,2.13-1.96,1.23,0,1.52.6,2.4.6,1.08,0,1.92-1.19,2.32-2.14l.66-1.51-4.99-17.75c-.05-.21-.1-.42-.09-.59.04-.49.31-.74.8-.74h3.81c.49,0,.72.17.82.67l2.11,9.52c.4,1.82.36,3.89.36,3.89h.07s.42-2.03,1.11-3.89l3.6-9.52c.18-.49.44-.67.97-.67h3.01c.49,0,.71.25.67.74-.02.17-.1.38-.19.59Z"/>
    </g>
    <g>
      <path class="cls-2" d="m183.91,34.82c-6.2,0-10.52-4.59-9.78-13.02.71-8.09,5.64-12.81,12.04-12.81s10.47,4.73,9.77,12.81c-.74,8.44-5.83,13.02-12.03,13.02Zm1.89-22.37c-3.29,0-5.34,3.4-5.83,9-.54,6.16,1.26,9.56,4.34,9.56s5.34-3.43,5.84-9.1c.53-6.02-1.13-9.45-4.35-9.45Z"/>
      <path class="cls-2" d="m213.9,34.75h-3.75c-.49,0-.68-.25-.64-.73l1.07-12.25c.13-1.51-.45-2.87-2.69-2.87s-2.68,1.05-2.78,2.14l-1.14,12.99c-.04.49-.31.73-.8.73h-3.71c-.49,0-.68-.25-.64-.73l1.27-14.56c.11-1.23.47-1.72,1.63-2.24,1.31-.6,3.84-1.05,6.53-1.05,4.38,0,7.82,1.44,7.48,5.36l-1.09,12.5c-.04.49-.27.73-.76.73Z"/>
      <path class="cls-2" d="m225.85,34.52c-4.69,0-8.22-2.87-7.62-9.66.57-6.51,4.78-9.38,9.26-9.38s6.93,3.26,6.59,7.11c-.09,1.02-.53,1.29-1.42,1.44l-9.76,1.58c.08,2.7,1.35,4.94,4.33,4.94,2.03,0,3.55-1.4,4.34-2.42.28-.35.65-.63,1.14-.63.56,0,.97.49.92,1.12-.23,2.59-3.46,5.92-7.76,5.92Zm.83-16.31c-2.45,0-3.62,2.56-3.89,4.9l6.54-1.08c.1-1.89-.47-3.82-2.64-3.82Z"/>
    </g>
    <g>
      <path class="cls-2" d="m73.16,34.41h-4.27c-.56,0-.86-.21-1-.6l-2.48-7.25c-.36-1.08-1.11-2.49-2.41-2.49h-1.09l-.84,9.59c-.04.49-.27.73-.76.73h-3.96c-.49,0-.71-.25-.67-.73l1.99-22.79c.04-.49.24-.73.81-.91.75-.21,3.55-.6,6.63-.6,7.07,0,9.57,3.01,9.2,7.25-.33,3.78-3.47,5.71-5.77,6.37v.07c.79.46,1.94,1.79,2.48,3.15l2.72,6.9c.05.18.18.39.16.56-.04.49-.27.73-.76.73Zm-8.23-21.91c-.91,0-1.58.07-2.01.14l-.78,8.93c.31.04.9.07,1.5.07,3.04,0,4.95-1.72,5.18-4.41.27-3.12-.95-4.73-3.89-4.73Z"/>
      <path class="cls-2" d="m83.37,34.56c-4.69,0-8.22-2.87-7.62-9.66.57-6.51,4.78-9.38,9.26-9.38s6.93,3.26,6.59,7.11c-.09,1.02-.53,1.29-1.42,1.44l-9.76,1.58c.08,2.7,1.35,4.94,4.33,4.94,2.03,0,3.55-1.4,4.34-2.42.28-.35.65-.63,1.14-.63.56,0,.97.49.92,1.12-.23,2.59-3.46,5.92-7.76,5.92Zm.83-16.31c-2.45,0-3.62,2.56-3.89,4.9l6.54-1.08c.1-1.89-.47-3.82-2.64-3.82Z"/>
      <path class="cls-2" d="m99.75,34.97c-5.01,0-7.01-2.73-6.85-4.52.11-1.3,1.05-2,2.28-2,1.05,0,1.91.56,2.19,1.37.45,1.26,1.02,2.31,2.6,2.31,1.19,0,2.24-.84,2.36-2.17.34-3.89-8.77-2.98-8.26-8.75.3-3.43,3.33-5.29,7.36-5.29,4.48,0,6.31,2.28,6.17,3.96-.11,1.23-1,1.82-2.08,1.82-.98,0-1.74-.52-2.05-1.36-.37-1.02-.95-2-2.28-2s-2.21.81-2.32,2.07c-.34,3.85,8.97,2.7,8.43,8.89-.29,3.36-3.12,5.67-7.53,5.67Z"/>
      <path class="cls-2" d="m116.8,34.52c-4.38,0-7.85-3.05-7.29-9.49.52-5.99,3.99-9.56,9.13-9.56,4.62,0,6.54,2.84,6.39,4.59-.12,1.33-.96,2.21-2.5,2.21-1.23,0-1.78-.84-1.98-1.75-.18-.77-.67-2.31-2.42-2.31s-3.42,1.89-3.73,5.43c-.31,3.57.84,6.76,4.03,6.76,1.96,0,2.98-1.3,3.78-2.38.32-.42.76-.67,1.25-.67.63,0,.97.49.91,1.16-.23,2.66-3.29,6.02-7.56,6.02Z"/>
      <path class="cls-2" d="m140.88,33.56c-1.03.59-3.6,1.19-6.54,1.19-2.59,0-7.7-.46-7.25-5.57l1.07-12.29c.04-.49.27-.74.76-.74h3.71c.49,0,.71.25.67.74l-1.07,12.18c-.15,1.71.79,2.56,2.37,2.56,2.1,0,2.69-.77,2.79-1.93l1.12-12.81c.04-.49.27-.74.76-.74h3.75c.49,0,.68.25.63.74l-1.23,14.07c-.11,1.3-.6,2.07-1.56,2.59Z"/>
      <path class="cls-2" d="m153.5,34.52c-4.69,0-8.22-2.87-7.62-9.66.57-6.51,4.78-9.38,9.26-9.38s6.93,3.26,6.59,7.11c-.09,1.02-.53,1.29-1.42,1.44l-9.76,1.58c.08,2.7,1.35,4.94,4.33,4.94,2.03,0,3.55-1.4,4.34-2.42.28-.35.65-.63,1.14-.63.56,0,.97.49.92,1.12-.23,2.59-3.46,5.92-7.76,5.92Zm.83-16.31c-2.45,0-3.62,2.56-3.89,4.9l6.54-1.08c.1-1.89-.47-3.82-2.64-3.82Z"/>
    </g>
    <g>
      <path class="cls-1" d="m0,19.12h11.86c.49-1.52,3.13-9.72,3.13-9.72.19-.58.74-.95,1.35-.91.6.04,1.1.5,1.2,1.09,0,0,2.81,17.08,3.96,24.03,1.86-5.37,4.82-13.96,4.82-13.96.18-.53.68-.88,1.24-.88h15.31v-6.53c0-1.41-.5-1.51-2.17-1.51h-8.57V2.17c0-1.66.19-2.17-1.51-2.17H12.26c-1.41,0-1.51.5-1.51,2.17v8.57H1.58C-.09,10.74,0,11.42,0,12.25v6.87Z"/>
      <path class="cls-1" d="m28.5,21.4c-.55,1.61-6.21,17.97-6.21,17.97-.2.57-.75.93-1.35.88-.6-.05-1.09-.5-1.18-1.09,0,0-2.75-16.67-3.92-23.8-.88,2.73-1.76,5.47-1.76,5.47-.17.54-.68.91-1.25.91H0v8.87c0,.84-.09,1.51,1.58,1.51h9.17v9.17c0,1.67.68,1.57,1.51,1.57h18.37c.84,0,1.51.09,1.51-1.57v-9.17h8.57c1.66,0,2.17.2,2.17-1.51v-9.22h-14.37Z"/>
    </g>
  </g>
</svg>