<svg width="23" height="25" viewBox="0 0 23 25" fill="none" xmlns="http://www.w3.org/2000/svg">
<g clip-path="url(#clip0_1596_17658)">
<path d="M19.0349 0H4.97043C3.32796 0 1.99462 1.33333 1.99462 2.97581V4.26075H0.594086C0.266129 4.26075 0 4.52688 0 4.85484C0 5.1828 0.266129 5.44893 0.594086 5.44893H1.98656V9.35484H0.594086C0.266129 9.35484 0 9.62097 0 9.94893C0 10.2769 0.266129 10.543 0.594086 10.543H1.98656V14.4489H0.594086C0.266129 14.4489 0 14.7151 0 15.043C0 15.371 0.266129 15.6371 0.594086 15.6371H1.98656V19.543H0.594086C0.266129 19.543 0 19.8091 0 20.1371C0 20.4651 0.266129 20.7312 0.594086 20.7312H1.98656V22.0161C1.98656 23.6586 3.31989 24.9919 4.96237 24.9919H19.0269C20.6694 24.9919 22.0027 23.6586 22.0027 22.0161V2.97581C22.0027 1.33333 20.6747 0 19.0323 0H19.0349ZM20.8199 22.0242C20.8172 23.0081 20.0188 23.8065 19.0349 23.8091H4.97043C3.98656 23.8065 3.18817 23.0081 3.18548 22.0242V20.7392H4.57796C4.90591 20.7392 5.17204 20.4731 5.17204 20.1452C5.17204 19.8172 4.90591 19.5511 4.57796 19.5511H3.18548V15.6452H4.57796C4.90591 15.6452 5.17204 15.379 5.17204 15.0511C5.17204 14.7231 4.90591 14.457 4.57796 14.457H3.18548V10.5511H4.57796C4.90591 10.5511 5.17204 10.2849 5.17204 9.95699C5.17204 9.62903 4.90591 9.3629 4.57796 9.3629H3.18548V5.45699H4.57796C4.90591 5.45699 5.17204 5.19086 5.17204 4.8629C5.17204 4.53495 4.90591 4.26882 4.57796 4.26882H3.18548V2.98387C3.18817 2 3.98656 1.20161 4.97043 1.19892H19.0349C20.0188 1.20161 20.8172 2 20.8199 2.98387V22.0323V22.0242Z" fill="#0C71C3"/>
<path d="M15.8315 10.4517C15.7213 10.3415 15.5224 10.3415 15.4122 10.4517L9.76971 16.0995C9.7025 16.1667 9.67025 16.2635 9.68638 16.3576C9.7025 16.4517 9.76164 16.5323 9.84767 16.5753L10.31 16.8065V17.5861L8.89068 17.992L7.45788 16.5592L7.86379 15.1398H8.64336L8.87455 15.6022C8.91756 15.6882 8.9982 15.7474 9.09229 15.7635C9.10842 15.7635 9.12455 15.7662 9.14068 15.7662C9.21863 15.7662 9.2939 15.7366 9.35035 15.6802L14.9928 10.0323C15.0493 9.97587 15.0788 9.9006 15.0788 9.82264C15.0788 9.74469 15.0466 9.66942 14.9928 9.61297L13.9014 8.52157C13.845 8.46512 13.7697 8.43555 13.6918 8.43555C13.6138 8.43555 13.5358 8.4678 13.4821 8.52426L7.431 14.6345C7.431 14.6345 7.42831 14.6425 7.42562 14.6452C7.39605 14.6775 7.36917 14.7151 7.35573 14.7635L6.8396 16.5673L6.16756 18.9194C6.13799 19.0243 6.16756 19.1345 6.24283 19.2097C6.29928 19.2662 6.37455 19.2958 6.4525 19.2958C6.47939 19.2958 6.50627 19.2931 6.53315 19.285L8.8853 18.613L10.6864 18.0968C10.6864 18.0968 10.6944 18.0915 10.6998 18.0888C10.7186 18.0834 10.7348 18.0726 10.7509 18.0619C10.767 18.0511 10.7858 18.0431 10.7993 18.0296C10.802 18.0269 10.8073 18.0243 10.8127 18.0216L16.9202 11.9651C16.9767 11.9087 17.009 11.8334 17.009 11.7554C17.009 11.6775 16.9767 11.6022 16.9229 11.5458L15.8315 10.4544V10.4517Z" fill="#0C71C3"/>
<path d="M18.8629 8.36016L17.0833 6.5779C16.6344 6.12898 15.8548 6.12898 15.4032 6.5779L14.3172 7.67468C14.2016 7.79027 14.2016 7.97844 14.3172 8.09403L17.3467 11.1263C17.4059 11.1854 17.4811 11.2123 17.5564 11.2123C17.6317 11.2123 17.7069 11.1827 17.7661 11.1263L18.8629 10.0376C19.086 9.81446 19.2096 9.51608 19.2096 9.19887C19.2096 8.88167 19.086 8.58328 18.8629 8.36016Z" fill="#0C71C3"/>
</g>
<defs>
<clipPath id="clip0_1596_17658">
<rect width="22.0054" height="25" fill="white"/>
</clipPath>
</defs>
</svg>
