<svg width="25" height="25" viewBox="0 0 25 25" fill="none" xmlns="http://www.w3.org/2000/svg">
<path d="M22.2114 21.0157L21.8006 20.851C23.8662 18.5532 25 15.6019 25 12.5C25 9.96235 24.2328 7.52065 22.835 5.46807C22.8181 5.43472 22.7971 5.40469 22.7727 5.37847C22.1603 4.4959 21.4313 3.68643 20.5948 2.97485C20.4288 2.83359 20.1797 2.85371 20.0384 3.01978C19.8972 3.18584 19.9173 3.43501 20.0833 3.57622C20.7544 4.14707 21.3517 4.78516 21.8699 5.47573C21.0343 5.80229 20.0314 6.07886 18.9118 6.29736C18.6027 5.37646 18.2228 4.51787 17.7762 3.74321C17.1743 2.69902 16.482 1.8582 15.7274 1.23979C16.9018 1.57554 18.0205 2.09575 19.0471 2.78926C19.2278 2.91118 19.4731 2.86377 19.5952 2.68311C19.7172 2.50249 19.6697 2.25713 19.489 2.13506C17.4217 0.738281 15.0049 0 12.5 0C9.16108 0 6.02212 1.3002 3.66123 3.66123C1.3002 6.02212 0 9.16118 0 12.5C0 15.6059 1.13535 18.5576 3.2043 20.8562L2.79873 21.015C2.64937 21.069 1.3793 21.5756 1.3793 23.1905V24.6049C1.3793 24.8229 1.55596 25 1.77402 25H4.04473H4.39819H4.81924H6.83887H7.58428C7.60332 25 7.62192 24.9982 7.64023 24.9956C7.65859 24.9982 7.67715 25 7.69619 25H9.30234C9.52041 25 9.69707 24.8233 9.69707 24.6053C9.69707 24.3872 9.52036 24.2105 9.30234 24.2105H8.09092V22.8358C8.09092 21.3854 9.23018 20.9682 9.27617 20.952C9.28228 20.95 9.28833 20.9478 9.29438 20.9454L11.2167 20.1925C11.2208 20.197 11.2247 20.2017 11.2291 20.206L12.2507 21.201C12.3245 21.2728 12.4233 21.313 12.5261 21.313C12.5282 21.313 12.5303 21.313 12.5323 21.3129C12.6374 21.3113 12.7375 21.2678 12.8103 21.1921L13.7912 20.1744L15.7109 20.9442C15.7179 20.947 15.7225 20.9488 15.7296 20.9511C15.7781 20.9682 16.9175 21.3855 16.9175 22.8358V24.2105H14.0303H10.978H10.536C10.318 24.2105 10.1413 24.3873 10.1413 24.6053C10.1413 24.8233 10.318 25 10.536 25H10.978H14.0303H17.3123H17.3123H17.3124H17.816H18.1694H18.5905H20.6101H23.2343C23.4524 25 23.6291 24.8205 23.6291 24.6025V23.1905C23.6292 21.5818 22.3687 21.0729 22.2114 21.0157ZM21.017 20.5367L20.6279 20.3807V20.1561C21.0579 19.9039 21.3884 19.4999 21.5455 19.0181C22.1197 18.9727 22.5733 18.4919 22.5733 17.9062C22.5733 17.5579 22.4128 17.2465 22.1621 17.0416V16.34C22.1621 14.9874 21.147 13.8681 19.8388 13.702C19.8537 13.4343 19.864 13.1647 19.869 12.8947H24.2032C24.1084 15.752 22.986 18.4509 21.017 20.5367ZM19.5919 19.6481H19.2319C18.5344 19.6481 17.9669 19.0807 17.9669 18.3833V17.3388C18.4812 17.283 19.3919 17.1033 20.0937 16.5172C20.2508 16.7868 20.494 17.0784 20.8568 17.2486V18.3832C20.8568 19.0807 20.2894 19.6481 19.5919 19.6481ZM19.8385 20.4222V20.6411L19.3986 21.0974L18.9854 20.6949V20.4222C19.0663 20.4319 19.1484 20.4375 19.2319 20.4375H19.5919C19.6754 20.4375 19.7575 20.4319 19.8385 20.4222ZM17.5735 16.575C17.573 16.575 17.5726 16.575 17.5722 16.575C17.5586 16.575 17.5451 16.5757 17.5319 16.577C17.5276 16.5775 17.5235 16.5784 17.5192 16.579C17.5104 16.5801 17.5015 16.5812 17.4928 16.583C17.4868 16.5842 17.4811 16.586 17.4752 16.5875C17.4685 16.5892 17.4616 16.5907 17.455 16.5927C17.4507 16.594 17.4467 16.5958 17.4424 16.5973V16.34C17.4424 15.3085 18.2816 14.4693 19.3132 14.4693H19.502C20.5334 14.4693 21.3725 15.3085 21.3725 16.34V16.5941C21.3651 16.5917 21.3576 16.5898 21.35 16.5879C21.3463 16.5869 21.3427 16.5857 21.3391 16.5848C20.7888 16.4597 20.6088 15.7252 20.6075 15.7197C20.5732 15.5684 20.4536 15.4512 20.3016 15.4202C20.1496 15.389 19.9936 15.4499 19.9026 15.5755C19.1878 16.5637 17.5944 16.575 17.5735 16.575ZM21.6462 18.1722V17.6403C21.7293 17.6996 21.7838 17.7966 21.7838 17.9063C21.7838 18.016 21.7293 18.1129 21.6462 18.1722ZM22.3332 6.14004C23.4766 7.90645 24.1313 9.96279 24.2031 12.1052H19.8688C19.8368 10.3284 19.5885 8.6147 19.1458 7.054C20.3594 6.81294 21.4415 6.50488 22.3332 6.14004ZM19.0792 12.1053H15.0392C15.0387 12.1053 15.0383 12.1053 15.0379 12.1053C14.4994 11.51 13.7424 11.1167 12.8947 11.0513V7.65674C14.8318 7.63745 16.7011 7.47637 18.3665 7.19644C18.8023 8.70581 19.0469 10.3725 19.0792 12.1053ZM15.5972 16.2273C15.5972 16.4595 15.4403 16.6552 15.2271 16.7154V15.739C15.4403 15.7993 15.5972 15.9951 15.5972 16.2273ZM12.8947 0.811377C14.4656 0.97915 15.9435 2.14468 17.0922 4.13745C17.4954 4.83672 17.8415 5.60928 18.1269 6.43799C16.5354 6.69858 14.7493 6.84858 12.8947 6.86719V0.811377H12.8947ZM12.6444 11.8301C13.989 11.8301 15.0828 12.924 15.0828 14.2687V14.751C15.0802 14.7489 15.0774 14.7471 15.0747 14.745C15.069 14.7405 15.0632 14.7361 15.0572 14.7319C15.0525 14.7287 15.0478 14.7257 15.043 14.7227C15.0371 14.7189 15.0312 14.7152 15.025 14.7118C15.0194 14.7086 15.0136 14.7059 15.0079 14.703C15.0023 14.7002 14.9969 14.6975 14.9912 14.6949C14.9843 14.6918 14.9771 14.6893 14.97 14.6866C14.9651 14.6848 14.9602 14.6829 14.9552 14.6812C14.9473 14.6786 14.9391 14.6765 14.9309 14.6744C14.9273 14.6733 14.9237 14.6721 14.92 14.6712C14.1702 14.5007 13.9326 13.523 13.9306 13.5146C13.8964 13.3633 13.7767 13.2461 13.6247 13.215C13.4728 13.1838 13.3167 13.2447 13.2258 13.3704C12.3014 14.6483 10.2595 14.6614 10.2325 14.6614C10.2325 14.6614 10.2324 14.6614 10.2324 14.6614C10.2319 14.6614 10.2315 14.6614 10.231 14.6614C10.2174 14.6614 10.204 14.6621 10.1907 14.6634C10.1866 14.6639 10.1826 14.6647 10.1784 14.6653C10.1695 14.6666 10.1604 14.6676 10.1516 14.6694C10.146 14.6706 10.1405 14.6723 10.1349 14.6737C10.1279 14.6754 10.1207 14.677 10.1139 14.6791C10.1075 14.6811 10.1013 14.6837 10.0951 14.686C10.0894 14.6881 10.0834 14.6899 10.0777 14.6923C10.0705 14.6954 10.0636 14.699 10.0567 14.7023C10.0522 14.7045 10.0477 14.7064 10.0433 14.7088C10.0362 14.7126 10.0295 14.717 10.0227 14.7212C10.0188 14.7237 10.0147 14.7259 10.0108 14.7285C10.0044 14.7328 9.99844 14.7376 9.99228 14.7423C9.98833 14.7453 9.98423 14.748 9.98037 14.7512C9.97676 14.7542 9.97339 14.7575 9.96982 14.7606V14.2686C9.96982 12.924 11.0637 11.8301 12.4083 11.8301H12.6444ZM5.92075 12.1053C5.95312 10.3722 6.1978 8.70513 6.63369 7.19561C8.30147 7.47593 10.1728 7.63735 12.1053 7.65679V11.0553C11.2778 11.1328 10.5401 11.5235 10.0125 12.1079C9.99819 12.1063 9.98359 12.1053 9.9688 12.1053H5.92075V12.1053ZM9.83628 15.735V16.7196C9.61494 16.6649 9.45024 16.4653 9.45024 16.2273C9.4502 15.9894 9.61494 15.7897 9.83628 15.735ZM12.1053 0.811377V6.86719C10.2551 6.84844 8.46758 6.69785 6.87354 6.43677C7.15884 5.60854 7.50483 4.83647 7.90776 4.13745C9.05649 2.14468 10.5344 0.97915 12.1053 0.811377ZM9.26821 1.24326C8.51538 1.86143 7.82451 2.70093 7.22373 3.74316C6.7773 4.51763 6.39756 5.37583 6.08853 6.29648C4.97031 6.07827 3.96899 5.80234 3.13501 5.47705C4.64683 3.46606 6.79038 1.95576 9.26821 1.24326ZM2.67041 6.14189C3.55986 6.50537 4.64214 6.81226 5.85459 7.05308C5.41157 8.61397 5.16328 10.3281 5.13115 12.1053H0.796875C0.869873 9.9126 1.54834 7.87075 2.67041 6.14189ZM5.21401 20.4223C5.29492 20.432 5.3771 20.4375 5.4606 20.4375H5.82065C5.90405 20.4375 5.98623 20.432 6.06709 20.4222V20.641L5.62734 21.0974L5.21401 20.6949V20.4223ZM5.82065 19.6481H5.4606C4.76309 19.6481 4.19565 19.0807 4.19565 18.3832V17.3393C4.70977 17.2836 5.62021 17.1036 6.32236 16.5172C6.47959 16.7869 6.72275 17.0785 7.0855 17.2487V18.3833C7.08545 19.0807 6.51807 19.6481 5.82065 19.6481ZM6.83633 15.7196C6.8021 15.5684 6.68242 15.4512 6.53042 15.4201C6.37842 15.389 6.22236 15.4498 6.13154 15.5755C5.41621 16.5642 3.82148 16.575 3.80225 16.575C3.80176 16.575 3.80137 16.575 3.80093 16.575C3.78735 16.575 3.77388 16.5757 3.76064 16.577C3.75649 16.5775 3.75249 16.5784 3.74834 16.579C3.7394 16.5801 3.73032 16.5812 3.72153 16.583C3.71592 16.5842 3.71045 16.5859 3.70483 16.5873C3.6978 16.5891 3.69067 16.5906 3.68379 16.5927C3.67954 16.594 3.67554 16.5958 3.67134 16.5973V16.34C3.67134 15.3085 4.5105 14.4693 5.54204 14.4693H5.73086C6.76235 14.4693 7.60142 15.3085 7.60142 16.34V16.5941H7.60132C7.59375 16.5917 7.58589 16.5898 7.57817 16.5878C7.57471 16.5869 7.57134 16.5857 7.56782 16.5849C7.01763 16.4597 6.83765 15.7251 6.83633 15.7196ZM0.796826 12.8947H5.13105C5.13599 13.1666 5.14648 13.4381 5.16147 13.7075C3.87432 13.8926 2.88174 15.0023 2.88174 16.34V17.0385C2.62856 17.2434 2.46621 17.5561 2.46621 17.9062C2.46621 18.4962 2.92681 18.9796 3.50723 19.0187C3.66426 19.5003 3.99463 19.9039 4.42451 20.1561V20.3784L3.99331 20.5472C2.01768 18.4598 0.891748 15.7582 0.796826 12.8947ZM3.4061 17.6315V18.1809C3.31577 18.1227 3.25566 18.0214 3.25566 17.9063C3.25566 17.7911 3.31577 17.6898 3.4061 17.6315ZM7.30137 22.8358V24.2105H6.83877H4.81919H4.39814H4.04473H2.1688V23.1905C2.1688 22.0899 3.02915 21.771 3.0626 21.7591C3.0687 21.7571 3.0748 21.7549 3.08081 21.7525L4.56963 21.1694L5.36074 21.9399C5.43447 22.0118 5.5333 22.0519 5.63613 22.0519C5.63818 22.0519 5.64028 22.0519 5.64238 22.0519C5.74741 22.0502 5.84751 22.0067 5.92031 21.9311L6.66758 21.1556L7.59126 21.5259C7.41611 21.8844 7.30137 22.3185 7.30137 22.8358ZM11.1099 19.3865L9.01475 20.207C8.74795 20.2988 8.37871 20.5105 8.05117 20.8598L6.85649 20.3807V20.1562C7.28662 19.9039 7.61709 19.5 7.77412 19.0181C8.34844 18.9727 8.8021 18.4919 8.8021 17.9062C8.8021 17.5579 8.6415 17.2465 8.39077 17.0416V16.34C8.39077 14.9475 7.31509 13.8022 5.95117 13.6896C5.93613 13.4263 5.92573 13.1607 5.9207 12.8947H9.48809C9.29102 13.3118 9.18027 13.7774 9.18027 14.2686V15.1896C8.86499 15.4265 8.66064 15.8034 8.66064 16.2273C8.66064 16.9358 9.23179 17.5131 9.93784 17.524C10.1231 18.1497 10.5498 18.6724 11.1098 18.9839V19.3865H11.1099ZM7.87495 18.1723V17.6401C7.95811 17.6995 8.01265 17.7965 8.01265 17.9062C8.01265 18.016 7.95811 18.1129 7.87495 18.1723ZM13.1641 19.662C13.1641 19.6625 13.1641 19.6631 13.1641 19.6635V19.6874L12.5173 20.3585L11.8993 19.7566V19.2599C12.0319 19.282 12.1678 19.2941 12.3066 19.2941H12.7569C12.8957 19.2941 13.0315 19.282 13.1641 19.26V19.662ZM12.7569 18.5047H12.3066C11.3798 18.5047 10.6257 17.7507 10.6257 16.8238V15.4302C11.2557 15.3722 12.5014 15.1532 13.4113 14.3363C13.6034 14.6998 13.9253 15.1217 14.4377 15.3405V16.8238C14.4376 17.7507 13.6837 18.5047 12.7569 18.5047ZM16.9597 20.8625C16.6322 20.5124 16.2625 20.2999 15.9951 20.2076L13.9535 19.3888V18.9839C14.5136 18.6724 14.9402 18.1495 15.1254 17.5236C15.824 17.5042 16.3865 16.9304 16.3865 16.2273C16.3865 15.8059 16.1844 15.4309 15.8722 15.1938V14.2686C15.8722 13.7775 15.7615 13.3119 15.5644 12.8947H19.0792C19.074 13.1618 19.0636 13.4285 19.0483 13.6931C17.7053 13.8264 16.6528 14.9625 16.6528 16.34V17.0386C16.3997 17.2434 16.2374 17.5561 16.2374 17.9062C16.2374 18.4963 16.698 18.9797 17.2784 19.0188C17.4354 19.5003 17.7659 19.904 18.1958 20.1561V20.3784L16.9597 20.8625ZM17.1775 17.6315V18.1809C17.0871 18.1227 17.0271 18.0214 17.0271 17.9063C17.0271 17.7911 17.0872 17.6897 17.1775 17.6315ZM22.8397 24.2105H20.6102H18.5906H18.1695H17.8161H17.7071V22.8358C17.7071 22.3206 17.5934 21.8879 17.4193 21.5303L18.341 21.1694L19.132 21.9399C19.2058 22.0117 19.3046 22.0519 19.4075 22.0519C19.4095 22.0519 19.4116 22.0519 19.4137 22.0519C19.5187 22.0502 19.6188 22.0067 19.6917 21.9311L20.439 21.1556L21.9246 21.7513C21.9315 21.7541 21.9354 21.7556 21.9426 21.758C21.9792 21.771 22.8397 22.09 22.8397 23.1905V24.2105H22.8397Z" fill="#0C71C3"/>
</svg>
