<svg width="25" height="21" viewBox="0 0 25 21" fill="none" xmlns="http://www.w3.org/2000/svg">
<path d="M12.5002 18.9974C9.56527 18.9974 7.17725 16.3646 7.17725 13.1276C7.17725 9.89062 9.56527 7.25781 12.5002 7.25781C15.4351 7.25781 17.8231 9.89062 17.8231 13.1276C17.8231 16.3646 15.4351 18.9974 12.5002 18.9974ZM12.5002 7.90365C9.88818 7.90365 7.76318 10.2474 7.76318 13.1276C7.76318 16.0078 9.88818 18.3516 12.5002 18.3516C15.1121 18.3516 17.2371 16.0078 17.2371 13.1276C17.2371 10.2474 15.1121 7.90365 12.5002 7.90365Z" fill="#0C71C3"/>
<path d="M0.442708 20.8333C0.0989583 20.8333 0 20.1563 0 19.8984V1.54948C0 0.695312 0.630208 0 1.40625 0H7.03906C7.13542 0 7.22396 0.0520833 7.27865 0.138021L8.88281 2.68229H21.3906C22.1667 2.68229 22.7969 3.3776 22.7969 4.23177V5.74219C22.7969 5.91927 22.6667 6.0651 22.5026 6.0651H3.71875L0.726562 20.5807C0.695312 20.7266 0.575521 20.8333 0.440104 20.8333H0.442708ZM1.40625 0.645833C0.953125 0.645833 0.585938 1.05208 0.585938 1.54948V18.3516L3.19792 5.67448C3.22917 5.52865 3.34635 5.42188 3.48438 5.42188H22.2109V4.23438C22.2109 3.73438 21.8437 3.33073 21.3906 3.33073H8.73177C8.63542 3.33073 8.54688 3.27865 8.49219 3.19271L6.88802 0.645833H1.40625Z" fill="#0C71C3"/>
<path d="M0.442743 20.8333C0.255243 20.8333 0.114618 20.6406 0.156285 20.4375L3.19795 5.67448C3.2292 5.52865 3.34639 5.42188 3.48441 5.42188H24.7058C24.8828 5.42188 25.0209 5.59375 24.9974 5.78906L23.1719 20.5521C23.1511 20.7109 23.0287 20.8307 22.8802 20.8307H0.442743V20.8333ZM3.71878 6.07031L0.809931 20.1875H22.6276L24.3724 6.07031H3.71878Z" fill="#0C71C3"/>
<path d="M23.5002 15.833H17.0445C16.8309 15.833 16.6877 15.5856 16.7788 15.3721C17.3908 13.958 17.3908 12.2966 16.7788 10.8825C16.6851 10.6689 16.8283 10.4216 17.0445 10.4216H24.0913C24.2684 10.4216 24.4064 10.5934 24.383 10.7887L23.7945 15.5544C23.7736 15.7158 23.6512 15.833 23.5028 15.833H23.5002ZM17.4872 15.1872H23.245L23.7554 11.0674H17.4872C17.9377 12.3877 17.9377 13.8669 17.4872 15.1872ZM7.96113 15.833H1.47155C1.28405 15.833 1.14343 15.6403 1.18509 15.4372L2.16686 10.6715C2.19811 10.5257 2.3153 10.4189 2.45332 10.4189H7.95593C8.16947 10.4189 8.3127 10.6663 8.22155 10.8799C7.15905 13.3356 8.25541 15.2939 8.25541 15.5075C8.25541 15.6872 8.1252 15.8304 7.96113 15.8304V15.833ZM1.83874 15.1872H7.51322C7.0627 13.8695 7.0627 12.3851 7.51322 11.0674H2.6877L1.83874 15.1872Z" fill="#0C71C3"/>
<path d="M12.1146 15.3203H11.3385L9.83333 13.526H8.98958V15.3203H8.39062V10.8047H9.65104C9.92188 10.8047 10.1484 10.8229 10.3307 10.8568C10.513 10.8906 10.6745 10.9557 10.8203 11.0469C10.9844 11.151 11.112 11.2786 11.2031 11.4375C11.2943 11.5964 11.3411 11.7917 11.3411 12.0339C11.3411 12.3594 11.2604 12.6328 11.0964 12.8516C10.9323 13.0703 10.7083 13.237 10.4219 13.3464L12.1146 15.3203ZM10.7161 12.0755C10.7161 11.9453 10.6927 11.8307 10.6484 11.7318C10.6042 11.6328 10.5286 11.5469 10.4245 11.4792C10.3385 11.4193 10.2344 11.3802 10.1172 11.3568C10 11.3333 9.85938 11.3229 9.69792 11.3229H8.99479V13.0286H9.59896C9.78906 13.0286 9.95312 13.013 10.0937 12.9792C10.2344 12.9453 10.3542 12.8828 10.4531 12.7917C10.5443 12.7057 10.612 12.6094 10.6536 12.5C10.6953 12.3906 10.7187 12.25 10.7187 12.0807L10.7161 12.0755Z" fill="#0C71C3"/>
<path d="M14.7554 11.3385H12.4793V12.612H14.4351V13.1458H12.4793V15.3203H11.8804V10.8047H14.7528V11.3385H14.7554Z" fill="#0C71C3"/>
<path d="M16.6042 15.3203H14.8281V14.8594H15.4167V11.3437L14.8281 11.3385V10.8047H16.6042V11.3203L16.0156 11.3385V14.862H16.6042V15.3229V15.3203Z" fill="#0C71C3"/>
</svg>
