<svg width="25" height="25" viewBox="0 0 25 25" fill="none" xmlns="http://www.w3.org/2000/svg">
<g clip-path="url(#clip0_2106_21797)">
<path d="M10.9496 10.1913C10.6635 10.4774 10.6635 10.9409 10.9496 11.227C11.2357 11.5131 11.6992 11.5131 11.9853 11.227C12.0661 11.1469 12.2399 11.0117 12.5003 11.0117C12.7606 11.0117 12.9344 11.1469 13.0152 11.227C13.3013 11.5131 13.7648 11.5131 14.0509 11.227C14.337 10.9409 14.337 10.4774 14.0509 10.1913C13.8106 9.95029 13.2892 9.54688 12.5003 9.54688C11.7113 9.54688 11.1899 9.95029 10.9496 10.1913ZM12.5003 0.757812C9.56627 0.757812 6.8068 1.90225 4.73116 3.97935C4.44508 4.26543 4.44508 4.72964 4.73116 5.01504C5.01725 5.30112 5.48077 5.30112 5.76686 5.01504C7.56642 3.21401 9.95753 2.22266 12.5003 2.22266C15.043 2.22266 17.4341 3.21401 19.2337 5.01504C19.5197 5.30112 19.9832 5.30117 20.2693 5.01504C20.5554 4.72964 20.5554 4.26543 20.2693 3.97935C18.1937 1.90225 15.4342 0.757812 12.5003 0.757812Z" fill="#0C71C3"/>
<path d="M18.196 7.08569C18.4821 6.80029 18.4821 6.33608 18.196 6.05C16.6739 4.52651 14.6512 3.6875 12.4997 3.6875C10.3482 3.6875 8.3255 4.52651 6.80343 6.05C6.51735 6.33608 6.51735 6.80029 6.80343 7.08569C7.08951 7.37178 7.55304 7.37178 7.83912 7.08569C9.08507 5.83901 10.7395 5.15234 12.4997 5.15234C14.26 5.15234 15.9144 5.83901 17.1603 7.08569C17.4464 7.37178 17.9099 7.37178 18.196 7.08569Z" fill="#0C71C3"/>
<path d="M16.1235 9.15758C16.4096 8.87218 16.4096 8.40797 16.1235 8.12188C14.1866 6.18355 10.8134 6.18355 8.87651 8.12188C8.59043 8.40797 8.59043 8.87218 8.87651 9.15758C9.1626 9.44366 9.62612 9.44366 9.91221 9.15758C11.2969 7.77139 13.7031 7.77139 15.0878 9.15758C15.3739 9.44366 15.8374 9.44366 16.1235 9.15758ZM22.8027 13.9426H2.19727C0.985645 13.9426 0 14.9283 0 16.1399V20.5344C0 21.7461 0.985645 22.7317 2.19727 22.7317H2.92969V23.5129C2.92969 23.9178 3.25728 24.2454 3.66211 24.2454C4.06694 24.2454 4.39453 23.9178 4.39453 23.5129V22.7317H20.6055V23.5129C20.6055 23.9178 20.9331 24.2454 21.3379 24.2454C21.7427 24.2454 22.0703 23.9178 22.0703 23.5129V22.7317H22.8027C24.0144 22.7317 25 21.7461 25 20.5344V16.1399C25 14.9283 24.0144 13.9426 22.8027 13.9426ZM16.2109 19.0696C16.2109 19.4744 15.8833 19.802 15.4785 19.802C15.0737 19.802 14.7461 19.4744 14.7461 19.0696V17.6047C14.7461 17.1999 15.0737 16.8723 15.4785 16.8723C15.8833 16.8723 16.2109 17.1999 16.2109 17.6047V19.0696ZM19.1406 19.0696C19.1406 19.4744 18.813 19.802 18.4082 19.802C18.0034 19.802 17.6758 19.4744 17.6758 19.0696V17.6047C17.6758 17.1999 18.0034 16.8723 18.4082 16.8723C18.813 16.8723 19.1406 17.1999 19.1406 17.6047V19.0696ZM22.0703 19.0696C22.0703 19.4744 21.7427 19.802 21.3379 19.802C20.9331 19.802 20.6055 19.4744 20.6055 19.0696V17.6047C20.6055 17.1999 20.9331 16.8723 21.3379 16.8723C21.7427 16.8723 22.0703 17.1999 22.0703 17.6047V19.0696ZM0.493018 3.7481C0.121045 3.90758 -0.0513184 4.33819 0.108203 4.70938L3.43755 12.4778H5.03071L1.4543 4.13292C1.29482 3.75953 0.859912 3.58643 0.493018 3.7481ZM21.5625 12.4778L24.8918 4.70938C25.0513 4.33814 24.8789 3.90758 24.507 3.74805C24.1372 3.58785 23.7052 3.76021 23.5457 4.13287L19.9693 12.4778H21.5625Z" fill="#0C71C3"/>
</g>
<defs>
<clipPath id="clip0_2106_21797">
<rect width="25" height="25" fill="white"/>
</clipPath>
</defs>
</svg>
