<svg width="25" height="25" viewBox="0 0 25 25" fill="none" xmlns="http://www.w3.org/2000/svg">
<path d="M16.137 13.2344C15.7967 14.9039 14.2686 16.1641 12.5002 16.1641C10.7318 16.1641 9.25249 14.9039 8.91221 13.2344H7.44727C7.80649 15.7124 9.92427 17.6289 12.5002 17.6289C15.0761 17.6289 17.2427 15.7124 17.602 13.2344H16.137Z" fill="#0C71C3"/>
<path d="M19.0666 13.2344C18.6968 16.5212 15.8841 19.0938 12.5 19.0938C9.11587 19.0938 6.352 16.5212 5.98223 13.2344H0V13.9668C0 14.2822 0.202441 14.5626 0.501416 14.662L3.51499 15.6455C3.6416 16.0046 3.77534 16.3314 3.91841 16.6333L2.52793 19.4271C2.45961 19.5645 2.43618 19.7199 2.46095 19.8713C2.48572 20.0227 2.55743 20.1626 2.66597 20.271L4.73091 22.336C4.95479 22.5599 5.2938 22.6128 5.5749 22.474L8.3687 21.0835C8.67056 21.2266 8.99741 21.3604 9.35645 21.487L10.3399 24.5005C10.3886 24.6465 10.4819 24.7734 10.6066 24.8634C10.7314 24.9534 10.8813 25.0019 11.0352 25.002H14.0137C14.3291 25.002 14.6095 24.7995 14.7089 24.5005L15.6924 21.487C16.0515 21.3604 16.3783 21.2266 16.6801 21.0835L19.4739 22.474C19.755 22.6135 20.0948 22.5599 20.3179 22.336L22.3829 20.271C22.4914 20.1626 22.5631 20.0227 22.5879 19.8713C22.6126 19.7199 22.5892 19.5645 22.5209 19.4271L21.1304 16.6333C21.2735 16.3314 21.4072 16.0045 21.5338 15.6455L24.4986 14.662C24.6445 14.6134 24.7715 14.5201 24.8615 14.3953C24.9515 14.2705 24.9999 14.1206 25 13.9668V13.2344H19.0666Z" fill="#0C71C3"/>
<path d="M10.4376 13.2324C10.741 14.0831 11.5464 14.6973 12.5 14.6973C13.4536 14.6973 14.3078 14.0831 14.6112 13.2324H10.4376ZM12.5 0C10.8842 0 9.57031 1.31392 9.57031 2.92969C9.57031 4.54546 10.8842 5.85938 12.5 5.85938C14.1158 5.85938 15.4785 4.54546 15.4785 2.92969C15.4785 1.31392 14.1158 0 12.5 0ZM19.873 0C18.2573 0 16.9434 1.31392 16.9434 2.92969C16.9434 4.54546 18.2573 5.85938 19.873 5.85938C21.4888 5.85938 22.8027 4.54546 22.8027 2.92969C22.8027 1.31392 21.4888 0 19.873 0ZM5.17578 0C3.56001 0 2.24609 1.31392 2.24609 2.92969C2.24609 4.54546 3.56001 5.85938 5.17578 5.85938C6.79155 5.85938 8.10547 4.54546 8.10547 2.92969C8.10547 1.31392 6.79155 0 5.17578 0ZM22.3713 6.53726C21.6609 7.03086 20.8018 7.32422 19.873 7.32422C18.9481 7.32422 18.0917 7.03398 17.383 6.54414C17.0617 6.72856 16.753 6.93594 16.4734 7.18599C17.8978 8.25073 18.8867 9.91362 19.0959 11.7676H25V11.0352C25 9.11997 23.9316 7.41738 22.3713 6.53726ZM12.5 7.32422C9.92148 7.32422 7.78145 9.28638 7.42524 11.7676H17.6235C17.2674 9.28638 15.0785 7.32422 12.5 7.32422ZM7.66587 6.54414C6.95713 7.03398 6.10068 7.32422 5.17578 7.32422C4.24702 7.32422 3.38789 7.03086 2.67749 6.53726C1.11724 7.41738 0 9.11997 0 11.0352V11.7676H5.95293C6.16211 9.91362 7.15103 8.25073 8.57539 7.18599C8.2958 6.93594 7.98711 6.72856 7.66587 6.54414Z" fill="#0C71C3"/>
</svg>
