<svg xmlns="http://www.w3.org/2000/svg" version="1.1" xmlns:xlink="http://www.w3.org/1999/xlink" xmlns:svgjs="http://svgjs.com/svgjs" width="512" height="512" x="0" y="0" viewBox="0 0 24 24" style="enable-background:new 0 0 512 512" xml:space="preserve" class=""><g><clipPath id="SVGID_2_"><path id="SVGID_1_" d="m0 0h24v24h-24z" fill="#000000" data-original="#000000"></path></clipPath><g><g clip-path="url(#SVGID_2_)"><g><path d="m21 7h-18c-.6 0-1-.4-1-1s.4-1 1-1h18c.6 0 1 .4 1 1s-.4 1-1 1z" fill="#252525" data-original="#252525" class=""></path></g><g><path d="m18 13h-12c-.6 0-1-.4-1-1s.4-1 1-1h12c.6 0 1 .4 1 1s-.4 1-1 1z" fill="#252525" data-original="#252525" class=""></path></g><g><path d="m15 19h-6c-.6 0-1-.4-1-1s.4-1 1-1h6c.6 0 1 .4 1 1s-.4 1-1 1z" fill="#252525" data-original="#252525" class=""></path></g></g></g></g></svg>