<svg width="25" height="21" viewBox="0 0 25 21" fill="none" xmlns="http://www.w3.org/2000/svg">
<path d="M24.0742 1.57812H0.921875C0.676957 1.57895 0.442363 1.67688 0.269545 1.85043C0.0967266 2.02398 -0.000207921 2.25899 3.34871e-07 2.50391V5.96484C3.34871e-07 6.01664 0.0205779 6.06632 0.0572061 6.10295C0.0938343 6.13958 0.143513 6.16016 0.195313 6.16016H24.8047C24.8565 6.16016 24.9062 6.13958 24.9428 6.10295C24.9794 6.06632 25 6.01664 25 5.96484V2.50391C24.9998 2.25844 24.9022 2.02308 24.7286 1.84951C24.555 1.67594 24.3197 1.57833 24.0742 1.57812ZM5.99023 4.06445H5.30664V4.74805C5.30664 4.79985 5.28606 4.84952 5.24944 4.88615C5.21281 4.92278 5.16313 4.94336 5.11133 4.94336C5.05953 4.94336 5.00985 4.92278 4.97322 4.88615C4.93659 4.84952 4.91602 4.79985 4.91602 4.74805V4.06445H4.23242C4.18062 4.06445 4.13094 4.04388 4.09432 4.00725C4.05769 3.97062 4.03711 3.92094 4.03711 3.86914C4.03711 3.81734 4.05769 3.76766 4.09432 3.73103C4.13094 3.69441 4.18062 3.67383 4.23242 3.67383H4.91602V2.99023C4.91602 2.93843 4.93659 2.88876 4.97322 2.85213C5.00985 2.8155 5.05953 2.79492 5.11133 2.79492C5.16313 2.79492 5.21281 2.8155 5.24944 2.85213C5.28606 2.88876 5.30664 2.93843 5.30664 2.99023V3.67383H5.99023C6.04203 3.67383 6.09171 3.69441 6.12834 3.73103C6.16497 3.76766 6.18555 3.81734 6.18555 3.86914C6.18555 3.92094 6.16497 3.97062 6.12834 4.00725C6.09171 4.04388 6.04203 4.06445 5.99023 4.06445ZM20.7691 4.06445H19.0109C18.9591 4.06445 18.9095 4.04388 18.8728 4.00725C18.8362 3.97062 18.8156 3.92094 18.8156 3.86914C18.8156 3.81734 18.8362 3.76766 18.8728 3.73103C18.9095 3.69441 18.9591 3.67383 19.0109 3.67383H20.7687C20.8205 3.67383 20.8702 3.69441 20.9069 3.73103C20.9435 3.76766 20.9641 3.81734 20.9641 3.86914C20.9641 3.92094 20.9435 3.97062 20.9069 4.00725C20.8702 4.04388 20.8209 4.06445 20.7691 4.06445ZM8.25352 0.945312C8.25352 0.425781 7.82773 0 7.3082 0H3.23789C2.98786 0.00103321 2.74841 0.101084 2.57198 0.278253C2.39554 0.455421 2.29648 0.695275 2.29648 0.945312V1.1875H8.25352V0.945312ZM22.7066 0.945312C22.7066 0.425781 22.2809 0 21.7613 0H17.691C17.441 0.00103321 17.2015 0.101084 17.0251 0.278253C16.8487 0.455421 16.7496 0.695275 16.7496 0.945312V1.1875H22.7066V0.945312ZM0.195313 6.55078C0.124219 6.55078 0.0617191 6.53906 3.34871e-07 6.51562V19.2852C3.34871e-07 19.793 0.413282 20.207 0.921094 20.207H24.0742C24.5859 20.207 25 19.793 25 19.2852V6.51562C24.9375 6.53906 24.875 6.55078 24.8047 6.55078H0.195313ZM16.1426 12.698L13.8574 14.3621C13.8338 14.3796 13.818 14.4057 13.8135 14.4347C13.809 14.4637 13.816 14.4933 13.8332 14.5172L16.1316 17.6734C16.2011 17.7671 16.2354 17.8823 16.2285 17.9987C16.2215 18.1151 16.1738 18.2254 16.0938 18.3102C16.0473 18.361 15.9907 18.4017 15.9277 18.4296C15.8647 18.4575 15.7966 18.472 15.7277 18.4723C15.6339 18.4721 15.542 18.4456 15.4625 18.3957L8.78203 14.2699C8.7119 14.2268 8.65347 14.167 8.61194 14.096C8.57041 14.0249 8.54704 13.9446 8.54391 13.8624C8.54078 13.7801 8.55799 13.6983 8.594 13.6243C8.63002 13.5502 8.68373 13.4862 8.75039 13.4379L11.2691 11.6016C11.281 11.593 11.2911 11.5822 11.2987 11.5697C11.3064 11.5573 11.3115 11.5434 11.3138 11.5289C11.3161 11.5145 11.3155 11.4997 11.312 11.4855C11.3086 11.4713 11.3024 11.4579 11.2937 11.4461L9.04297 8.36094C8.97246 8.26632 8.93805 8.14965 8.94593 8.03191C8.95381 7.91418 9.00346 7.80313 9.08594 7.71875C9.16638 7.63265 9.27491 7.57809 9.39201 7.56492C9.5091 7.55174 9.62705 7.5808 9.72461 7.64687L14.1465 10.5398C14.1735 10.5575 14.1957 10.5817 14.2109 10.6102L16.1238 11.8742C16.1915 11.9188 16.2473 11.9791 16.2865 12.05C16.3257 12.1209 16.3471 12.2002 16.349 12.2812C16.3508 12.3622 16.333 12.4424 16.2971 12.515C16.2611 12.5876 16.2081 12.6504 16.1426 12.698Z" fill="#0C71C3"/>
</svg>
