<svg width="25" height="25" viewBox="0 0 25 25" fill="none" xmlns="http://www.w3.org/2000/svg">
<g clip-path="url(#clip0_625_144)">
<path d="M24.5927 4.36035C24.3305 4.09912 23.9819 3.95508 23.6113 3.95508C23.3798 3.95508 23.1499 4.01367 22.9467 4.12402C22.7436 4.23437 22.5698 4.39551 22.4443 4.58936L21.6298 5.84863C21.5208 6.01699 21.3586 6.14395 21.1715 6.21069C21.1215 6.22856 20.8514 6.2835 20.773 6.30718C20.428 6.41147 20.1178 6.61309 19.8823 6.88965C19.5932 7.229 19.4335 7.66162 19.4335 8.10693V9.26172C19.4335 9.39404 19.3837 9.52002 19.2934 9.61719C19.2031 9.71191 19.0893 9.76514 18.9638 9.76953C18.9575 9.77002 18.9021 9.76812 18.8939 9.76724C18.6493 9.74121 18.4574 9.53452 18.457 9.28511V8.8227C18.457 8.43794 18.3115 8.07271 18.0473 7.7939C17.9179 7.65669 17.7656 7.54731 17.5937 7.4687C17.4263 7.39141 17.2487 7.34795 17.0655 7.33877C17.0531 7.33814 16.9877 7.33687 16.9877 7.33687C16.7866 7.33687 16.5898 7.38276 16.4184 7.46919C16.1967 7.58052 16.0053 7.76069 15.8491 8.00386C15.707 8.227 15.6171 8.45942 15.5546 8.63765C15.5405 8.68013 15.1752 9.27046 15.0332 9.44087C14.8916 9.61372 14.7368 9.76167 14.6689 9.80464C14.5776 9.86811 14.4155 9.93159 14.2875 9.92964C14.2197 9.92915 14.1655 9.91646 14.1113 9.88813C14.0649 9.86323 14.0019 9.81978 13.9272 9.70649C13.8964 9.6562 13.8813 9.61567 13.8793 9.52241C13.873 9.31245 14.0209 8.91645 14.2758 8.46333C14.3623 8.30757 14.4521 8.13765 14.5253 7.95015C14.6162 7.71528 14.6567 7.52144 14.6577 7.32222C14.6582 7.13911 14.6166 6.9604 14.5385 6.80415C14.456 6.63862 14.3256 6.47773 14.1616 6.35713C13.9057 6.16816 13.5888 6.05464 13.2685 6.05464H13.2666C13.0644 6.05464 12.8667 6.10322 12.6792 6.17988C12.4873 6.2585 12.3103 6.377 12.1628 6.52402L11.9628 6.72363V6.01465C11.9628 5.77051 11.8767 5.53711 11.7116 5.35693C11.5471 5.17725 11.3253 5.06592 11.0821 5.04395C11.0821 5.04395 4.25566 4.42334 4.18096 4.42334C3.92266 4.42334 3.66836 4.46387 3.42324 4.54395C3.18301 4.62256 2.95771 4.73682 2.75264 4.88477C2.33076 5.18848 2.0228 5.61035 1.86167 6.104C1.62192 6.83936 1.38472 7.51074 1.15669 8.09961C0.863721 8.85693 0.579541 9.48779 0.334473 9.92334C0.115723 10.314 0 10.7603 0 11.2144C0 11.6094 0.090332 12.0063 0.26123 12.3628C0.431641 12.7192 0.685059 13.0386 0.992676 13.2871L1.90723 14.0234C2.20312 14.2617 2.38867 14.6152 2.41699 14.9932C2.44727 15.4023 2.58545 15.7988 2.81738 16.1392C3.04785 16.4775 3.36475 16.7524 3.7334 16.9341C4.3999 17.2632 5.07617 17.7407 5.74268 18.3535C5.97607 18.5679 6.26514 18.709 6.57764 18.7622C6.66797 18.7773 6.76025 18.7852 6.85107 18.7852C7.30811 18.7852 7.74756 18.5923 8.05713 18.2563L8.46826 17.8091L8.46875 17.8086C8.46924 17.8086 8.46973 17.8086 8.47021 17.8091L9.20752 18.9028C9.4873 19.3184 9.93311 19.5969 10.4297 19.6667C10.7012 19.9529 11.0884 20.1172 11.4824 20.1172C11.6973 20.1172 11.9194 20.0671 12.1147 19.9729C12.3223 19.8728 12.4985 19.7286 12.6382 19.5445L12.8823 19.2236C13.0181 19.041 13.2798 18.8628 13.6196 18.7227C13.8735 18.6157 14.9414 18.2617 15.5356 18.2128C15.6294 18.2051 15.8081 18.2355 15.9053 18.2839C15.998 18.3317 16.0771 18.3929 16.1606 18.5403C16.5469 19.2435 17.0024 19.8182 17.5146 20.2494C17.7739 20.4676 18.0444 20.6442 18.3188 20.775C18.6045 20.9113 18.8965 20.9986 19.1865 21.0347C19.2422 21.0416 19.2983 21.0449 19.3584 21.0449C19.5312 21.043 19.793 21.0219 20.0664 20.8569C20.165 20.7963 20.3052 20.6879 20.4131 20.5131C20.485 20.3977 20.5355 20.2631 20.5619 20.1188C20.5695 20.0771 20.583 19.9252 20.583 19.8916C20.582 19.5585 20.4487 19.2426 20.207 19.0014L19.5249 18.3212C19.249 18.0463 19.0967 17.6801 19.0962 17.2905C19.0967 16.9848 19.1909 16.6918 19.3691 16.4433L20.2534 15.2114C20.4551 14.9301 20.6406 14.6333 20.8042 14.3281C20.8657 14.2133 20.8789 14.0815 20.8413 13.9565C20.8037 13.8315 20.7197 13.729 20.605 13.6669C20.5342 13.6289 20.4541 13.6088 20.3745 13.6088C20.1938 13.6088 20.0288 13.7075 19.9438 13.8662C19.8412 14.0572 19.7287 14.2445 19.6086 14.4258L17.5466 14.326L18.7932 10.7386C18.8435 10.7438 18.9815 10.746 18.9976 10.7455C19.1924 10.7387 19.3814 10.6933 19.5582 10.6103C19.7281 10.5307 19.879 10.4213 20.0064 10.2841C20.2666 10.0062 20.4102 9.64297 20.4102 9.26162V8.10684C20.4097 7.6625 20.73 7.2875 21.1714 7.21523C21.6959 7.1293 22.1617 6.82412 22.4502 6.37881L23.2642 5.11958C23.3404 5.0019 23.4698 4.93159 23.6114 4.93159C23.8379 4.93208 24.023 5.11567 24.0235 5.34077V6.01851C24.0235 6.10005 23.9991 6.17866 23.9537 6.24604C23.9537 6.24604 21.6348 9.68013 21.5777 9.7729C21.5093 9.88423 21.4878 10.0151 21.5181 10.142C21.5479 10.269 21.6255 10.3764 21.7364 10.4453C21.8135 10.4926 21.9024 10.518 21.9927 10.518C22.1631 10.518 22.3189 10.4316 22.4087 10.2861C22.46 10.2031 24.7627 6.79341 24.7627 6.79341C24.918 6.56343 25.0001 6.29585 25.0001 6.01851V5.34077C24.9995 4.97021 24.8549 4.62207 24.5927 4.36035ZM10.9863 6.0166V7.89941C10.9863 8.09766 11.1091 8.27441 11.2922 8.35059C11.3518 8.375 11.417 8.3877 11.4815 8.3877C11.6114 8.3877 11.7352 8.3374 11.8274 8.24512L12.8563 7.2207C12.9643 7.1123 13.114 7.05029 13.2663 7.05029C13.3835 7.05078 13.4849 7.09263 13.5814 7.15283C13.68 7.21436 13.6786 7.37251 13.6729 7.40303C13.6625 7.45942 13.6424 7.52651 13.6152 7.59522C13.5747 7.7002 13.5132 7.82568 13.4219 7.98975C13.1147 8.55078 12.9087 9.02637 12.9028 9.52246C12.9014 9.78174 12.9746 10.0366 13.1094 10.2402C13.1348 10.2793 13.1621 10.3165 13.1901 10.3526L12.4323 11.1703L9.19253 8.88603C8.97456 8.73237 8.67353 8.78203 8.51645 8.99766L6.57978 11.6568L4.9125 10.6765L7.39062 5.6876L10.9863 6.0166ZM11.8535 11.9571L10.6835 13.9758L7.43174 12.1458L9.02275 9.96128L11.8535 11.9571ZM2.78999 6.40674C2.98579 5.80469 3.54536 5.3999 4.18208 5.3999C4.227 5.3999 6.35181 5.59224 6.35181 5.59224L4.05083 10.2159L1.7979 9.12002C1.88545 8.91211 2.54536 7.15772 2.78999 6.40674ZM4.16548 16.0585C3.7231 15.8398 3.42622 15.4038 3.39058 14.9208C3.36665 14.5981 3.27827 14.2885 3.12739 14.0019C2.977 13.7148 2.77241 13.4663 2.51997 13.2631L1.60542 12.5263C1.20552 12.2045 0.976514 11.7261 0.976514 11.2144C0.976514 10.9272 1.04927 10.646 1.18647 10.4014C1.25444 10.28 1.32329 10.1494 1.39326 10.0091L6.11685 12.5175L4.72686 16.3659C4.53857 16.253 4.35088 16.1499 4.16548 16.0585ZM13.2412 17.8222C13.0034 17.9233 12.8125 18.0239 12.6416 18.1381C12.4252 18.2832 12.25 18.4448 12.1054 18.6323L11.8613 18.9531C11.7685 19.0737 11.6372 19.1386 11.4829 19.1401C11.3164 19.1381 11.1748 19.0625 11.0849 18.9267C10.9941 18.7895 10.8417 18.7075 10.6767 18.7075C10.4116 18.7075 10.165 18.5766 10.017 18.3574L9.27974 17.2626C9.18892 17.1279 9.0644 17.0166 8.91987 16.9418C8.7812 16.8701 8.62285 16.832 8.46904 16.832C8.19853 16.832 7.93359 16.9467 7.74995 17.1474L7.33833 17.5952C7.18843 17.7578 6.96089 17.8359 6.74018 17.7993C6.61421 17.7778 6.49751 17.7207 6.40327 17.6342C6.1272 17.3804 5.84502 17.1454 5.56104 16.9311L6.9771 13.0105L10.6248 15.0633C10.6848 15.0971 10.7489 15.1163 10.8133 15.123C10.8264 15.1249 13.4187 15.1261 13.4187 15.1261L13.5356 17.7095C13.4392 17.7435 13.3403 17.7807 13.2412 17.8222ZM18.9367 15.371L18.5756 15.874C18.4257 16.083 18.3105 16.3125 18.2329 16.5566C18.1577 16.7944 18.1196 17.0415 18.1196 17.2905C18.1196 17.6069 18.1801 17.9165 18.3002 18.2105C18.4238 18.5122 18.6035 18.7822 18.8354 19.0132L19.5175 19.6929C19.664 19.8211 19.5888 19.9883 19.5825 19.999C19.5732 20.0127 19.5053 20.0821 19.3061 20.0654C18.9292 20.0195 18.5268 19.8247 18.1435 19.502C17.7294 19.1543 17.3398 18.6587 17.0166 18.0693C16.8579 17.7773 16.6166 17.5415 16.3364 17.4058C16.0996 17.2896 15.8374 17.2329 15.5341 17.2329C15.1324 17.2346 14.7684 17.3305 14.4997 17.4114L14.3975 15.1515L18.9367 15.371ZM16.5297 14.2769C16.5297 14.2769 14.5564 14.1661 13.8979 14.1501C13.3515 14.1369 11.7116 14.1495 11.7116 14.1495L12.8951 12.1074L14.0306 10.8735C14.1139 10.8892 14.2875 10.8886 14.2875 10.8886C14.6137 10.8886 14.9257 10.7968 15.2138 10.6059C15.3383 10.5214 15.4545 10.4232 15.602 10.267C15.7788 10.079 15.9575 9.85513 16.1201 9.61538C16.2485 9.42251 16.3916 9.19512 16.4765 8.9583C16.5561 8.72588 16.6588 8.54316 16.7382 8.43936C16.866 8.27227 17.0753 8.31948 17.1096 8.32837C17.195 8.35064 17.2727 8.39688 17.3379 8.46519C17.4302 8.56235 17.4805 8.6894 17.4805 8.8227V9.28511C17.481 9.67397 17.632 10.0396 17.9065 10.315L16.5297 14.2769Z" fill="#0C71C3"/>
<path d="M21.1252 12.5283C21.3949 12.5283 21.6135 12.3097 21.6135 12.04C21.6135 11.7704 21.3949 11.5518 21.1252 11.5518C20.8556 11.5518 20.637 11.7704 20.637 12.04C20.637 12.3097 20.8556 12.5283 21.1252 12.5283Z" fill="#0C71C3"/>
</g>
<defs>
<clipPath id="clip0_625_144">
<rect width="25" height="25" fill="white"/>
</clipPath>
</defs>
</svg>
