<svg width="100" height="101" viewBox="0 0 100 101" fill="none" xmlns="http://www.w3.org/2000/svg">
<g clip-path="url(#clip0_4199_46071)">
<path d="M99.9783 50.1258C99.9783 77.7281 77.6023 100.104 50 100.104C22.3977 100.104 0.0216522 77.7281 0.0216522 50.1258C0.0216522 22.5235 22.3977 0.147461 50 0.147461C77.6023 0.147461 99.9783 22.5235 99.9783 50.1258Z" fill="#0C71C3"/>
<path fill-rule="evenodd" clip-rule="evenodd" d="M50.7874 11.8184L19.685 42.842C18.4349 44.0965 17.7329 45.7953 17.7329 47.5664C17.7329 49.3375 18.4349 51.0363 19.685 52.2908C20.9395 53.541 22.6384 54.2429 24.4095 54.2429C26.1805 54.2429 27.8794 53.541 29.1339 52.2908L60.2362 21.1884L50.7874 11.8184Z" fill="white"/>
<path fill-rule="evenodd" clip-rule="evenodd" d="M50.7874 11.8184L81.7716 42.842C83.0218 44.0965 83.7238 45.7953 83.7238 47.5664C83.7238 49.3375 83.0218 51.0363 81.7716 52.2908C80.5172 53.541 78.8183 54.2429 77.0472 54.2429C75.2762 54.2429 73.5773 53.541 72.3228 52.2908L41.3386 21.1884L50.7874 11.8184Z" fill="white"/>
<path fill-rule="evenodd" clip-rule="evenodd" d="M44.0945 25.2041V81.9758C44.2237 83.6571 44.9829 85.2276 46.2201 86.3734C47.4573 87.5192 49.0814 88.1557 50.7677 88.1557C52.454 88.1557 54.0781 87.5192 55.3154 86.3734C56.5526 85.2276 57.3117 83.6571 57.4409 81.9758V25.2041H44.0945Z" fill="white"/>
</g>
<defs>
<clipPath id="clip0_4199_46071">
<rect width="100" height="100" fill="white" transform="translate(0 0.125977)"/>
</clipPath>
</defs>
</svg>
