<svg width="25" height="25" viewBox="0 0 25 25" fill="none" xmlns="http://www.w3.org/2000/svg">
<g clip-path="url(#clip0_585_11537)">
<path d="M19.5341 21.5949H15.4935H14.4054H14.1704V16.175H15.943C16.3925 16.175 16.6582 15.6642 16.3925 15.2964L12.9444 10.5253C12.7248 10.2188 12.2701 10.2188 12.0505 10.5253L8.60237 15.2964C8.33674 15.6642 8.59726 16.175 9.0519 16.175H10.8245V21.5949H10.5895H9.50143H4.81712C2.13527 21.4468 0 18.9386 0 16.221C0 14.3463 1.01655 12.7116 2.5235 11.8279C2.38557 11.455 2.31406 11.0565 2.31406 10.6376C2.31406 8.72203 3.86187 7.17422 5.77748 7.17422C6.19125 7.17422 6.5897 7.24573 6.96261 7.38366C8.07111 5.03384 10.4618 3.4043 13.2407 3.4043C16.8369 3.40941 19.7998 6.16278 20.1369 9.67217C22.9005 10.1472 25 12.7065 25 15.6029C25 18.6985 22.5889 21.3804 19.5341 21.5949Z" fill="#0C71C3"/>
</g>
<defs>
<clipPath id="clip0_585_11537">
<rect width="25" height="25" fill="white"/>
</clipPath>
</defs>
</svg>
