<?xml version="1.0" encoding="utf-8"?>
<!-- Generator: Adobe Illustrator 27.1.1, SVG Export Plug-In . SVG Version: 6.00 Build 0)  -->
<svg version="1.1" id="Layer_1" xmlns:svgjs="http://svgjs.com/svgjs"
	 xmlns="http://www.w3.org/2000/svg" xmlns:xlink="http://www.w3.org/1999/xlink" x="0px" y="0px" viewBox="0 0 512 512"
	 style="enable-background:new 0 0 512 512;" xml:space="preserve">
<style type="text/css">
	.st0{clip-path:url(#SVGID_00000098911526189001344470000006250265024184704941_);}
</style>
<g>
	<g>
		<g>
			<path d="M333.2,237.4c32.8-23.9,54.1-62.6,54.1-106.1C387.3,58.9,328.4,0,256,0S124.7,58.9,124.7,131.3
				c0,43.6,21.3,82.2,54.1,106.1C97.4,268.6,39.4,347.5,39.4,439.8c0,39.8,32.4,72.2,72.2,72.2h288.8c39.8,0,72.2-32.4,72.2-72.2
				C472.6,347.5,414.6,268.6,333.2,237.4z M164.1,131.3c0-50.7,41.2-91.9,91.9-91.9s91.9,41.2,91.9,91.9s-41.2,91.9-91.9,91.9
				S164.1,182,164.1,131.3z M400.4,472.6H111.6c-18.1,0-32.8-14.7-32.8-32.8c0-97.7,79.5-177.2,177.2-177.2s177.2,79.5,177.2,177.2
				C433.2,457.9,418.5,472.6,400.4,472.6z"/>
		</g>
	</g>
</g>
<g>
	<g id="Layer_1-2_00000013880555076479338980000006870654355317631374_">
		<g>
			<path d="M162,358.8h50.1c2.1-6.4,13.2-41,13.2-41c0.8-2.4,3.1-4,5.7-3.8c2.5,0.2,4.6,2.1,5.1,4.6c0,0,11.9,72.1,16.7,101.5
				c7.9-22.7,20.3-58.9,20.3-58.9c0.8-2.2,2.9-3.7,5.2-3.7H343v-27.6c0-6-2.1-6.4-9.2-6.4h-36.2v-36.2c0-7,0.8-9.2-6.4-9.2h-77.5
				c-6,0-6.4,2.1-6.4,9.2v36.2h-38.7c-7.1,0-6.7,2.9-6.7,6.4C162,329.8,162,358.8,162,358.8z"/>
			<path d="M282.3,368.4c-2.3,6.8-26.2,75.9-26.2,75.9c-0.8,2.4-3.2,3.9-5.7,3.7s-4.6-2.1-5-4.6c0,0-11.6-70.4-16.6-100.5
				c-3.7,11.5-7.4,23.1-7.4,23.1c-0.7,2.3-2.9,3.8-5.3,3.8H162v37.4c0,3.5-0.4,6.4,6.7,6.4h38.7v38.7c0,7.1,2.9,6.6,6.4,6.6h77.6
				c3.5,0,6.4,0.4,6.4-6.6v-38.7h36.2c7,0,9.2,0.8,9.2-6.4v-38.9L282.3,368.4L282.3,368.4z"/>
		</g>
	</g>
</g>
<circle cx="219.5" cy="94.5" r="18.5"/>
<circle cx="296.5" cy="94.5" r="18.5"/>
<g>
	<defs>
		<circle id="SVGID_1_" cx="251.6" cy="126.6" r="50.6"/>
	</defs>
	<clipPath id="SVGID_00000085220688595791844780000005710642334631015599_">
		<use xlink:href="#SVGID_1_"  style="overflow:visible;"/>
	</clipPath>
	<circle style="clip-path:url(#SVGID_00000085220688595791844780000005710642334631015599_);" cx="252.5" cy="160.5" r="44.4"/>
</g>
</svg>
