<svg width="100" height="101" viewBox="0 0 100 101" fill="none" xmlns="http://www.w3.org/2000/svg">
<g clip-path="url(#clip0_4352_39521)">
<path d="M72.9167 100.126C57.9792 100.126 45.8333 87.9798 45.8333 73.0423C45.8333 58.1048 57.9792 45.959 72.9167 45.959C87.8542 45.959 100 58.1048 100 73.0423C100 87.9798 87.8542 100.126 72.9167 100.126ZM72.9167 52.209C61.4271 52.209 52.0833 61.5527 52.0833 73.0423C52.0833 84.5319 61.4271 93.8757 72.9167 93.8757C84.4062 93.8757 93.75 84.5319 93.75 73.0423C93.75 61.5527 84.4062 52.209 72.9167 52.209Z" fill="#0C71C3"/>
<path d="M38.2917 87.626H11.4583C5.13542 87.626 0 82.4906 0 76.1676V11.5843C0 5.26139 5.13542 0.125977 11.4583 0.125977H59.375C65.6979 0.125977 70.8333 5.26139 70.8333 11.5843V36.9593C70.8333 38.6885 69.4375 40.0843 67.7083 40.0843C65.9792 40.0843 64.5833 38.6885 64.5833 36.9593V11.5843C64.5833 8.70931 62.25 6.37598 59.375 6.37598H11.4583C8.58333 6.37598 6.25 8.70931 6.25 11.5843V76.1676C6.25 79.0426 8.58333 81.376 11.4583 81.376H38.2917C40.0208 81.376 41.4167 82.7718 41.4167 84.501C41.4167 86.2301 40.0208 87.626 38.2917 87.626Z" fill="#0C71C3"/>
<path d="M55.2083 39.709H15.625C13.8958 39.709 12.5 38.3132 12.5 36.584C12.5 34.8548 13.8958 33.459 15.625 33.459H55.2083C56.9375 33.459 58.3333 34.8548 58.3333 36.584C58.3333 38.3132 56.9375 39.709 55.2083 39.709Z" fill="#0C71C3"/>
<path d="M89.1146 71.1885C86.2396 64.5114 79.7812 60.1885 72.6771 60.1885C65.5729 60.1885 59.1146 64.501 56.2396 71.1885C55.9271 71.9072 55.9271 72.8031 56.2396 73.5218C59.125 80.1885 65.5833 84.501 72.6771 84.501C79.7708 84.501 86.2188 80.1885 89.1146 73.5218C89.4271 72.8031 89.4271 71.9072 89.1146 71.1885ZM78.1458 72.3447C78.1458 76.5635 75.6875 79.9906 72.6771 79.9906C69.6667 79.9906 67.2083 76.5635 67.2083 72.3447C67.2083 68.126 69.6667 64.6989 72.6771 64.6989C75.6875 64.6989 78.1458 68.126 78.1458 72.3447ZM59.5729 72.3447C60.8333 70.0218 62.7083 68.1156 64.9479 66.7926C63.6562 70.2718 63.6562 74.4072 64.9479 77.876C62.7083 76.5531 60.8333 74.6572 59.5729 72.3343V72.3447ZM80.4063 77.8864C81.6875 74.4072 81.6875 70.2718 80.4063 66.8031C82.6458 68.126 84.5208 70.0218 85.7813 72.3551C84.5104 74.6781 82.6458 76.5739 80.4063 77.8968V77.8864Z" fill="#0C71C3"/>
<path d="M38.5417 56.376H15.625C13.8958 56.376 12.5 54.9801 12.5 53.251C12.5 51.5218 13.8958 50.126 15.625 50.126H38.5417C40.2708 50.126 41.6667 51.5218 41.6667 53.251C41.6667 54.9801 40.2708 56.376 38.5417 56.376Z" fill="#0C71C3"/>
<path d="M34.375 23.043H15.625C13.8958 23.043 12.5 21.6471 12.5 19.918C12.5 18.1888 13.8958 16.793 15.625 16.793H34.375C36.1042 16.793 37.5 18.1888 37.5 19.918C37.5 21.6471 36.1042 23.043 34.375 23.043Z" fill="#0C71C3"/>
</g>
<defs>
<clipPath id="clip0_4352_39521">
<rect width="100" height="100" fill="white" transform="translate(0 0.125977)"/>
</clipPath>
</defs>
</svg>
