<svg width="22" height="22" viewBox="0 0 22 22" fill="none" xmlns="http://www.w3.org/2000/svg">
<g id="Group">
<path id="Vector" d="M8.42869 16.0721C9.43647 15.8342 10.0605 14.8243 9.82256 13.8165C9.5846 12.8087 8.57472 12.1847 7.56694 12.4226C6.55916 12.6606 5.9351 13.6705 6.17306 14.6783C6.41103 15.686 7.42091 16.3101 8.42869 16.0721Z" fill="#0C71C3"/>
<path id="Vector_2" d="M19.4961 9.375C19.4961 9.02832 19.2178 8.75 18.8711 8.75C18.5244 8.75 18.2461 9.02832 18.2461 9.375V13.501H19.4961V9.375Z" fill="#0C71C3"/>
<path id="Vector_3" d="M11.2793 13.3984C11.2012 13.0908 11.0791 12.7979 10.918 12.5244C10.8594 12.4268 10.874 12.2998 10.957 12.2217L11.2939 11.8848L10.3613 10.9521L10.0244 11.2891C9.94141 11.3721 9.81934 11.3867 9.72168 11.3281C9.44824 11.167 9.15527 11.0449 8.84766 10.9668C8.73535 10.9375 8.66211 10.8398 8.66211 10.7227V10.2441H7.33887V10.7227C7.33887 10.835 7.26074 10.9375 7.15332 10.9668C6.8457 11.0449 6.55273 11.167 6.2793 11.3281C6.18164 11.3867 6.05469 11.3721 5.97656 11.2891L5.63965 10.9521L4.70215 11.8896L5.03906 12.2266C5.12207 12.3096 5.13672 12.4316 5.07812 12.5293C4.91699 12.8027 4.79492 13.0957 4.7168 13.4033C4.6875 13.5156 4.58984 13.5889 4.47266 13.5889H3.99414V14.9121H4.47266C4.58496 14.9121 4.6875 14.9902 4.7168 15.0977C4.79492 15.4053 4.91699 15.6982 5.07812 15.9717C5.13672 16.0693 5.12207 16.1963 5.03906 16.2744L4.70215 16.6113L5.63477 17.5439L5.97168 17.207C6.05469 17.124 6.17676 17.1094 6.27441 17.168C6.54785 17.3291 6.84082 17.4512 7.14844 17.5293C7.26074 17.5586 7.33398 17.6562 7.33398 17.7734V18.252H8.65723V17.7734C8.65723 17.6611 8.73535 17.5586 8.84277 17.5293C9.15039 17.4512 9.44336 17.3291 9.7168 17.168C9.81445 17.1094 9.94141 17.124 10.0195 17.207L10.3564 17.5439L11.2891 16.6113L10.9521 16.2744C10.8691 16.1914 10.8545 16.0693 10.9131 15.9717C11.0742 15.6982 11.1963 15.4053 11.2744 15.0977C11.3037 14.9854 11.4014 14.9121 11.5186 14.9121H11.9971V13.5889H11.5186C11.4062 13.5889 11.3086 13.5107 11.2793 13.3984ZM7.99805 16.626C6.68945 16.626 5.625 15.5615 5.625 14.2529C5.625 12.9443 6.68945 11.8799 7.99805 11.8799C9.30664 11.8799 10.3711 12.9443 10.3711 14.2529C10.3711 15.5615 9.30664 16.626 7.99805 16.626Z" fill="#0C71C3"/>
<path id="Vector_4" d="M7.99805 3.24805H15C15.415 3.24805 15.752 2.91113 15.752 2.49609C15.752 2.08105 15.415 1.74414 15 1.74414H7.99805C7.58301 1.74414 7.24609 2.08105 7.24609 2.49609C7.24609 2.91113 7.58789 3.24805 7.99805 3.24805Z" fill="#0C71C3"/>
<path id="Vector_5" d="M10 5.49805V3.75H7.99805C7.30957 3.75 6.74805 3.18848 6.74805 2.5C6.74805 2.22656 6.84082 1.96289 7.00684 1.74805H1.74805V5.74707H10.0195C10.0098 5.66894 10 5.58594 10 5.49805ZM4.70215 3.70605H3.39844C3.26172 3.70605 3.14941 3.59375 3.14941 3.45703C3.14941 3.32031 3.26172 3.20801 3.39844 3.20801H4.70215C4.83887 3.20801 4.95117 3.32031 4.95117 3.45703C4.95117 3.59375 4.83887 3.70605 4.70215 3.70605Z" fill="#0C71C3"/>
<path id="Vector_6" d="M11.499 6.49902C12.0508 6.49902 12.5 6.04981 12.5 5.49805V3.75H10.498V5.49805C10.498 6.04981 10.9473 6.49902 11.499 6.49902Z" fill="#0C71C3"/>
<path id="Vector_7" d="M19.0234 16.6123C19.0039 16.5781 18.999 16.5391 18.999 16.5V14H18.75V16.5C18.75 16.5391 18.7402 16.5781 18.7256 16.6123L18.2715 17.5205L18.6816 18.751H19.0723L19.4824 17.5205L19.0234 16.6123Z" fill="#0C71C3"/>
<path id="Vector_8" d="M16.249 2.5C16.249 3.18848 15.6875 3.75 14.999 3.75H12.9971V5.49805C12.9971 5.58105 12.9873 5.66894 12.9727 5.74707H21.2441V1.74805H15.9902C16.1514 1.95801 16.249 2.2168 16.249 2.5ZM18.1484 3.20312H19.4521C19.5889 3.20312 19.7012 3.31543 19.7012 3.45215C19.7012 3.58887 19.5889 3.70117 19.4521 3.70117H18.1484C18.0117 3.70117 17.8994 3.58887 17.8994 3.45215C17.8994 3.31543 18.0068 3.20312 18.1484 3.20312Z" fill="#0C71C3"/>
<path id="Vector_9" d="M21.5576 0.908203H1.39648C1.15234 0.908203 0.957031 1.10352 0.957031 1.34766V21.5088C0.957031 21.7529 1.15234 21.9482 1.39648 21.9482H21.5576C21.8018 21.9482 21.9971 21.7529 21.9971 21.5088V1.34766C21.9971 1.10352 21.8018 0.908203 21.5576 0.908203ZM21.748 21.499C21.748 21.6357 21.6357 21.748 21.499 21.748H1.49902C1.3623 21.748 1.25 21.6357 1.25 21.499V1.49902C1.25 1.3623 1.3623 1.25 1.49902 1.25H21.499C21.6357 1.25 21.748 1.3623 21.748 1.49902V21.499Z" fill="#0C71C3"/>
<path id="Vector_10" d="M12.8027 6.24023C12.5781 6.63086 12.1924 6.9043 11.748 6.97754V7.76367C11.748 7.90039 11.6357 8.0127 11.499 8.0127C11.3623 8.0127 11.25 7.90039 11.25 7.76367V6.97754C10.8057 6.9043 10.4199 6.63086 10.1953 6.24023C10.1807 6.24512 10.1611 6.25 10.1465 6.25H1.74805V21.25H21.25V6.25H12.8516C12.832 6.25 12.8174 6.24023 12.8027 6.24023ZM12.5 15.1611C12.5 15.2979 12.3877 15.4102 12.251 15.4102H11.7139C11.6455 15.6348 11.5527 15.8496 11.4453 16.0547L11.8262 16.4355C11.9238 16.5332 11.9238 16.6895 11.8262 16.7871L10.5371 18.0762C10.4395 18.1738 10.2832 18.1738 10.1855 18.0762L9.80469 17.6953C9.59961 17.8027 9.38477 17.8906 9.16016 17.9639V18.501C9.16016 18.6377 9.04785 18.75 8.91113 18.75H7.08984C6.95312 18.75 6.84082 18.6377 6.84082 18.501V17.9639C6.61621 17.8955 6.40137 17.8076 6.19629 17.7002L5.81543 18.0811C5.71777 18.1787 5.56152 18.1787 5.46387 18.0811L4.1748 16.7871C4.07715 16.6895 4.07715 16.5332 4.1748 16.4355L4.55566 16.0547C4.44824 15.8496 4.36035 15.6348 4.28711 15.4102H3.75C3.61328 15.4102 3.50098 15.2979 3.50098 15.1611V13.3398C3.50098 13.2031 3.61328 13.0908 3.75 13.0908H4.28711C4.35547 12.8662 4.44824 12.6514 4.55566 12.4463L4.1748 12.0654C4.07715 11.9678 4.07715 11.8115 4.1748 11.7139L5.46387 10.4248C5.56152 10.3271 5.71777 10.3271 5.81543 10.4248L6.19629 10.8057C6.40137 10.6982 6.61621 10.6104 6.84082 10.5371V10C6.84082 9.86328 6.95312 9.75098 7.08984 9.75098H8.91113C9.04785 9.75098 9.16016 9.86328 9.16016 10V10.5371C9.37988 10.6055 9.59961 10.6934 9.80469 10.8057L10.1855 10.4248C10.2832 10.3271 10.4395 10.3271 10.5371 10.4248L11.8262 11.7139C11.9238 11.8115 11.9238 11.9678 11.8262 12.0654L11.4453 12.4463C11.5527 12.6514 11.6406 12.8662 11.7139 13.0908H12.251C12.3877 13.0908 12.5 13.2031 12.5 13.3398V15.1611ZM17.749 9.375C17.749 8.75488 18.252 8.25195 18.8721 8.25195C19.4922 8.25195 19.9951 8.75488 19.9951 9.375V13.75C19.9951 13.8867 19.8828 13.999 19.7461 13.999H19.4971V16.4404L19.9707 17.3877C20 17.4463 20.0049 17.5146 19.9854 17.5781L19.4873 19.0772C19.4531 19.1797 19.3555 19.248 19.248 19.248H18.4961C18.3887 19.248 18.291 19.1797 18.2568 19.0772L17.7588 17.5781C17.7393 17.5146 17.7441 17.4463 17.7734 17.3877L18.2471 16.4404V13.999H17.998C17.8613 13.999 17.749 13.8867 17.749 13.75V9.375ZM14.1504 8.42773C14.1797 8.41309 14.2139 8.4082 14.248 8.4082C14.3848 8.4082 14.4971 8.52051 14.4971 8.65723V9.75098C14.4971 10.0244 14.7217 10.249 14.9951 10.249C15.2686 10.249 15.4932 10.0244 15.4932 9.75098V8.65723C15.4932 8.62305 15.498 8.58887 15.5127 8.55957C15.5664 8.43262 15.7129 8.37402 15.8398 8.42773C16.6162 8.76465 17.1143 9.53125 17.1143 10.376C17.1143 11.1621 16.6797 11.8799 15.9912 12.251V18.75C15.9912 19.3018 15.542 19.751 14.9902 19.751C14.4385 19.751 13.9893 19.3018 13.9893 18.75V12.2461C13.2959 11.875 12.8662 11.1572 12.8662 10.3711C12.876 9.53125 13.374 8.76465 14.1504 8.42773Z" fill="#0C71C3"/>
<path id="Vector_11" d="M14.3496 11.8652C14.4424 11.9043 14.501 11.9971 14.501 12.0947V18.75C14.501 19.0234 14.7256 19.248 14.999 19.248C15.2725 19.248 15.4971 19.0234 15.4971 18.75V12.0898C15.4971 11.9922 15.5557 11.8994 15.6484 11.8604C16.2393 11.6016 16.625 11.0156 16.625 10.3711C16.625 9.87305 16.3955 9.39941 16 9.0918V9.74609C16 10.2979 15.5508 10.7471 14.999 10.7471C14.4473 10.7471 13.998 10.2979 13.998 9.74609V9.0918C13.6074 9.39453 13.373 9.86328 13.373 10.3711C13.373 11.0205 13.7539 11.6064 14.3496 11.8652Z" fill="#0C71C3"/>
</g>
</svg>
