<svg width="26" height="25" viewBox="0 0 26 25" fill="none" xmlns="http://www.w3.org/2000/svg">
<g id="AEDCabinet">
<path id="Vector" d="M6.8618 22.9204H20.3193C20.5368 22.9204 20.7143 22.7429 20.7143 22.5254V2.73289C20.7143 2.51539 20.5368 2.33789 20.3193 2.33789H6.8618C6.6443 2.33789 6.4668 2.51539 6.4668 2.73289V22.5254C6.4668 22.7429 6.6443 22.9204 6.8618 22.9204ZM7.2568 3.12789H19.9243V22.1279H7.2568V3.12789Z" fill="#0C71C3"/>
<path id="Vector_2" d="M2.50781 16.587V20.1495C2.50781 20.8045 3.04031 21.337 3.69531 21.337V22.5245C3.68781 23.607 4.55781 24.492 5.64031 24.5045H20.3553C21.4378 24.4945 22.3078 23.6095 22.3003 22.5245V2.73195C22.3078 1.64945 21.4378 0.764453 20.3553 0.751953H5.64031C4.55781 0.761953 3.68781 1.64695 3.69531 2.73195V3.91945C3.04031 3.91945 2.50781 4.45195 2.50781 5.10695V8.66945C2.50781 9.32445 3.04031 9.85695 3.69531 9.85695V15.3995C3.04031 15.3995 2.50781 15.932 2.50781 16.587ZM3.30031 20.1495V16.587C3.30031 16.3695 3.47781 16.192 3.69531 16.192H4.48781C4.70531 16.192 4.88281 16.3695 4.88281 16.587V20.1495C4.88281 20.367 4.70531 20.5445 4.48781 20.5445H3.69531C3.47781 20.5445 3.30031 20.367 3.30031 20.1495ZM3.30031 8.66945V5.10695C3.30031 4.88945 3.47781 4.71195 3.69531 4.71195H4.48781C4.70531 4.71195 4.88281 4.88945 4.88281 5.10695V8.66945C4.88281 8.88695 4.70531 9.06445 4.48781 9.06445H3.69531C3.47781 9.06445 3.30031 8.88695 3.30031 8.66945ZM4.48781 9.85695C5.14281 9.85695 5.67531 9.32445 5.67531 8.66945V5.10695C5.67531 4.45195 5.14281 3.91945 4.48781 3.91945V2.73195C4.48031 2.08695 4.99531 1.55445 5.64031 1.54445H20.3553C21.0003 1.55445 21.5178 2.08695 21.5078 2.73195V22.5245C21.5153 23.1695 21.0003 23.702 20.3553 23.712H5.64031C4.99531 23.702 4.47781 23.1695 4.48781 22.5245V21.337C5.14281 21.337 5.67531 20.8045 5.67531 20.1495V16.587C5.67531 15.932 5.14281 15.3995 4.48781 15.3995V9.85695Z" fill="#0C71C3"/>
<path id="Vector_3" d="M11.1398 9.85806H12.1848L11.7273 13.4181C11.6873 13.7206 11.8473 14.0131 12.1223 14.1406C12.2198 14.1881 12.3273 14.2131 12.4373 14.2131C12.6323 14.2131 12.8173 14.1331 12.9523 13.9931L16.5623 10.2581C16.7573 10.0556 16.8148 9.75806 16.7048 9.49806C16.5923 9.23306 16.3323 9.06306 16.0448 9.06556H14.9998L15.4573 5.50556C15.4973 5.20306 15.3373 4.91056 15.0623 4.78306C14.7823 4.64806 14.4473 4.70556 14.2298 4.93056L10.6248 8.66556C10.4298 8.86806 10.3723 9.16556 10.4823 9.42556C10.5948 9.69056 10.8548 9.86056 11.1423 9.85806H11.1398ZM14.6398 5.64806L14.1548 9.41306C14.1273 9.63056 14.2798 9.82806 14.4973 9.85556C14.5148 9.85556 14.5298 9.85806 14.5473 9.85806H15.8473L12.5448 13.2781L13.0298 9.51306C13.0573 9.29556 12.9048 9.09806 12.6873 9.07056C12.6698 9.07056 12.6523 9.06806 12.6348 9.06806H11.3348L14.6398 5.64806ZM17.1548 15.7956H10.0298C9.81227 15.7956 9.63477 15.9731 9.63477 16.1906C9.63477 16.4081 9.81227 16.5856 10.0298 16.5856H17.1548C17.3723 16.5856 17.5498 16.4081 17.5498 16.1906C17.5498 15.9731 17.3723 15.7956 17.1548 15.7956ZM17.1548 17.3781H10.0298C9.81227 17.3781 9.63477 17.5556 9.63477 17.7731C9.63477 17.9906 9.81227 18.1681 10.0298 18.1681H17.1548C17.3723 18.1681 17.5498 17.9906 17.5498 17.7731C17.5498 17.5556 17.3723 17.3781 17.1548 17.3781ZM17.1548 18.9606H10.0298C9.81227 18.9606 9.63477 19.1381 9.63477 19.3556C9.63477 19.5731 9.81227 19.7506 10.0298 19.7506H17.1548C17.3723 19.7506 17.5498 19.5731 17.5498 19.3556C17.5498 19.1381 17.3723 18.9606 17.1548 18.9606ZM17.7498 11.8356C16.9848 11.8356 16.3648 12.4556 16.3648 13.2206C16.3648 13.9856 16.9848 14.6056 17.7498 14.6056C18.5148 14.6056 19.1348 13.9856 19.1348 13.2206C19.1348 12.4556 18.5148 11.8356 17.7498 11.8356ZM17.7498 13.8156C17.4223 13.8156 17.1573 13.5506 17.1573 13.2231C17.1573 12.8956 17.4223 12.6306 17.7498 12.6306C18.0773 12.6306 18.3423 12.8956 18.3423 13.2231C18.3423 13.5506 18.0773 13.8156 17.7498 13.8156Z" fill="#0C71C3"/>
</g>
</svg>
