<svg width="26" height="25" viewBox="0 0 26 25" fill="none" xmlns="http://www.w3.org/2000/svg">
<g id="Battery">
<path id="Vector" d="M17.3671 3.72195H15.8821V1.49445C15.8821 1.08445 15.5496 0.751953 15.1396 0.751953H10.6871C10.2771 0.751953 9.94461 1.08445 9.94461 1.49445V3.72195H8.45961C7.64211 3.72195 6.97461 4.38945 6.97461 5.20695V23.0195C6.97461 23.852 7.62711 24.5045 8.45961 24.5045H17.3646C18.1971 24.5045 18.8496 23.852 18.8496 23.0195V5.20445C18.8496 4.37195 18.1971 3.71945 17.3646 3.71945L17.3671 3.72195ZM12.9146 20.0495V15.597H9.94461L12.9146 8.17445V12.627H15.8846L12.9146 20.0495Z" fill="#0C71C3"/>
</g>
</svg>
