<svg width="25" height="25" viewBox="0 0 25 25" fill="none" xmlns="http://www.w3.org/2000/svg">
<g id="Contacts">
<path id="Vector" d="M16.8796 12.1692C17.8871 11.4242 18.5421 10.2167 18.5421 8.85922C18.5421 6.59922 16.7321 4.76172 14.5071 4.76172C12.2821 4.76172 10.4721 6.59922 10.4721 8.85922C10.4721 10.2192 11.1271 11.4242 12.1346 12.1692C9.63211 13.1417 7.84961 15.6042 7.84961 18.4867C7.84961 19.7292 8.84461 20.7392 10.0696 20.7392H18.9471C20.1696 20.7392 21.1671 19.7292 21.1671 18.4867C21.1671 15.6067 19.3846 13.1442 16.8821 12.1692H16.8796ZM11.6821 8.85922C11.6821 7.27672 12.9496 5.99172 14.5071 5.99172C16.0646 5.99172 17.3321 7.27672 17.3321 8.85922C17.3321 10.4417 16.0646 11.7267 14.5071 11.7267C12.9496 11.7267 11.6821 10.4417 11.6821 8.85922ZM18.9446 19.5092H10.0671C9.50961 19.5092 9.05961 19.0517 9.05961 18.4867C9.05961 15.4367 11.5021 12.9567 14.5071 12.9567C17.5121 12.9567 19.9546 15.4367 19.9546 18.4867C19.9546 19.0517 19.5021 19.5092 18.9471 19.5092H18.9446Z" fill="#0C71C3"/>
<path id="Vector_2" d="M20.2605 0.886719H7.18055C5.65305 0.886719 4.41305 2.12672 4.41305 3.65422V4.84922H3.11305C2.80805 4.84922 2.56055 5.09672 2.56055 5.40172C2.56055 5.70672 2.80805 5.95422 3.11305 5.95422H4.40805V9.58672H3.11305C2.80805 9.58672 2.56055 9.83422 2.56055 10.1392C2.56055 10.4442 2.80805 10.6917 3.11305 10.6917H4.40805V14.3242H3.11305C2.80805 14.3242 2.56055 14.5717 2.56055 14.8767C2.56055 15.1817 2.80805 15.4292 3.11305 15.4292H4.40805V19.0617H3.11305C2.80805 19.0617 2.56055 19.3092 2.56055 19.6142C2.56055 19.9192 2.80805 20.1667 3.11305 20.1667H4.40805V21.3617C4.40805 22.8892 5.64805 24.1292 7.17555 24.1292H20.2555C21.783 24.1292 23.023 22.8892 23.023 21.3617V3.65422C23.023 2.12672 21.788 0.886719 20.2605 0.886719ZM21.9205 21.3692C21.918 22.2842 21.1755 23.0267 20.2605 23.0292H7.18055C6.26555 23.0267 5.52305 22.2842 5.52055 21.3692V20.1742H6.81555C7.12055 20.1742 7.36805 19.9267 7.36805 19.6217C7.36805 19.3167 7.12055 19.0692 6.81555 19.0692H5.52055V15.4367H6.81555C7.12055 15.4367 7.36805 15.1892 7.36805 14.8842C7.36805 14.5792 7.12055 14.3317 6.81555 14.3317H5.52055V10.6992H6.81555C7.12055 10.6992 7.36805 10.4517 7.36805 10.1467C7.36805 9.84172 7.12055 9.59422 6.81555 9.59422H5.52055V5.96172H6.81555C7.12055 5.96172 7.36805 5.71422 7.36805 5.40922C7.36805 5.10422 7.12055 4.85672 6.81555 4.85672H5.52055V3.66172C5.52305 2.74672 6.26555 2.00422 7.18055 2.00172H20.2605C21.1755 2.00422 21.918 2.74672 21.9205 3.66172V21.3767V21.3692Z" fill="#0C71C3"/>
</g>
</svg>
