<svg width="25" height="25" viewBox="0 0 25 25" fill="none" xmlns="http://www.w3.org/2000/svg">
<g id="Page-1">
<g id="002---Giving-CPR">
<path id="Oval" d="M3.24305 24.5003C4.75907 24.5003 5.98805 23.3687 5.98805 21.9728C5.98805 20.5769 4.75907 19.4453 3.24305 19.4453C1.72703 19.4453 0.498047 20.5769 0.498047 21.9728C0.498047 23.3687 1.72703 24.5003 3.24305 24.5003Z" fill="#0C71C3"/>
<path id="Shape" d="M18.0928 18.1855H15.3303C15.3428 18.173 15.3603 18.168 15.3703 18.153L18.0903 14.663V18.1855H18.0928ZM13.5078 0.500547C14.6228 0.500547 15.6253 1.12305 16.0478 2.07305C16.4678 3.02305 16.2228 4.11305 15.4278 4.83055L15.4203 4.83555C14.5328 5.63055 13.1778 5.78055 12.1103 5.20055C11.0428 4.62055 10.5303 3.45805 10.8578 2.35805C11.1853 1.25805 12.2703 0.498047 13.5103 0.498047L13.5078 0.500547ZM7.70531 6.31055C8.47281 5.81555 9.38531 5.55055 10.3228 5.55305H11.0953C12.4728 6.67555 14.5428 6.67555 15.9203 5.55305H16.6978C17.6303 5.55055 18.5378 5.81305 19.3028 6.30305C20.8053 7.34305 21.1353 9.29555 20.0453 10.7055L15.6853 16.303C15.6153 16.083 15.5053 15.873 15.3603 15.6855L14.0803 14.053L17.5928 9.59055C17.7328 9.40305 17.6853 9.14555 17.4853 9.01055C17.2828 8.87555 17.0028 8.91555 16.8528 9.09805L13.5153 13.3355L10.1828 9.09555C10.0878 8.97055 9.92781 8.90055 9.76281 8.91555C9.59781 8.93055 9.45281 9.02555 9.38781 9.16555C9.32031 9.30555 9.34281 9.46805 9.44281 9.58805L13.1228 14.2705L14.6203 16.1755C14.8328 16.448 14.9203 16.7855 14.8628 17.1155C14.8053 17.4455 14.6053 17.743 14.3103 17.938C13.6928 18.3305 12.8503 18.2055 12.3953 17.6555L6.97781 10.7005C5.89031 9.29555 6.21281 7.35055 7.70531 6.30555V6.31055ZM11.6528 18.153C11.6528 18.153 11.6728 18.173 11.6803 18.1855H8.48281V14.083L11.6528 18.153ZM6.19531 23.638V20.328C6.19531 19.6105 6.83031 19.028 7.61031 19.0255H21.7528V20.753C21.6028 20.7255 21.4478 20.7105 21.2953 20.7105H9.39781C8.38781 20.7105 7.56781 21.4655 7.56781 22.3955V23.238C7.56781 23.5355 7.65781 23.8255 7.82281 24.0805H6.67531C6.41031 24.0805 6.19781 23.883 6.19781 23.6405L6.19531 23.638ZM9.39781 24.078C8.89281 24.078 8.48281 23.7005 8.48281 23.2355V22.393C8.48281 21.928 8.89281 21.5505 9.39781 21.5505H21.2953C22.0528 21.5505 22.6678 22.1155 22.6678 22.813C22.6678 23.5105 22.0528 24.0755 21.2953 24.0755H9.39781V24.078ZM24.4978 23.658C24.4978 23.8905 24.2928 24.078 24.0403 24.078H23.1128C23.4828 23.6355 23.6453 23.0755 23.5603 22.523C23.4753 21.9705 23.1553 21.473 22.6678 21.1405V19.0255H24.0403C24.2928 19.0255 24.4978 19.213 24.4978 19.4455V23.6555V23.658Z" fill="#0C71C3"/>
</g>
</g>
</svg>
