<svg width="25" height="25" viewBox="0 0 25 25" fill="none" xmlns="http://www.w3.org/2000/svg">
<g id="Group">
<path id="Vector" d="M9.02344 17.9297H15.2686V21.5137H9.02344V17.9297Z" fill="#0C71C3"/>
<path id="Vector_2" d="M15.043 25H16.3613C16.5078 25 16.625 24.8828 16.625 24.7363V23.9111H16.6543C17.2109 23.9111 17.665 23.457 17.665 22.9004V11.2842C17.665 10.7275 17.2109 10.2734 16.6543 10.2734H7.64062C7.08398 10.2734 6.62988 10.7275 6.62988 11.2842V22.9004C6.62988 23.457 7.08398 23.9111 7.64062 23.9111H7.66992V24.7363C7.66992 24.8828 7.78711 25 7.93359 25H9.25195C9.39844 25 9.51562 24.8828 9.51562 24.7363V23.9111H14.7793V24.7363C14.7793 24.8828 14.8965 25 15.043 25ZM8.76367 12.1436H15.5361C15.6826 12.1436 15.7998 12.2607 15.7998 12.4072C15.7998 12.5537 15.6826 12.6709 15.5361 12.6709H8.76367C8.61719 12.6709 8.5 12.5537 8.5 12.4072C8.5 12.2607 8.61719 12.1436 8.76367 12.1436ZM8.76367 13.8379H15.5361C15.6826 13.8379 15.7998 13.9551 15.7998 14.1016C15.7998 14.248 15.6826 14.3652 15.5361 14.3652H8.76367C8.61719 14.3652 8.5 14.248 8.5 14.1016C8.5 13.9551 8.61719 13.8379 8.76367 13.8379ZM8.76367 15.5371H15.5361C15.6826 15.5371 15.7998 15.6543 15.7998 15.8008C15.7998 15.9473 15.6826 16.0645 15.5361 16.0645H8.76367C8.61719 16.0645 8.5 15.9473 8.5 15.8008C8.5 15.6543 8.61719 15.5371 8.76367 15.5371ZM8.75879 22.041C8.6123 22.041 8.49512 21.9238 8.49512 21.7773V17.666C8.49512 17.5195 8.6123 17.4023 8.75879 17.4023H15.5312C15.6777 17.4023 15.7949 17.5195 15.7949 17.666V21.7773C15.7949 21.9238 15.6777 22.041 15.5312 22.041H8.75879ZM18.4658 7.75391V1.01074C18.4658 0.454102 18.0117 0 17.4551 0H6.83984C6.2832 0 5.8291 0.454102 5.8291 1.01074V7.75391C5.8291 8.31055 6.2832 8.76465 6.83984 8.76465H8.92969V9.74121H15.3652V8.76465H17.4551C18.0117 8.76953 18.4658 8.31543 18.4658 7.75391ZM16.3467 6.66992C16.3467 6.79688 16.2441 6.89941 16.1172 6.89941H8.17773C8.05078 6.89941 7.94824 6.79688 7.94824 6.66992V2.09961C7.94824 1.97266 8.05078 1.87012 8.17773 1.87012H16.1172C16.2441 1.87012 16.3467 1.97266 16.3467 2.09961V6.66992ZM22.0596 21.7969C22.0596 22.6611 21.3662 23.3838 20.4775 23.3838C19.6035 23.3838 18.8955 22.6758 18.8955 21.7969V20.835C19.4277 20.8105 19.8477 20.3711 19.8477 19.834V18.9844C19.8477 18.4277 19.3984 17.9785 18.8418 17.9785H18.1973V20.8398H18.3682V21.7969C18.3682 22.9639 19.3154 23.9111 20.4775 23.9111C21.6201 23.9111 22.5869 22.9932 22.5869 21.7969V15.0977H22.0596V21.7969ZM5.93164 17.1973V16.2402H6.10254V13.3789H5.45801C4.90137 13.3789 4.45215 13.8281 4.45215 14.3848V15.2344C4.45215 15.7715 4.87695 16.2061 5.40918 16.2354V17.1973C5.40918 18.0713 4.70117 18.7842 3.82715 18.7842C2.95801 18.7842 2.24512 18.0859 2.24512 17.1973V10.8838C2.15723 10.8936 2.06934 10.8984 1.97656 10.8984C1.88867 10.8984 1.80078 10.8936 1.71777 10.8838V17.1924C1.71777 18.374 2.6748 19.3066 3.82715 19.3066C4.98438 19.3115 5.93164 18.3594 5.93164 17.1973ZM3.16797 10.0098C3.42188 9.83887 3.57324 9.55078 3.57324 9.2334V7.73437C3.57324 7.47559 3.46582 7.22656 3.28027 7.05078L2.62109 6.43066C2.25977 6.08887 1.69336 6.08887 1.33203 6.43066L0.667969 7.05078C0.482422 7.22656 0.375 7.47559 0.375 7.73437V9.2334C0.375 9.55078 0.526367 9.83887 0.780273 10.0098C1.14648 10.2539 1.55664 10.376 1.97656 10.376C2.39648 10.376 2.80664 10.2539 3.16797 10.0098ZM23.7783 7.9248H20.8584C20.3945 7.9248 20.0137 8.30078 20.0137 8.76953V12.4121C20.0137 12.876 20.3945 13.252 20.8584 13.252H21.1123V13.6475C21.1123 14.1553 21.5273 14.5654 22.0303 14.5654H22.6064C23.1143 14.5654 23.5244 14.1504 23.5244 13.6475V13.252H23.7783C24.2471 13.252 24.623 12.876 24.623 12.4121V8.76953C24.623 8.30566 24.2471 7.9248 23.7783 7.9248Z" fill="#0C71C3"/>
</g>
</svg>
