<svg width="20" height="20" viewBox="0 0 20 20" fill="none" xmlns="http://www.w3.org/2000/svg">
<g id="info Button">
<circle id="Ellipse 53" cx="10" cy="10" r="9" fill="white" stroke="black" stroke-width="2"/>
<path id="i" d="M8.8 4.822C8.8 4.498 8.914 4.222 9.142 3.994C9.382 3.754 9.664 3.634 9.988 3.634C10.312 3.634 10.588 3.754 10.816 3.994C11.056 4.222 11.176 4.498 11.176 4.822C11.176 5.146 11.056 5.428 10.816 5.668C10.588 5.896 10.312 6.01 9.988 6.01C9.664 6.01 9.382 5.896 9.142 5.668C8.914 5.428 8.8 5.146 8.8 4.822ZM12.958 13.858L13.264 14.146V14.344C13.036 14.62 12.772 14.908 12.472 15.208C12.172 15.496 11.848 15.742 11.5 15.946C11.164 16.138 10.816 16.234 10.456 16.234C10.24 16.234 10.036 16.186 9.844 16.09C9.652 16.006 9.496 15.886 9.376 15.73C9.22 15.514 9.118 15.25 9.07 14.938C9.022 14.626 9.004 14.194 9.016 13.642C9.028 13.078 9.034 12.34 9.034 11.428V9.322C9.022 9.13 8.974 8.938 8.89 8.746C8.818 8.542 8.656 8.44 8.404 8.44C8.212 8.44 8.008 8.5 7.792 8.62C7.588 8.728 7.378 8.86 7.162 9.016L6.874 8.62C7.15 8.392 7.45 8.164 7.774 7.936C8.11 7.708 8.452 7.516 8.8 7.36C9.148 7.204 9.496 7.126 9.844 7.126C10.024 7.126 10.198 7.162 10.366 7.234C10.534 7.294 10.66 7.396 10.744 7.54C10.816 7.66 10.87 7.81 10.906 7.99C10.942 8.17 10.96 8.524 10.96 9.052C10.96 9.412 10.948 9.778 10.924 10.15C10.912 10.51 10.906 10.87 10.906 11.23C10.906 11.962 10.9 12.586 10.888 13.102C10.888 13.618 10.942 14.014 11.05 14.29C11.158 14.566 11.368 14.704 11.68 14.704C11.896 14.704 12.118 14.608 12.346 14.416C12.574 14.224 12.778 14.038 12.958 13.858Z" fill="black"/>
</g>
</svg>
