<svg width="26" height="25" viewBox="0 0 26 25" fill="none" xmlns="http://www.w3.org/2000/svg">
<g id="RMSBattery" clip-path="url(#clip0_3898_26929)">
<path id="Vector" d="M11.9752 10.5504C11.7027 10.8229 11.7027 11.2629 11.9752 11.5354C12.2477 11.8079 12.6877 11.8079 12.9602 11.5354C13.0377 11.4604 13.2027 11.3304 13.4502 11.3304C13.6977 11.3304 13.8627 11.4579 13.9402 11.5354C14.2127 11.8079 14.6527 11.8079 14.9252 11.5354C15.1977 11.2629 15.1977 10.8229 14.9252 10.5504C14.6977 10.3204 14.2027 9.93789 13.4527 9.93789C12.7027 9.93789 12.2077 10.3204 11.9802 10.5504H11.9752ZM13.4477 1.58789C10.6602 1.58789 8.03766 2.67539 6.06766 4.64789C5.79516 4.92039 5.79516 5.36039 6.06766 5.63289C6.34016 5.90539 6.78016 5.90539 7.05266 5.63289C8.76266 3.92289 11.0327 2.98039 13.4502 2.98039C15.8677 2.98039 18.1377 3.92289 19.8477 5.63289C20.1202 5.90539 20.5602 5.90539 20.8327 5.63289C21.1052 5.36289 21.1052 4.92039 20.8327 4.64789C18.8602 2.67539 16.2402 1.58789 13.4527 1.58789H13.4477Z" fill="#0C71C3"/>
<path id="Vector_2" d="M18.8595 7.59914C19.132 7.32914 19.132 6.88664 18.8595 6.61414C17.4145 5.16664 15.492 4.36914 13.447 4.36914C11.402 4.36914 9.48195 5.16664 8.03445 6.61414C7.76195 6.88664 7.76195 7.32664 8.03445 7.59914C8.30695 7.87164 8.74695 7.87164 9.01945 7.59914C10.202 6.41414 11.7745 5.76164 13.447 5.76164C15.1195 5.76164 16.692 6.41414 17.8745 7.59914C18.147 7.87164 18.587 7.87164 18.8595 7.59914Z" fill="#0C71C3"/>
<path id="Vector_3" d="M16.8898 9.56745C17.1623 9.29745 17.1623 8.85495 16.8898 8.58245C15.0498 6.73995 11.8448 6.73995 10.0048 8.58245C9.73227 8.85495 9.73227 9.29495 10.0048 9.56745C10.2773 9.83995 10.7173 9.83995 10.9898 9.56745C12.3048 8.24995 14.5923 8.24995 15.9073 9.56745C16.1798 9.83995 16.6198 9.83995 16.8923 9.56745H16.8898ZM23.2348 14.1124H3.65977C2.50977 14.1124 1.57227 15.0499 1.57227 16.1999V20.3749C1.57227 21.5249 2.50977 22.4624 3.65977 22.4624H4.35477V23.2049C4.35477 23.5899 4.66477 23.8999 5.04977 23.8999C5.43477 23.8999 5.74477 23.5899 5.74477 23.2049V22.4624H21.1448V23.2049C21.1448 23.5899 21.4548 23.8999 21.8398 23.8999C22.2248 23.8999 22.5348 23.5899 22.5348 23.2049V22.4624H23.2298C24.3798 22.4624 25.3173 21.5249 25.3173 20.3749V16.1999C25.3173 15.0499 24.3798 14.1124 23.2298 14.1124H23.2348ZM16.9723 18.9824C16.9723 19.3674 16.6623 19.6774 16.2773 19.6774C15.8923 19.6774 15.5823 19.3674 15.5823 18.9824V17.5899C15.5823 17.2049 15.8923 16.8949 16.2773 16.8949C16.6623 16.8949 16.9723 17.2049 16.9723 17.5899V18.9824ZM19.7548 18.9824C19.7548 19.3674 19.4448 19.6774 19.0598 19.6774C18.6748 19.6774 18.3648 19.3674 18.3648 18.9824V17.5899C18.3648 17.2049 18.6748 16.8949 19.0598 16.8949C19.4448 16.8949 19.7548 17.2049 19.7548 17.5899V18.9824ZM22.5373 18.9824C22.5373 19.3674 22.2273 19.6774 21.8423 19.6774C21.4573 19.6774 21.1473 19.3674 21.1473 18.9824V17.5899C21.1473 17.2049 21.4573 16.8949 21.8423 16.8949C22.2273 16.8949 22.5373 17.2049 22.5373 17.5899V18.9824ZM2.03977 4.42745C1.68727 4.57995 1.52227 4.98745 1.67477 5.33995L4.83727 12.7199H6.34977L2.95227 4.79245C2.79977 4.43745 2.38727 4.27245 2.03977 4.42745ZM22.0548 12.7199L25.2173 5.33995C25.3698 4.98745 25.2048 4.57745 24.8523 4.42745C24.4998 4.27495 24.0898 4.43995 23.9398 4.79245L20.5423 12.7199H22.0548Z" fill="#0C71C3"/>
</g>
<defs>
<clipPath id="clip0_3898_26929">
<rect width="25" height="25" fill="white" transform="translate(0.5)"/>
</clipPath>
</defs>
</svg>
