<svg width="100" height="101" viewBox="0 0 100 101" fill="none" xmlns="http://www.w3.org/2000/svg">
<path d="M64.5 53.916C63.21 60.256 57.4 65.046 50.68 65.046C43.96 65.046 38.34 60.256 37.05 53.916H31.48C32.85 63.336 40.89 70.616 50.68 70.616C60.47 70.616 68.7 63.336 70.07 53.916H64.5Z" fill="#0C71C3"/>
<path d="M75.63 53.916C74.22 66.406 63.54 76.186 50.68 76.186C37.82 76.186 27.32 66.406 25.91 53.916H3.18V56.696C3.18 57.896 3.95 58.956 5.09 59.336L16.54 63.076C17.02 64.436 17.53 65.686 18.07 66.826L12.79 77.446C12.26 78.516 12.47 79.806 13.31 80.656L21.16 88.506C22.01 89.356 23.3 89.556 24.37 89.026L34.99 83.746C36.14 84.286 37.38 84.796 38.74 85.276L42.48 96.726C42.86 97.866 43.92 98.626 45.12 98.636H56.44C57.64 98.636 58.7 97.866 59.08 96.726L62.82 85.276C64.18 84.796 65.43 84.286 66.57 83.746L77.19 89.026C78.26 89.556 79.55 89.356 80.4 88.506L88.25 80.656C89.1 79.806 89.31 78.516 88.77 77.446L83.49 66.826C84.03 65.676 84.54 64.436 85.02 63.076L96.29 59.336C97.43 58.956 98.19 57.896 98.2 56.696V53.916H75.65H75.63Z" fill="#0C71C3"/>
<path d="M42.84 53.9157C43.99 57.1457 47.05 59.4857 50.68 59.4857C54.31 59.4857 57.55 57.1557 58.7 53.9157H42.84ZM50.68 3.63574C44.54 3.63574 39.55 8.62574 39.55 14.7657C39.55 20.9057 44.54 25.8957 50.68 25.8957C56.82 25.8957 62 20.9057 62 14.7657C62 8.62574 56.82 3.63574 50.68 3.63574ZM78.7 3.63574C72.56 3.63574 67.57 8.62574 67.57 14.7657C67.57 20.9057 72.56 25.8957 78.7 25.8957C84.84 25.8957 89.83 20.9057 89.83 14.7657C89.83 8.62574 84.84 3.63574 78.7 3.63574ZM22.85 3.63574C16.71 3.63574 11.72 8.62574 11.72 14.7657C11.72 20.9057 16.71 25.8957 22.85 25.8957C28.99 25.8957 33.98 20.9057 33.98 14.7657C33.98 8.62574 28.99 3.63574 22.85 3.63574ZM88.19 28.4757C85.49 30.3557 82.23 31.4657 78.7 31.4657C75.17 31.4657 71.93 30.3657 69.24 28.5057C68.02 29.2057 66.85 29.9957 65.78 30.9457C71.19 34.9957 74.95 41.3157 75.75 48.3557H98.19V45.5757C98.19 38.2957 94.13 31.8257 88.2 28.4857L88.19 28.4757ZM50.68 31.4657C40.88 31.4657 32.75 38.9257 31.4 48.3457H70.15C68.8 38.9157 60.48 31.4657 50.68 31.4657ZM32.31 28.5057C29.62 30.3657 26.36 31.4657 22.85 31.4657C19.34 31.4657 16.06 30.3557 13.36 28.4757C7.43 31.8157 3.19 38.2857 3.19 45.5657V48.3457H25.81C26.6 41.2957 30.36 34.9857 35.78 30.9357C34.72 29.9857 33.54 29.1957 32.32 28.4957L32.31 28.5057Z" fill="#0C71C3"/>
</svg>
