<svg width="25" height="25" viewBox="0 0 25 25" fill="none" xmlns="http://www.w3.org/2000/svg">
<g id="Upload">
<path id="Vector" d="M19.2275 21.14H14.1325V15.99H15.8175C16.245 15.99 16.4975 15.505 16.245 15.155L12.97 10.6225C12.7625 10.3325 12.33 10.3325 12.12 10.6225L8.84499 15.155C8.59249 15.505 8.83999 15.99 9.27249 15.99H10.9575V21.14H5.24999C2.70249 21 0.672485 18.6175 0.672485 16.035C0.672485 14.255 1.63749 12.7 3.06999 11.8625C2.93999 11.5075 2.86999 11.13 2.86999 10.7325C2.86999 8.91255 4.33998 7.44255 6.15999 7.44255C6.55248 7.44255 6.93249 7.51005 7.28499 7.64255C8.33749 5.41005 10.61 3.86255 13.25 3.86255C16.6675 3.86755 19.48 6.48255 19.8025 9.81755C22.4275 10.27 24.4225 12.7 24.4225 15.4525C24.4225 18.3925 22.1325 20.9401 19.23 21.1451L19.2275 21.14Z" fill="#0C71C3"/>
</g>
</svg>
